<?xml version="1.0" encoding="UTF-8" standalone="no"?>
<svg
   width="109.765mm"
   height="115.32914mm"
   viewBox="0 0 109.765 115.32914"
   version="1.1"
   id="svg8"
   inkscape:version="1.1 (c68e22c387, 2021-05-23)"
   sodipodi:docname="BW16 v02_schematic.svg"
   inkscape:export-filename="C:\Users\zhuqi\OneDrive - 瑞昱半導體(新加坡)股份有限公司\6-Knowledge Base\2-Amb D\B_BW16v02\BW16 Drawing\RTL8720DN-BW16\RTL8720DN(BW16)\Rtlduino Fritzing_schematic_v02.png"
   inkscape:export-xdpi="96.357201"
   inkscape:export-ydpi="96.357201"
   xmlns:inkscape="http://www.inkscape.org/namespaces/inkscape"
   xmlns:sodipodi="http://sodipodi.sourceforge.net/DTD/sodipodi-0.dtd"
   xmlns="http://www.w3.org/2000/svg"
   xmlns:svg="http://www.w3.org/2000/svg"
   xmlns:rdf="http://www.w3.org/1999/02/22-rdf-syntax-ns#"
   xmlns:cc="http://creativecommons.org/ns#"
   xmlns:dc="http://purl.org/dc/elements/1.1/">
  <defs
     id="defs2">
    <rect
       x="193.46951"
       y="65.927508"
       width="166.35913"
       height="318.54693"
       id="rect36109" />
    <rect
       x="197.16638"
       y="69.008233"
       width="160.19768"
       height="314.85006"
       id="rect33081" />
    <rect
       x="90.752083"
       y="62.885414"
       width="50.535416"
       height="33.337502"
       id="rect857" />
    <rect
       x="97.102081"
       y="65.266663"
       width="3.96875"
       height="12.170833"
       id="rect851" />
  </defs>
  <sodipodi:namedview
     id="base"
     pagecolor="#ffffff"
     bordercolor="#666666"
     borderopacity="1.0"
     inkscape:pageopacity="0.0"
     inkscape:pageshadow="2"
     inkscape:zoom="9.181045"
     inkscape:cx="197.74437"
     inkscape:cy="52.77177"
     inkscape:document-units="mm"
     inkscape:current-layer="text930"
     inkscape:document-rotation="0"
     showgrid="false"
     inkscape:window-width="1904"
     inkscape:window-height="1001"
     inkscape:window-x="0"
     inkscape:window-y="0"
     inkscape:window-maximized="0"
     fit-margin-top="0"
     fit-margin-left="0"
     fit-margin-right="0"
     fit-margin-bottom="0"
     inkscape:pagecheckerboard="0" />
  <metadata
     id="metadata5">
    <rdf:RDF>
      <cc:Work
         rdf:about="">
        <dc:format>image/svg+xml</dc:format>
        <dc:type
           rdf:resource="http://purl.org/dc/dcmitype/StillImage" />
      </cc:Work>
    </rdf:RDF>
  </metadata>
  <g
     inkscape:label="Layer 1"
     inkscape:groupmode="layer"
     id="layer1"
     transform="translate(-60.980666,-45.966664)">
    <path
       id="rect24"
       style="opacity:0.998;fill:none;stroke:#000000;stroke-width:0.534704;paint-order:markers fill stroke"
       d="M 72.513145,46.234016 H 159.18044 V 161.02845 H 72.513145 Z" />
    <g
       aria-label="5V"
       id="use897"
       style="font-size:5px;line-height:1.25;stroke-width:0.264583"
       inkscape:transform-center-x="6.8469106"
       inkscape:transform-center-y="2.2823035">
      <path
         d="m 152.18196,140.58791 q 0,0.2539 -0.0928,0.48584 -0.0928,0.23193 -0.25391,0.39062 -0.17578,0.1709 -0.41992,0.26367 -0.2417,0.0903 -0.56152,0.0903 -0.29786,0 -0.57373,-0.0635 -0.27588,-0.061 -0.46631,-0.14893 v -0.51513 h 0.0342 q 0.20019,0.12695 0.46875,0.21728 0.26855,0.0879 0.52734,0.0879 0.17334,0 0.33447,-0.0488 0.16358,-0.0488 0.29053,-0.1709 0.10742,-0.10498 0.16113,-0.25146 0.0562,-0.14648 0.0562,-0.33936 0,-0.18798 -0.0659,-0.31738 -0.0635,-0.12939 -0.17823,-0.20752 -0.12695,-0.0928 -0.31005,-0.12939 -0.18067,-0.0391 -0.40528,-0.0391 -0.21484,0 -0.41504,0.0293 -0.19775,0.0293 -0.34179,0.0586 v -1.87256 h 2.1875 v 0.42724 h -1.71631 v 0.9668 q 0.10498,-0.01 0.21484,-0.0146 0.10987,-0.005 0.19043,-0.005 0.29541,0 0.51758,0.0513 0.22217,0.0488 0.40771,0.17578 0.19532,0.13428 0.30274,0.34668 0.10742,0.2124 0.10742,0.53223 z"
         id="path904" />
      <path
         d="m 155.89046,138.10744 -1.32325,3.63525 h -0.64453 l -1.32324,-3.63525 h 0.51758 l 1.14014,3.19824 1.14013,-3.19824 z"
         id="path906" />
    </g>
    <g
       aria-label="5V"
       id="use897-6"
       style="font-size:5px;line-height:1.25;stroke-width:0.264583"
       inkscape:transform-center-x="6.8469106"
       inkscape:transform-center-y="2.2823035">
      <path
         d="m 78.848816,140.58791 q 0,0.2539 -0.09277,0.48584 -0.09277,0.23193 -0.253906,0.39062 -0.175781,0.1709 -0.419922,0.26367 -0.241699,0.0903 -0.561523,0.0903 -0.297852,0 -0.573731,-0.0635 -0.275878,-0.061 -0.466308,-0.14893 v -0.51513 h 0.03418 q 0.200195,0.12695 0.46875,0.21728 0.268554,0.0879 0.527343,0.0879 0.17334,0 0.334473,-0.0488 0.163574,-0.0488 0.290527,-0.1709 0.107422,-0.10498 0.161133,-0.25146 0.05615,-0.14648 0.05615,-0.33936 0,-0.18798 -0.06592,-0.31738 -0.06348,-0.12939 -0.178222,-0.20752 -0.126953,-0.0928 -0.310059,-0.12939 -0.180664,-0.0391 -0.405273,-0.0391 -0.214844,0 -0.415039,0.0293 -0.197754,0.0293 -0.341797,0.0586 v -1.87256 h 2.1875 v 0.42724 h -1.716309 v 0.9668 q 0.104981,-0.01 0.214844,-0.0146 0.109863,-0.005 0.19043,-0.005 0.29541,0 0.517578,0.0513 0.222168,0.0488 0.407715,0.17578 0.195312,0.13428 0.302734,0.34668 0.107422,0.2124 0.107422,0.53223 z"
         id="path909" />
      <path
         d="m 82.557312,138.10744 -1.323242,3.63525 h -0.644531 l -1.323243,-3.63525 h 0.517579 l 1.140136,3.19824 1.140137,-3.19824 z"
         id="path911" />
    </g>
    <g
       aria-label="GND"
       id="use899"
       style="font-size:5px;line-height:1.25;stroke-width:0.264583">
      <path
         d="m 79.720398,68.695702 q -0.297852,0.136718 -0.651856,0.239257 -0.351562,0.100098 -0.681152,0.100098 -0.424805,0 -0.778808,-0.117187 -0.354004,-0.117188 -0.603028,-0.351563 -0.251465,-0.236816 -0.388183,-0.59082 -0.136719,-0.356446 -0.136719,-0.83252 0,-0.871582 0.507812,-1.374511 0.510254,-0.505372 1.398926,-0.505372 0.310059,0 0.632324,0.07568 0.324707,0.07324 0.698243,0.251465 v 0.57373 h -0.04395 q -0.07568,-0.05859 -0.219726,-0.153808 -0.144043,-0.09521 -0.283203,-0.158692 -0.168457,-0.07568 -0.383301,-0.124511 -0.212403,-0.05127 -0.483399,-0.05127 -0.610351,0 -0.966797,0.393066 -0.354003,0.390625 -0.354003,1.059571 0,0.705566 0.371093,1.098633 0.371094,0.390625 1.010742,0.390625 0.234375,0 0.466309,-0.04639 0.234375,-0.04639 0.410156,-0.119629 v -0.891113 h -0.974121 v -0.424805 h 1.452637 z"
         id="path914" />
      <path
         d="m 83.338562,68.964256 h -0.598145 l -1.723632,-3.251953 v 3.251953 h -0.45166 v -3.635254 h 0.749511 l 1.572266,2.96875 v -2.96875 h 0.45166 z"
         id="path916" />
      <path
         d="m 87.376648,67.150291 q 0,0.495606 -0.217285,0.898438 -0.214844,0.402832 -0.573731,0.625 -0.249023,0.153809 -0.55664,0.222168 -0.305176,0.06836 -0.805664,0.06836 h -0.917969 v -3.635254 h 0.908203 q 0.532227,0 0.844727,0.07813 0.314941,0.07568 0.532226,0.209961 0.371094,0.231934 0.578613,0.617676 0.20752,0.385742 0.20752,0.915527 z m -0.505371,-0.0073 q 0,-0.427246 -0.148926,-0.720215 -0.148926,-0.292968 -0.444336,-0.461425 -0.214844,-0.122071 -0.456543,-0.168457 -0.241699,-0.04883 -0.578613,-0.04883 h -0.454102 v 2.805176 h 0.454102 q 0.349121,0 0.60791,-0.05127 0.261231,-0.05127 0.478516,-0.19043 0.270996,-0.17334 0.405273,-0.456543 0.136719,-0.283203 0.136719,-0.708008 z"
         id="path918" />
    </g>
    <g
       aria-label="EN"
       id="use903"
       style="font-size:5px;line-height:1.25;stroke-width:0.264583">
      <path
         d="m 78.875671,119.06071 h -2.395019 v -3.63526 h 2.395019 v 0.42969 H 76.96405 v 0.99609 h 1.911621 v 0.42969 H 76.96405 v 1.3501 h 1.911621 z"
         id="path921" />
      <path
         d="m 82.41571,119.06071 h -0.598144 l -1.723633,-3.25196 v 3.25196 h -0.45166 v -3.63526 h 0.749512 l 1.572265,2.96875 v -2.96875 h 0.45166 z"
         id="path923" />
    </g>
    <g
       aria-label="3V3"
       id="use905"
       style="font-size:5px;line-height:1.25;stroke-width:0.264583">
      <path
         d="m 78.607117,132.65988 q 0.117187,0.10498 0.192871,0.26367 0.07568,0.15869 0.07568,0.41016 0,0.24902 -0.09033,0.45654 -0.09033,0.20752 -0.253906,0.36133 -0.183105,0.1709 -0.432129,0.25391 -0.246582,0.0806 -0.541992,0.0806 -0.302734,0 -0.595703,-0.0732 -0.292969,-0.0708 -0.480957,-0.15625 v -0.51025 h 0.03662 q 0.207519,0.13672 0.488281,0.22705 0.280762,0.0903 0.541992,0.0903 0.153809,0 0.327149,-0.0513 0.17334,-0.0513 0.280762,-0.15137 0.112304,-0.10742 0.166015,-0.23681 0.05615,-0.1294 0.05615,-0.32715 0,-0.19531 -0.06348,-0.32227 -0.06104,-0.12939 -0.170898,-0.20263 -0.109864,-0.0757 -0.266114,-0.10254 -0.15625,-0.0293 -0.336914,-0.0293 h -0.219726 v -0.40527 h 0.170898 q 0.371094,0 0.59082,-0.15381 0.222168,-0.15625 0.222168,-0.4541 0,-0.13184 -0.05615,-0.2295 -0.05615,-0.10009 -0.15625,-0.16357 -0.10498,-0.0635 -0.224609,-0.0879 -0.119629,-0.0244 -0.270996,-0.0244 -0.231934,0 -0.493165,0.083 -0.26123,0.083 -0.493164,0.23438 h -0.02441 v -0.51026 q 0.17334,-0.0854 0.461426,-0.15625 0.290527,-0.0732 0.561524,-0.0732 0.266113,0 0.46875,0.0488 0.202636,0.0488 0.36621,0.15625 0.175782,0.11719 0.266114,0.2832 0.09033,0.16602 0.09033,0.38819 0,0.30273 -0.214844,0.52978 -0.212402,0.22461 -0.50293,0.28321 v 0.0342 q 0.117188,0.0195 0.268555,0.083 0.151367,0.061 0.256348,0.15381 z"
         id="path926" />
      <path
         d="m 82.60614,130.77512 -1.323242,3.63525 h -0.644531 l -1.323242,-3.63525 h 0.517578 l 1.140136,3.19824 1.140137,-3.19824 z"
         id="path928" />
      <path
         d="m 85.203796,132.65988 q 0.117188,0.10498 0.192871,0.26367 0.07568,0.15869 0.07568,0.41016 0,0.24902 -0.09033,0.45654 -0.09033,0.20752 -0.253906,0.36133 -0.183106,0.1709 -0.432129,0.25391 -0.246582,0.0806 -0.541992,0.0806 -0.302735,0 -0.595703,-0.0732 -0.292969,-0.0708 -0.480957,-0.15625 v -0.51025 h 0.03662 q 0.207519,0.13672 0.488281,0.22705 0.280762,0.0903 0.541992,0.0903 0.153809,0 0.327149,-0.0513 0.173339,-0.0513 0.280761,-0.15137 0.112305,-0.10742 0.166016,-0.23681 0.05615,-0.1294 0.05615,-0.32715 0,-0.19531 -0.06348,-0.32227 -0.06104,-0.12939 -0.170899,-0.20263 -0.109863,-0.0757 -0.266113,-0.10254 -0.15625,-0.0293 -0.336914,-0.0293 h -0.219727 v -0.40527 h 0.170899 q 0.371093,0 0.59082,-0.15381 0.222168,-0.15625 0.222168,-0.4541 0,-0.13184 -0.05615,-0.2295 -0.05615,-0.10009 -0.15625,-0.16357 -0.104981,-0.0635 -0.22461,-0.0879 -0.119629,-0.0244 -0.270996,-0.0244 -0.231933,0 -0.493164,0.083 -0.26123,0.083 -0.493164,0.23438 h -0.02441 v -0.51026 q 0.17334,-0.0854 0.461426,-0.15625 0.290527,-0.0732 0.561523,-0.0732 0.266114,0 0.46875,0.0488 0.202637,0.0488 0.366211,0.15625 0.175781,0.11719 0.266113,0.2832 0.09033,0.16602 0.09033,0.38819 0,0.30273 -0.214843,0.52978 -0.212403,0.22461 -0.50293,0.28321 v 0.0342 q 0.117188,0.0195 0.268555,0.083 0.151367,0.061 0.256347,0.15381 z"
         id="path930" />
    </g>
    <g
       aria-label="GND"
       id="use907"
       style="font-size:5px;line-height:1.25;stroke-width:0.264583">
      <path
         d="m 148.23421,68.206635 q -0.29785,0.136718 -0.65186,0.239257 -0.35156,0.100098 -0.68115,0.100098 -0.42481,0 -0.77881,-0.117188 -0.354,-0.117187 -0.60303,-0.351562 -0.25146,-0.236816 -0.38818,-0.59082 -0.13672,-0.356446 -0.13672,-0.83252 0,-0.871582 0.50781,-1.374512 0.51026,-0.505371 1.39893,-0.505371 0.31006,0 0.63232,0.07568 0.32471,0.07324 0.69825,0.251465 v 0.57373 h -0.044 q -0.0757,-0.05859 -0.21973,-0.153808 -0.14404,-0.09522 -0.2832,-0.158692 -0.16846,-0.07568 -0.3833,-0.124511 -0.2124,-0.05127 -0.4834,-0.05127 -0.61035,0 -0.9668,0.393066 -0.354,0.390625 -0.354,1.059571 0,0.705566 0.37109,1.098633 0.3711,0.390625 1.01075,0.390625 0.23437,0 0.46631,-0.04639 0.23437,-0.04639 0.41015,-0.119629 v -0.891113 h -0.97412 v -0.424805 h 1.45264 z"
         id="path933" />
      <path
         d="m 151.85237,68.475189 h -0.59814 l -1.72364,-3.251953 v 3.251953 h -0.45166 v -3.635254 h 0.74952 l 1.57226,2.96875 v -2.96875 h 0.45166 z"
         id="path935" />
      <path
         d="m 155.89046,66.661224 q 0,0.495606 -0.21729,0.898438 -0.21484,0.402832 -0.57373,0.625 -0.24902,0.153808 -0.55664,0.222168 -0.30517,0.06836 -0.80566,0.06836 h -0.91797 v -3.635254 h 0.9082 q 0.53223,0 0.84473,0.07813 0.31494,0.07568 0.53222,0.209961 0.3711,0.231934 0.57862,0.617676 0.20752,0.385742 0.20752,0.915527 z m -0.50537,-0.0073 q 0,-0.427246 -0.14893,-0.720215 -0.14893,-0.292968 -0.44434,-0.461425 -0.21484,-0.122071 -0.45654,-0.168458 -0.2417,-0.04883 -0.57861,-0.04883 h -0.4541 v 2.805176 h 0.4541 q 0.34912,0 0.60791,-0.05127 0.26123,-0.05127 0.47851,-0.19043 0.271,-0.17334 0.40528,-0.456543 0.13672,-0.283203 0.13672,-0.708008 z"
         id="path937" />
    </g>
    <g
       aria-label="PA12"
       id="use909"
       style="font-size:5px;line-height:1.25;stroke-width:0.264583">
      <path
         d="m 146.41292,95.06105 q 0,0.2417 -0.0855,0.449219 -0.083,0.205078 -0.23438,0.356445 -0.18798,0.187989 -0.44433,0.283204 -0.25635,0.09277 -0.64697,0.09277 h -0.4834 v 1.354981 h -0.4834 v -3.635254 h 0.98633 q 0.32714,0 0.5542,0.05615 0.22705,0.05371 0.40283,0.170898 0.20752,0.139161 0.31982,0.34668 0.11475,0.20752 0.11475,0.524902 z m -0.50293,0.01221 q 0,-0.187988 -0.0659,-0.327148 -0.0659,-0.13916 -0.20019,-0.227051 -0.11719,-0.07568 -0.26856,-0.107422 -0.14893,-0.03418 -0.37842,-0.03418 h -0.47851 v 1.452636 h 0.40771 q 0.29297,0 0.47608,-0.05127 0.1831,-0.05371 0.29785,-0.168457 0.11474,-0.117188 0.16113,-0.246582 0.0488,-0.129395 0.0488,-0.290528 z"
         id="path940" />
      <path
         d="m 149.79427,97.597672 h -0.51514 l -0.35645,-1.013184 h -1.57226 l -0.35645,1.013184 h -0.49072 l 1.32324,-3.635254 h 0.64453 z m -1.02051,-1.428223 -0.63721,-1.784668 -0.63965,1.784668 z"
         id="path942" />
      <path
         d="m 152.50423,97.597672 h -1.96778 v -0.371094 h 0.75684 v -2.436524 h -0.75684 v -0.332031 q 0.15381,0 0.32959,-0.02441 0.17578,-0.02685 0.26612,-0.07568 0.1123,-0.06103 0.17578,-0.153808 0.0659,-0.09521 0.0757,-0.253906 h 0.37842 v 3.276367 h 0.74219 z"
         id="path944" />
      <path
         d="m 155.89046,97.597672 h -2.46094 v -0.510254 q 0.25635,-0.219727 0.51269,-0.439454 0.25879,-0.219726 0.48096,-0.437011 0.46875,-0.454102 0.64209,-0.720215 0.17334,-0.268555 0.17334,-0.578613 0,-0.283203 -0.18799,-0.441895 -0.18554,-0.161133 -0.52002,-0.161133 -0.22216,0 -0.48095,0.07813 -0.25879,0.07813 -0.50537,0.239258 h -0.0244 v -0.512695 q 0.17334,-0.08545 0.46143,-0.15625 0.29052,-0.0708 0.56152,-0.0708 0.55908,0 0.87647,0.270996 0.31738,0.268555 0.31738,0.729981 0,0.207519 -0.0537,0.388183 -0.0513,0.178223 -0.15381,0.339356 -0.0952,0.151367 -0.22461,0.297851 -0.12695,0.146485 -0.31006,0.324707 -0.26123,0.256348 -0.53955,0.498047 -0.27832,0.239258 -0.52002,0.444336 h 1.95557 z"
         id="path946" />
    </g>
    <g
       aria-label="PA30"
       id="use911"
       style="font-size:5px;line-height:1.25;stroke-width:0.264583">
      <path
         d="m 78.858582,73.541962 q 0,0.241699 -0.08545,0.449218 -0.08301,0.205079 -0.234375,0.356446 -0.187988,0.187988 -0.444336,0.283203 -0.256347,0.09277 -0.646972,0.09277 H 76.96405 v 1.354981 h -0.483398 v -3.635254 h 0.986328 q 0.327148,0 0.554199,0.05615 0.227051,0.05371 0.402832,0.170899 0.20752,0.13916 0.319824,0.346679 0.114747,0.20752 0.114747,0.524903 z m -0.50293,0.01221 q 0,-0.187989 -0.06592,-0.327149 -0.06592,-0.13916 -0.200195,-0.227051 -0.117188,-0.07568 -0.268555,-0.107421 -0.148926,-0.03418 -0.378418,-0.03418 H 76.96405 v 1.452637 h 0.407715 q 0.292969,0 0.476074,-0.05127 0.183106,-0.05371 0.297852,-0.168457 0.114746,-0.117187 0.161133,-0.246582 0.04883,-0.129394 0.04883,-0.290527 z"
         id="path949" />
      <path
         d="m 82.239929,76.078583 h -0.515137 l -0.356445,-1.013184 h -1.572265 l -0.356446,1.013184 h -0.490722 l 1.323242,-3.635254 h 0.644531 z M 81.219421,74.65036 80.582214,72.865692 79.942566,74.65036 Z"
         id="path951" />
      <path
         d="m 84.837585,74.328094 q 0.117188,0.104981 0.192872,0.263672 0.07568,0.158692 0.07568,0.410157 0,0.249023 -0.09033,0.456543 -0.09033,0.207519 -0.253906,0.361328 -0.183106,0.170898 -0.432129,0.253906 -0.246582,0.08057 -0.541992,0.08057 -0.302735,0 -0.595703,-0.07324 -0.292969,-0.0708 -0.480957,-0.15625 V 75.41452 h 0.03662 q 0.207519,0.136719 0.488281,0.227051 0.280762,0.09033 0.541992,0.09033 0.153809,0 0.327149,-0.05127 0.173339,-0.05127 0.280761,-0.151368 0.112305,-0.107422 0.166016,-0.236816 0.05615,-0.129395 0.05615,-0.327148 0,-0.195313 -0.06348,-0.322266 -0.06104,-0.129395 -0.170899,-0.202637 -0.109863,-0.07568 -0.266113,-0.102539 -0.15625,-0.0293 -0.336914,-0.0293 H 83.550964 V 73.90329 h 0.170899 q 0.371094,0 0.59082,-0.153809 0.222168,-0.15625 0.222168,-0.454101 0,-0.131836 -0.05615,-0.229493 -0.05615,-0.100097 -0.15625,-0.163574 -0.104981,-0.06348 -0.22461,-0.08789 -0.119629,-0.02441 -0.270996,-0.02441 -0.231933,0 -0.493164,0.08301 -0.26123,0.08301 -0.493164,0.234375 h -0.02441 v -0.510254 q 0.17334,-0.08545 0.461426,-0.15625 0.290527,-0.07324 0.561523,-0.07324 0.266114,0 0.46875,0.04883 0.202637,0.04883 0.366211,0.15625 0.175781,0.117188 0.266114,0.283204 0.09033,0.166015 0.09033,0.388183 0,0.302734 -0.214844,0.529785 -0.212403,0.22461 -0.50293,0.283203 v 0.03418 q 0.117188,0.01953 0.268555,0.08301 0.151367,0.06104 0.256347,0.153808 z"
         id="path953" />
      <path
         d="m 88.331238,74.259735 q 0,0.979004 -0.307617,1.437988 -0.305176,0.456543 -0.949707,0.456543 -0.654297,0 -0.957032,-0.463867 -0.300293,-0.463867 -0.300293,-1.425781 0,-0.969238 0.305176,-1.430664 0.305176,-0.463867 0.952149,-0.463867 0.654296,0 0.954589,0.471191 0.302735,0.46875 0.302735,1.418457 z m -0.64209,1.108399 q 0.08545,-0.197754 0.114746,-0.463868 0.03174,-0.268554 0.03174,-0.644531 0,-0.371094 -0.03174,-0.644531 -0.0293,-0.273438 -0.117187,-0.463867 -0.08545,-0.187989 -0.234375,-0.283203 -0.146485,-0.09521 -0.378418,-0.09521 -0.229493,0 -0.38086,0.09521 -0.148926,0.09521 -0.236816,0.288085 -0.08301,0.180665 -0.114746,0.471192 -0.0293,0.290527 -0.0293,0.637207 0,0.380859 0.02685,0.637207 0.02686,0.256348 0.114746,0.458984 0.08057,0.19043 0.227051,0.290528 0.148926,0.100097 0.393067,0.100097 0.229492,0 0.380859,-0.09522 0.151367,-0.09521 0.234375,-0.288085 z"
         id="path955" />
    </g>
    <g
       aria-label="PA14"
       id="use913"
       style="font-size:5px;line-height:1.25;stroke-width:0.264583">
      <path
         d="m 146.32991,80.651451 q 0,0.241699 -0.0855,0.449219 -0.083,0.205078 -0.23437,0.356445 -0.18799,0.187988 -0.44434,0.283203 -0.25635,0.09277 -0.64697,0.09277 h -0.4834 v 1.35498 h -0.4834 v -3.635254 h 0.98633 q 0.32715,0 0.5542,0.05615 0.22705,0.05371 0.40283,0.170898 0.20752,0.13916 0.31982,0.34668 0.11475,0.207519 0.11475,0.524902 z m -0.50293,0.01221 q 0,-0.187988 -0.0659,-0.327148 -0.0659,-0.13916 -0.20019,-0.227051 -0.11719,-0.07568 -0.26856,-0.107422 -0.14892,-0.03418 -0.37842,-0.03418 h -0.47851 v 1.452637 h 0.40771 q 0.29297,0 0.47608,-0.05127 0.1831,-0.05371 0.29785,-0.168457 0.11475,-0.117188 0.16113,-0.246583 0.0488,-0.129394 0.0488,-0.290527 z"
         id="path958" />
      <path
         d="m 149.71126,83.188072 h -0.51514 l -0.35644,-1.013183 h -1.57227 l -0.35645,1.013183 h -0.49072 l 1.32324,-3.635254 h 0.64454 z m -1.02051,-1.428222 -0.63721,-1.784668 -0.63965,1.784668 z"
         id="path960" />
      <path
         d="m 152.42122,83.188072 h -1.96777 v -0.371094 h 0.75683 v -2.436523 h -0.75683 v -0.332031 q 0.1538,0 0.32959,-0.02441 0.17578,-0.02686 0.26611,-0.07568 0.1123,-0.06103 0.17578,-0.153808 0.0659,-0.09521 0.0757,-0.253907 h 0.37842 v 3.276367 h 0.74219 z"
         id="path962" />
      <path
         d="m 155.89046,82.165123 h -0.53955 v 1.022949 h -0.46875 v -1.022949 h -1.74073 V 81.6036 l 1.76026,-2.050782 h 0.44922 v 2.22168 h 0.53955 z m -1.0083,-0.390625 v -1.640625 l -1.4087,1.640625 z"
         id="path964" />
    </g>
    <g
       aria-label="PA13"
       id="use915"
       style="font-size:5px;line-height:1.25;stroke-width:0.264583">
      <path
         d="m 146.46419,87.696648 q 0,0.241699 -0.0855,0.449218 -0.083,0.205079 -0.23438,0.356446 -0.18798,0.187988 -0.44433,0.283203 -0.25635,0.09277 -0.64698,0.09277 h -0.48339 v 1.354981 h -0.4834 v -3.635254 h 0.98633 q 0.32714,0 0.5542,0.05615 0.22705,0.05371 0.40283,0.170899 0.20752,0.13916 0.31982,0.346679 0.11475,0.20752 0.11475,0.524903 z m -0.50293,0.01221 q 0,-0.187989 -0.0659,-0.327149 -0.0659,-0.13916 -0.2002,-0.227051 -0.11718,-0.07568 -0.26855,-0.107421 -0.14893,-0.03418 -0.37842,-0.03418 h -0.47851 v 1.452637 h 0.40771 q 0.29297,0 0.47608,-0.05127 0.1831,-0.05371 0.29785,-0.168457 0.11474,-0.117187 0.16113,-0.246582 0.0488,-0.129395 0.0488,-0.290527 z"
         id="path967" />
      <path
         d="m 149.84554,90.233269 h -0.51514 l -0.35645,-1.013184 h -1.57226 l -0.35645,1.013184 h -0.49072 l 1.32324,-3.635254 h 0.64453 z m -1.02051,-1.428223 -0.63721,-1.784668 -0.63965,1.784668 z"
         id="path969" />
      <path
         d="m 152.5555,90.233269 h -1.96778 v -0.371094 h 0.75684 v -2.436523 h -0.75684 V 87.09362 q 0.15381,0 0.32959,-0.02441 0.17578,-0.02685 0.26612,-0.07568 0.1123,-0.06104 0.17578,-0.153809 0.0659,-0.09521 0.0757,-0.253906 h 0.37842 v 3.276367 h 0.74219 z"
         id="path971" />
      <path
         d="m 155.6219,88.48278 q 0.11719,0.104981 0.19287,0.263672 0.0757,0.158692 0.0757,0.410157 0,0.249023 -0.0903,0.456543 -0.0903,0.207519 -0.25391,0.361328 -0.18311,0.170898 -0.43213,0.253906 -0.24658,0.08057 -0.54199,0.08057 -0.30274,0 -0.59571,-0.07324 -0.29296,-0.0708 -0.48095,-0.15625 v -0.510254 h 0.0366 q 0.20752,0.136719 0.48828,0.227051 0.28076,0.09033 0.54199,0.09033 0.15381,0 0.32715,-0.05127 0.17334,-0.05127 0.28076,-0.151368 0.11231,-0.107422 0.16602,-0.236816 0.0562,-0.129395 0.0562,-0.327149 0,-0.195312 -0.0635,-0.322265 -0.061,-0.129395 -0.17089,-0.202637 -0.10987,-0.07568 -0.26612,-0.102539 -0.15625,-0.0293 -0.33691,-0.0293 h -0.21973 v -0.405273 h 0.1709 q 0.37109,0 0.59082,-0.153809 0.22217,-0.15625 0.22217,-0.454101 0,-0.131836 -0.0562,-0.229493 -0.0562,-0.100097 -0.15625,-0.163574 -0.10498,-0.06348 -0.22461,-0.08789 -0.11963,-0.02441 -0.271,-0.02441 -0.23193,0 -0.49316,0.08301 -0.26123,0.08301 -0.49317,0.234375 h -0.0244 v -0.510254 q 0.17334,-0.08545 0.46142,-0.15625 0.29053,-0.07324 0.56153,-0.07324 0.26611,0 0.46875,0.04883 0.20263,0.04883 0.36621,0.15625 0.17578,0.117188 0.26611,0.283203 0.0903,0.166016 0.0903,0.388184 0,0.302734 -0.21484,0.529785 -0.2124,0.22461 -0.50293,0.283203 v 0.03418 q 0.11719,0.01953 0.26855,0.08301 0.15137,0.06104 0.25635,0.153808 z"
         id="path973" />
    </g>
    <g
       aria-label="PA8_LOG_RXD"
       id="use917"
       style="font-size:5px;line-height:1.25;stroke-width:0.264583">
      <path
         d="m 78.858582,102.42842 q 0,0.2417 -0.08545,0.44922 -0.08301,0.20508 -0.234375,0.35645 -0.187988,0.18798 -0.444336,0.2832 -0.256347,0.0928 -0.646972,0.0928 H 76.96405 v 1.35498 h -0.483398 v -3.63525 h 0.986328 q 0.327148,0 0.554199,0.0562 0.227051,0.0537 0.402832,0.1709 0.20752,0.13916 0.319824,0.34668 0.114747,0.20752 0.114747,0.5249 z m -0.50293,0.0122 q 0,-0.18799 -0.06592,-0.32715 -0.06592,-0.13916 -0.200195,-0.22705 -0.117188,-0.0757 -0.268555,-0.10742 -0.148926,-0.0342 -0.378418,-0.0342 H 76.96405 v 1.45263 h 0.407715 q 0.292969,0 0.476074,-0.0513 0.183106,-0.0537 0.297852,-0.16845 0.114746,-0.11719 0.161133,-0.24658 0.04883,-0.1294 0.04883,-0.29053 z"
         id="path976" />
      <path
         d="m 82.239929,104.96504 h -0.515137 l -0.356445,-1.01318 h -1.572265 l -0.356446,1.01318 h -0.490722 l 1.323242,-3.63525 h 0.644531 z m -1.020508,-1.42822 -0.637207,-1.78467 -0.639648,1.78467 z"
         id="path978" />
      <path
         d="m 85.184265,103.95186 q 0,0.47119 -0.368652,0.78369 -0.366211,0.3125 -0.922852,0.3125 -0.59082,0 -0.942383,-0.30518 -0.349121,-0.30517 -0.349121,-0.78125 0,-0.30273 0.175782,-0.54687 0.175781,-0.24658 0.495605,-0.39063 v -0.0146 q -0.292969,-0.15625 -0.43457,-0.3418 -0.13916,-0.18555 -0.13916,-0.46387 0,-0.41015 0.336914,-0.68359 0.336914,-0.27344 0.856933,-0.27344 0.544434,0 0.869141,0.26123 0.324707,0.26123 0.324707,0.66406 0,0.24659 -0.153809,0.48584 -0.153808,0.23682 -0.45166,0.3711 v 0.0147 q 0.341797,0.14648 0.522461,0.36132 0.180664,0.21485 0.180664,0.54688 z m -0.578613,-1.7749 q 0,-0.26123 -0.202637,-0.41504 -0.200195,-0.15625 -0.512695,-0.15625 -0.307617,0 -0.505371,0.14648 -0.195313,0.14649 -0.195313,0.39551 0,0.17578 0.09766,0.30518 0.100098,0.12695 0.300293,0.22705 0.09033,0.0439 0.25879,0.11474 0.170898,0.0708 0.332031,0.11719 0.241699,-0.16113 0.334472,-0.33447 0.09277,-0.17334 0.09277,-0.40039 z m 0.07568,1.82129 q 0,-0.22461 -0.100097,-0.35889 -0.09766,-0.13672 -0.385742,-0.27344 -0.114746,-0.0537 -0.251465,-0.1001 -0.136719,-0.0464 -0.36377,-0.12939 -0.219726,0.11963 -0.354004,0.32471 -0.131836,0.20507 -0.131836,0.46386 0,0.32959 0.227051,0.54444 0.227051,0.21484 0.576172,0.21484 0.356445,0 0.568848,-0.18311 0.214843,-0.1831 0.214843,-0.50292 z"
         id="path980" />
      <path
         d="m 88.670593,105.69746 h -3.198242 v -0.29296 h 3.198242 z"
         id="path982" />
      <path
         d="m 91.448914,104.96504 h -2.299805 v -3.63525 h 0.483398 v 3.20556 h 1.816407 z"
         id="path984" />
      <path
         d="m 94.593445,101.74727 q 0.222168,0.24414 0.339355,0.59814 0.119629,0.35401 0.119629,0.80323 0,0.44921 -0.12207,0.80566 -0.119629,0.354 -0.336914,0.59082 -0.22461,0.24658 -0.532227,0.37109 -0.305176,0.12452 -0.698242,0.12452 -0.383301,0 -0.698242,-0.12696 -0.3125,-0.12695 -0.532227,-0.36865 -0.219726,-0.2417 -0.339355,-0.59326 -0.117188,-0.35156 -0.117188,-0.80322 0,-0.44434 0.117188,-0.7959 0.117187,-0.35401 0.341797,-0.60547 0.214843,-0.23926 0.532226,-0.36621 0.319825,-0.12696 0.695801,-0.12696 0.390625,0 0.700684,0.1294 0.3125,0.12695 0.529785,0.36377 z m -0.04395,1.40137 q 0,-0.70801 -0.317383,-1.09131 -0.317383,-0.38574 -0.8667,-0.38574 -0.554199,0 -0.871582,0.38574 -0.314941,0.3833 -0.314941,1.09131 0,0.71533 0.322266,1.09619 0.322265,0.37842 0.864257,0.37842 0.541993,0 0.861817,-0.37842 0.322266,-0.38086 0.322266,-1.09619 z"
         id="path986" />
      <path
         d="m 98.851257,104.69649 q -0.297851,0.13672 -0.651855,0.23926 -0.351563,0.10009 -0.681152,0.10009 -0.424805,0 -0.778809,-0.11718 -0.354004,-0.11719 -0.603027,-0.35157 -0.251465,-0.23681 -0.388184,-0.59082 -0.136719,-0.35644 -0.136719,-0.83252 0,-0.87158 0.507813,-1.37451 0.510254,-0.50537 1.398926,-0.50537 0.310058,0 0.632324,0.0757 0.324707,0.0733 0.698242,0.25147 v 0.57373 h -0.04394 q -0.07568,-0.0586 -0.219727,-0.15381 -0.144043,-0.0952 -0.283203,-0.15869 -0.168457,-0.0757 -0.383301,-0.12451 -0.212402,-0.0513 -0.483398,-0.0513 -0.610352,0 -0.966797,0.39306 -0.354004,0.39063 -0.354004,1.05957 0,0.70557 0.371094,1.09864 0.371093,0.39062 1.010742,0.39062 0.234375,0 0.466308,-0.0464 0.234375,-0.0464 0.410157,-0.11963 v -0.89112 h -0.974121 v -0.4248 h 1.452636 z"
         id="path988" />
      <path
         d="m 102.39618,105.69746 h -3.198243 v -0.29296 h 3.198243 z"
         id="path990" />
      <path
         d="m 105.88251,104.96504 h -0.62744 l -1.21582,-1.44531 h -0.68116 v 1.44531 h -0.4834 v -3.63525 h 1.01807 q 0.32959,0 0.54932,0.0439 0.21972,0.0415 0.39551,0.15137 0.19775,0.12451 0.30761,0.31494 0.11231,0.18799 0.11231,0.47852 0,0.39306 -0.19776,0.65918 -0.19775,0.26367 -0.54443,0.39795 z m -1.13037,-2.6123 q 0,-0.15625 -0.0562,-0.27588 -0.0537,-0.12207 -0.18066,-0.20508 -0.10498,-0.0708 -0.24902,-0.0977 -0.14405,-0.0293 -0.33936,-0.0293 h -0.56885 v 1.37207 h 0.48828 q 0.2295,0 0.4004,-0.0391 0.17089,-0.0415 0.29052,-0.15137 0.10987,-0.10254 0.16114,-0.23438 0.0537,-0.13427 0.0537,-0.33935 z"
         id="path992" />
      <path
         d="m 109.12469,101.32979 -1.25488,1.79687 1.25244,1.83838 h -0.55908 l -0.99121,-1.49658 -1.01562,1.49658 h -0.52735 l 1.26709,-1.8164 -1.23779,-1.81885 h 0.55664 l 0.979,1.47705 1.00098,-1.47705 z"
         id="path994" />
      <path
         d="m 112.84784,103.15108 q 0,0.4956 -0.21729,0.89843 -0.21484,0.40284 -0.57373,0.625 -0.24902,0.15381 -0.55664,0.22217 -0.30517,0.0684 -0.80566,0.0684 h -0.91797 v -3.63525 h 0.9082 q 0.53223,0 0.84473,0.0781 0.31494,0.0757 0.53223,0.20996 0.37109,0.23194 0.57861,0.61768 0.20752,0.38574 0.20752,0.91553 z m -0.50537,-0.007 q 0,-0.42724 -0.14893,-0.72021 -0.14892,-0.29297 -0.44433,-0.46143 -0.21485,-0.12207 -0.45655,-0.16845 -0.2417,-0.0488 -0.57861,-0.0488 h -0.4541 V 104.55 h 0.4541 q 0.34912,0 0.60791,-0.0513 0.26123,-0.0513 0.47852,-0.19043 0.27099,-0.17334 0.40527,-0.45654 0.13672,-0.2832 0.13672,-0.70801 z"
         id="path996" />
    </g>
    <g
       aria-label="PA26"
       id="use919"
       style="font-size:5px;line-height:1.25;stroke-width:0.264583">
      <path
         d="m 78.858582,95.023209 q 0,0.241699 -0.08545,0.449218 -0.08301,0.205078 -0.234375,0.356446 -0.187988,0.187988 -0.444336,0.283203 -0.256347,0.09277 -0.646972,0.09277 H 76.96405 v 1.354981 h -0.483398 v -3.635254 h 0.986328 q 0.327148,0 0.554199,0.05615 0.227051,0.05371 0.402832,0.170899 0.20752,0.13916 0.319824,0.346679 0.114747,0.20752 0.114747,0.524903 z m -0.50293,0.01221 q 0,-0.187989 -0.06592,-0.327149 -0.06592,-0.13916 -0.200195,-0.227051 -0.117188,-0.07568 -0.268555,-0.107421 -0.148926,-0.03418 -0.378418,-0.03418 H 76.96405 v 1.452637 h 0.407715 q 0.292969,0 0.476074,-0.05127 0.183106,-0.05371 0.297852,-0.168457 0.114746,-0.117187 0.161133,-0.246582 0.04883,-0.129395 0.04883,-0.290527 z"
         id="path999" />
      <path
         d="m 82.239929,97.55983 h -0.515137 l -0.356445,-1.013184 h -1.572265 l -0.356446,1.013184 h -0.490722 l 1.323242,-3.635254 h 0.644531 z m -1.020508,-1.428223 -0.637207,-1.784668 -0.639648,1.784668 z"
         id="path1001" />
      <path
         d="m 85.15741,97.55983 h -2.460938 v -0.510254 q 0.256348,-0.219727 0.512695,-0.439453 0.25879,-0.219727 0.480958,-0.437012 0.46875,-0.454102 0.642089,-0.720215 0.17334,-0.268555 0.17334,-0.578613 0,-0.283203 -0.187988,-0.441895 -0.185547,-0.161133 -0.52002,-0.161133 -0.222168,0 -0.480957,0.07813 -0.258789,0.07813 -0.505371,0.239258 h -0.02441 v -0.512695 q 0.17334,-0.08545 0.461426,-0.15625 0.290527,-0.0708 0.561523,-0.0708 0.559082,0 0.876465,0.270996 0.317383,0.268555 0.317383,0.729981 0,0.207519 -0.05371,0.388183 -0.05127,0.178223 -0.153808,0.339356 -0.09521,0.151367 -0.22461,0.297851 -0.126953,0.146485 -0.310058,0.324707 -0.261231,0.256348 -0.539551,0.498047 -0.278321,0.239258 -0.52002,0.444336 h 1.955567 z"
         id="path1003" />
      <path
         d="m 88.389832,96.38063 q 0,0.5542 -0.366211,0.905762 -0.36377,0.349121 -0.893555,0.349121 -0.268555,0 -0.488281,-0.08301 -0.219727,-0.08301 -0.388184,-0.246582 -0.209961,-0.202636 -0.324707,-0.537109 -0.112305,-0.334473 -0.112305,-0.805664 0,-0.483398 0.102539,-0.856934 0.104981,-0.373535 0.332032,-0.664062 0.214843,-0.275879 0.554199,-0.429688 0.339355,-0.15625 0.791016,-0.15625 0.144042,0 0.241699,0.01221 0.09766,0.01221 0.197754,0.04395 v 0.466308 h -0.02441 q -0.06836,-0.03662 -0.20752,-0.06836 -0.136719,-0.03418 -0.280762,-0.03418 -0.524902,0 -0.837402,0.32959 -0.3125,0.327149 -0.36377,0.886231 0.205079,-0.124512 0.402832,-0.187989 0.200196,-0.06592 0.461426,-0.06592 0.231934,0 0.407715,0.04395 0.178223,0.0415 0.36377,0.170898 0.214843,0.148926 0.322265,0.375977 0.109864,0.22705 0.109864,0.551757 z m -0.495606,0.01953 q 0,-0.227051 -0.06836,-0.375977 -0.06592,-0.148926 -0.219727,-0.258789 -0.112305,-0.07813 -0.249023,-0.102539 -0.136719,-0.02441 -0.285645,-0.02441 -0.207519,0 -0.385742,0.04883 -0.178223,0.04883 -0.366211,0.151367 -0.0049,0.05371 -0.0073,0.104981 -0.0024,0.04883 -0.0024,0.124511 0,0.385743 0.07813,0.610352 0.08057,0.222168 0.219727,0.351563 0.112305,0.107421 0.241699,0.158691 0.131836,0.04883 0.285645,0.04883 0.354004,0 0.55664,-0.214844 0.202637,-0.217285 0.202637,-0.622558 z"
         id="path1005" />
    </g>
    <g
       aria-label="PA27"
       id="use923"
       style="font-size:5px;line-height:1.25;stroke-width:0.264583">
      <path
         d="m 78.858582,80.714928 q 0,0.241699 -0.08545,0.449218 -0.08301,0.205079 -0.234375,0.356446 -0.187988,0.187988 -0.444336,0.283203 -0.256347,0.09277 -0.646972,0.09277 H 76.96405 v 1.354981 h -0.483398 v -3.635254 h 0.986328 q 0.327148,0 0.554199,0.05615 0.227051,0.05371 0.402832,0.170899 0.20752,0.13916 0.319824,0.346679 0.114747,0.20752 0.114747,0.524903 z m -0.50293,0.01221 q 0,-0.187989 -0.06592,-0.327149 -0.06592,-0.13916 -0.200195,-0.227051 -0.117188,-0.07568 -0.268555,-0.107421 -0.148926,-0.03418 -0.378418,-0.03418 H 76.96405 v 1.452637 h 0.407715 q 0.292969,0 0.476074,-0.05127 0.183106,-0.05371 0.297852,-0.168457 0.114746,-0.117187 0.161133,-0.246582 0.04883,-0.129394 0.04883,-0.290527 z"
         id="path1008" />
      <path
         d="m 82.239929,83.251549 h -0.515137 l -0.356445,-1.013184 h -1.572265 l -0.356446,1.013184 h -0.490722 l 1.323242,-3.635254 h 0.644531 z m -1.020508,-1.428223 -0.637207,-1.784668 -0.639648,1.784668 z"
         id="path1010" />
      <path
         d="m 85.15741,83.251549 h -2.460938 v -0.510254 q 0.256348,-0.219727 0.512695,-0.439453 0.25879,-0.219727 0.480958,-0.437012 0.46875,-0.454102 0.642089,-0.720215 0.17334,-0.268555 0.17334,-0.578613 0,-0.283203 -0.187988,-0.441895 -0.185547,-0.161132 -0.52002,-0.161132 -0.222168,0 -0.480957,0.07813 -0.258789,0.07813 -0.505371,0.239257 h -0.02441 v -0.512695 q 0.17334,-0.08545 0.461426,-0.15625 0.290527,-0.0708 0.561523,-0.0708 0.559082,0 0.876465,0.270996 0.317383,0.268555 0.317383,0.729981 0,0.207519 -0.05371,0.388183 -0.05127,0.178223 -0.153808,0.339356 -0.09521,0.151367 -0.22461,0.297851 -0.126953,0.146485 -0.310058,0.324707 -0.261231,0.256348 -0.539551,0.498047 -0.278321,0.239258 -0.52002,0.444336 h 1.955567 z"
         id="path1012" />
      <path
         d="m 88.345886,80.160728 -1.645508,3.090821 h -0.522461 l 1.750489,-3.208008 h -2.070313 v -0.427246 h 2.487793 z"
         id="path1014" />
    </g>
    <g
       aria-label="PA15"
       id="use925"
       style="font-size:5px;line-height:1.25;stroke-width:0.264583">
      <path
         d="m 146.44221,73.478485 q 0,0.241699 -0.0854,0.449219 -0.083,0.205078 -0.23438,0.356445 -0.18799,0.187988 -0.44434,0.283203 -0.25634,0.09277 -0.64697,0.09277 h -0.4834 v 1.35498 h -0.48339 v -3.635254 h 0.98632 q 0.32715,0 0.5542,0.05615 0.22705,0.05371 0.40283,0.170898 0.20752,0.13916 0.31983,0.34668 0.11474,0.207519 0.11474,0.524902 z m -0.50292,0.01221 q 0,-0.187988 -0.0659,-0.327148 -0.0659,-0.13916 -0.2002,-0.227051 -0.11719,-0.07568 -0.26855,-0.107422 -0.14893,-0.03418 -0.37842,-0.03418 h -0.47852 v 1.452637 h 0.40772 q 0.29297,0 0.47607,-0.05127 0.18311,-0.05371 0.29785,-0.168457 0.11475,-0.117188 0.16114,-0.246583 0.0488,-0.129394 0.0488,-0.290527 z"
         id="path1017" />
      <path
         d="m 149.82356,76.015106 h -0.51513 l -0.35645,-1.013183 h -1.57227 l -0.35644,1.013183 h -0.49072 l 1.32324,-3.635254 h 0.64453 z m -1.02051,-1.428222 -0.6372,-1.784668 -0.63965,1.784668 z"
         id="path1019" />
      <path
         d="m 152.53352,76.015106 h -1.96777 v -0.371094 h 0.75684 v -2.436523 h -0.75684 v -0.332031 q 0.15381,0 0.32959,-0.02441 0.17578,-0.02686 0.26611,-0.07568 0.11231,-0.06104 0.17578,-0.153808 0.0659,-0.09521 0.0757,-0.253907 h 0.37842 v 3.276367 h 0.74218 z"
         id="path1021" />
      <path
         d="m 155.89046,74.860321 q 0,0.253906 -0.0928,0.48584 -0.0928,0.231933 -0.2539,0.390625 -0.17578,0.170898 -0.41992,0.263672 -0.2417,0.09033 -0.56153,0.09033 -0.29785,0 -0.57373,-0.06348 -0.27588,-0.06104 -0.46631,-0.148926 v -0.515136 h 0.0342 q 0.2002,0.126953 0.46875,0.217285 0.26856,0.08789 0.52735,0.08789 0.17334,0 0.33447,-0.04883 0.16357,-0.04883 0.29053,-0.170898 0.10742,-0.104981 0.16113,-0.251465 0.0562,-0.146484 0.0562,-0.339355 0,-0.187989 -0.0659,-0.317383 -0.0635,-0.129395 -0.17822,-0.20752 -0.12695,-0.09277 -0.31006,-0.129394 -0.18066,-0.03906 -0.40527,-0.03906 -0.21484,0 -0.41504,0.0293 -0.19775,0.0293 -0.3418,0.05859 v -1.872559 h 2.1875 v 0.427246 h -1.71631 v 0.966797 q 0.10498,-0.0098 0.21485,-0.01465 0.10986,-0.0049 0.19043,-0.0049 0.29541,0 0.51758,0.05127 0.22216,0.04883 0.40771,0.175781 0.19531,0.134277 0.30274,0.346679 0.10742,0.212403 0.10742,0.532227 z"
         id="path1023" />
    </g>
    <g
       aria-label="V1.2"
       id="text1049"
       style="font-size:5px;line-height:1.25;stroke-width:0.264583">
      <path
         d="m 113.37177,63.702316 -1.32325,3.635254 h -0.64453 l -1.32324,-3.635254 h 0.51758 l 1.14013,3.198242 1.14014,-3.198242 z"
         id="path1026" />
      <path
         d="m 116.08173,67.33757 h -1.96778 v -0.371094 h 0.75684 v -2.436523 h -0.75684 v -0.332031 q 0.15381,0 0.32959,-0.02441 0.17578,-0.02686 0.26612,-0.07568 0.1123,-0.06104 0.17578,-0.153808 0.0659,-0.09521 0.0757,-0.253907 h 0.37842 v 3.276367 h 0.74219 z"
         id="path1028" />
      <path
         d="m 117.81512,67.33757 h -0.58349 v -0.695801 h 0.58349 z"
         id="path1030" />
      <path
         d="m 121.2868,67.33757 h -2.46093 v -0.510254 q 0.25634,-0.219726 0.51269,-0.439453 0.25879,-0.219726 0.48096,-0.437012 0.46875,-0.454101 0.64209,-0.720214 0.17334,-0.268555 0.17334,-0.578614 0,-0.283203 -0.18799,-0.441894 -0.18555,-0.161133 -0.52002,-0.161133 -0.22217,0 -0.48096,0.07813 -0.25879,0.07813 -0.50537,0.239258 h -0.0244 v -0.512696 q 0.17334,-0.08545 0.46142,-0.15625 0.29053,-0.0708 0.56153,-0.0708 0.55908,0 0.87646,0.270996 0.31739,0.268554 0.31739,0.72998 0,0.20752 -0.0537,0.388184 -0.0513,0.178223 -0.1538,0.339355 -0.0952,0.151368 -0.22461,0.297852 -0.12696,0.146484 -0.31006,0.324707 -0.26123,0.256348 -0.53955,0.498047 -0.27832,0.239258 -0.52002,0.444336 h 1.95556 z"
         id="path1032" />
    </g>
    <g
       aria-label="L225"
       id="text1049-0"
       style="font-size:5px;line-height:1.25;stroke-width:0.264583">
      <path
         d="m 112.24505,73.782135 h -2.29981 v -3.635254 h 0.4834 v 3.205567 h 1.81641 z"
         id="path1035" />
      <path
         d="m 115.09417,73.782135 h -2.46094 v -0.510254 q 0.25635,-0.219726 0.5127,-0.439453 0.25879,-0.219727 0.48095,-0.437012 0.46875,-0.454101 0.64209,-0.720215 0.17334,-0.268554 0.17334,-0.578613 0,-0.283203 -0.18798,-0.441894 -0.18555,-0.161133 -0.52002,-0.161133 -0.22217,0 -0.48096,0.07813 -0.25879,0.07813 -0.50537,0.239258 h -0.0244 v -0.512696 q 0.17334,-0.08545 0.46143,-0.15625 0.29053,-0.0708 0.56152,-0.0708 0.55909,0 0.87647,0.270996 0.31738,0.268554 0.31738,0.72998 0,0.20752 -0.0537,0.388184 -0.0513,0.178222 -0.15381,0.339355 -0.0952,0.151367 -0.22461,0.297852 -0.12695,0.146484 -0.31006,0.324707 -0.26123,0.256347 -0.53955,0.498047 -0.27832,0.239257 -0.52002,0.444336 h 1.95557 z"
         id="path1037" />
      <path
         d="m 118.27288,73.782135 h -2.46094 v -0.510254 q 0.25635,-0.219726 0.5127,-0.439453 0.25879,-0.219727 0.48096,-0.437012 0.46875,-0.454101 0.64209,-0.720215 0.17334,-0.268554 0.17334,-0.578613 0,-0.283203 -0.18799,-0.441894 -0.18555,-0.161133 -0.52002,-0.161133 -0.22217,0 -0.48096,0.07813 -0.25879,0.07813 -0.50537,0.239258 h -0.0244 v -0.512696 q 0.17333,-0.08545 0.46142,-0.15625 0.29053,-0.0708 0.56152,-0.0708 0.55909,0 0.87647,0.270996 0.31738,0.268554 0.31738,0.72998 0,0.20752 -0.0537,0.388184 -0.0513,0.178222 -0.15381,0.339355 -0.0952,0.151367 -0.22461,0.297852 -0.12695,0.146484 -0.31006,0.324707 -0.26123,0.256347 -0.53955,0.498047 -0.27832,0.239257 -0.52002,0.444336 h 1.95557 z"
         id="path1039" />
      <path
         d="m 121.42229,72.62735 q 0,0.253906 -0.0928,0.48584 -0.0928,0.231933 -0.25391,0.390625 -0.17578,0.170898 -0.41992,0.263672 -0.2417,0.09033 -0.56152,0.09033 -0.29785,0 -0.57373,-0.06348 -0.27588,-0.06104 -0.46631,-0.148926 V 73.13028 h 0.0342 q 0.2002,0.126953 0.46875,0.217285 0.26855,0.08789 0.52734,0.08789 0.17334,0 0.33448,-0.04883 0.16357,-0.04883 0.29052,-0.170898 0.10743,-0.104981 0.16114,-0.251465 0.0561,-0.146484 0.0561,-0.339356 0,-0.187988 -0.0659,-0.317382 -0.0635,-0.129395 -0.17822,-0.20752 -0.12695,-0.09277 -0.31006,-0.129394 -0.18066,-0.03906 -0.40527,-0.03906 -0.21485,0 -0.41504,0.0293 -0.19776,0.0293 -0.3418,0.05859 v -1.872559 h 2.1875 v 0.427246 h -1.71631 v 0.966797 q 0.10498,-0.0098 0.21485,-0.01465 0.10986,-0.0049 0.19043,-0.0049 0.29541,0 0.51757,0.05127 0.22217,0.04883 0.40772,0.175782 0.19531,0.134277 0.30273,0.346679 0.10742,0.212403 0.10742,0.532227 z"
         id="path1041" />
    </g>
    <g
       aria-label="GND"
       id="text1053"
       style="font-size:5px;line-height:1.25;stroke-width:0.264583">
      <path
         d="m 79.720398,126.50816 q -0.297852,0.13672 -0.651856,0.23926 -0.351562,0.1001 -0.681152,0.1001 -0.424805,0 -0.778808,-0.11719 -0.354004,-0.11719 -0.603028,-0.35156 -0.251465,-0.23682 -0.388183,-0.59082 -0.136719,-0.35645 -0.136719,-0.83252 0,-0.87158 0.507812,-1.37451 0.510254,-0.50537 1.398926,-0.50537 0.310059,0 0.632324,0.0757 0.324707,0.0732 0.698243,0.25146 v 0.57374 h -0.04395 q -0.07568,-0.0586 -0.219726,-0.15381 -0.144043,-0.0952 -0.283203,-0.15869 -0.168457,-0.0757 -0.383301,-0.12452 -0.212403,-0.0513 -0.483399,-0.0513 -0.610351,0 -0.966797,0.39307 -0.354003,0.39063 -0.354003,1.05957 0,0.70557 0.371093,1.09863 0.371094,0.39063 1.010742,0.39063 0.234375,0 0.466309,-0.0464 0.234375,-0.0464 0.410156,-0.11963 v -0.89111 h -0.974121 v -0.42481 h 1.452637 z"
         id="path1044" />
      <path
         d="m 83.338562,126.77672 h -0.598145 l -1.723632,-3.25195 v 3.25195 h -0.45166 v -3.63526 h 0.749511 l 1.572266,2.96875 v -2.96875 h 0.45166 z"
         id="path1046" />
      <path
         d="m 87.376648,124.96275 q 0,0.49561 -0.217285,0.89844 -0.214844,0.40283 -0.573731,0.625 -0.249023,0.15381 -0.55664,0.22217 -0.305176,0.0684 -0.805664,0.0684 h -0.917969 v -3.63526 h 0.908203 q 0.532227,0 0.844727,0.0781 0.314941,0.0757 0.532226,0.20996 0.371094,0.23193 0.578613,0.61768 0.20752,0.38574 0.20752,0.91552 z m -0.505371,-0.007 q 0,-0.42725 -0.148926,-0.72022 -0.148926,-0.29296 -0.444336,-0.46142 -0.214844,-0.12207 -0.456543,-0.16846 -0.241699,-0.0488 -0.578613,-0.0488 h -0.454102 v 2.80518 h 0.454102 q 0.349121,0 0.60791,-0.0513 0.261231,-0.0513 0.478516,-0.19043 0.270996,-0.17334 0.405273,-0.45654 0.136719,-0.28321 0.136719,-0.70801 z"
         id="path1048" />
    </g>
    <g
       aria-label="PB1_TX1"
       id="text1057"
       style="font-size:5px;line-height:1.25;stroke-width:0.264583">
      <path
         d="m 136.80354,116.5363 q 0,0.2417 -0.0855,0.44922 -0.083,0.20508 -0.23437,0.35644 -0.18799,0.18799 -0.44434,0.28321 -0.25634,0.0928 -0.64697,0.0928 h -0.4834 v 1.35498 h -0.4834 v -3.63525 h 0.98633 q 0.32715,0 0.5542,0.0562 0.22705,0.0537 0.40283,0.1709 0.20752,0.13916 0.31983,0.34668 0.11474,0.20752 0.11474,0.5249 z m -0.50293,0.0122 q 0,-0.18799 -0.0659,-0.32715 -0.0659,-0.13916 -0.2002,-0.22705 -0.11719,-0.0757 -0.26855,-0.10742 -0.14893,-0.0342 -0.37842,-0.0342 h -0.47852 v 1.45263 h 0.40772 q 0.29297,0 0.47607,-0.0513 0.18311,-0.0537 0.29785,-0.16845 0.11475,-0.11719 0.16114,-0.24658 0.0488,-0.1294 0.0488,-0.29053 z"
         id="path1051" />
      <path
         d="m 140.18245,117.95476 q 0,0.27099 -0.10254,0.47851 -0.10254,0.20752 -0.27588,0.3418 -0.20508,0.16113 -0.45166,0.22949 -0.24414,0.0684 -0.62256,0.0684 h -1.28906 v -3.63525 h 1.07666 q 0.39795,0 0.5957,0.0293 0.19776,0.0293 0.37842,0.12208 0.2002,0.10498 0.29053,0.27099 0.0903,0.16358 0.0903,0.39307 0,0.25879 -0.13184,0.44189 -0.13183,0.18067 -0.35156,0.29053 v 0.0195 q 0.36865,0.0757 0.58106,0.32471 0.2124,0.24658 0.2124,0.625 z m -0.81299,-1.63819 q 0,-0.13183 -0.0439,-0.22216 -0.044,-0.0903 -0.14161,-0.14649 -0.11474,-0.0659 -0.27832,-0.0806 -0.16357,-0.0171 -0.40527,-0.0171 h -0.57617 v 1.0498 h 0.625 q 0.22705,0 0.36133,-0.022 0.13427,-0.0244 0.24902,-0.0977 0.11475,-0.0732 0.16113,-0.18799 0.0488,-0.11718 0.0488,-0.27588 z m 0.31006,1.65772 q 0,-0.21973 -0.0659,-0.34912 -0.0659,-0.1294 -0.23926,-0.21973 -0.11718,-0.061 -0.28564,-0.0781 -0.16602,-0.0195 -0.40527,-0.0195 h -0.75928 v 1.35253 h 0.63965 q 0.31738,0 0.52002,-0.0317 0.20263,-0.0342 0.33203,-0.12207 0.13672,-0.0952 0.20019,-0.21729 0.0635,-0.12207 0.0635,-0.31494 z"
         id="path1053" />
      <path
         d="m 143.02669,119.07292 h -1.96778 v -0.37109 h 0.75684 v -2.43653 h -0.75684 v -0.33203 q 0.15381,0 0.32959,-0.0244 0.17579,-0.0269 0.26612,-0.0757 0.1123,-0.061 0.17578,-0.15381 0.0659,-0.0952 0.0757,-0.25391 h 0.37842 v 3.27637 h 0.74219 z"
         id="path1055" />
      <path
         d="m 146.74739,119.80534 h -3.19824 v -0.29297 h 3.19824 z"
         id="path1057" />
      <path
         d="m 149.81868,115.86736 h -1.29883 v 3.20556 h -0.4834 v -3.20556 h -1.29882 v -0.42969 h 3.08105 z"
         id="path1059" />
      <path
         d="m 153.0804,115.43767 -1.25488,1.79687 1.25244,1.83838 h -0.55908 l -0.99122,-1.49658 -1.01562,1.49658 h -0.52734 l 1.26709,-1.8164 -1.2378,-1.81885 h 0.55664 l 0.97901,1.47705 1.00097,-1.47705 z"
         id="path1061" />
      <path
         d="m 155.89046,119.07292 h -1.96778 v -0.37109 h 0.75684 v -2.43653 h -0.75684 v -0.33203 q 0.15381,0 0.32959,-0.0244 0.17578,-0.0269 0.26612,-0.0757 0.1123,-0.061 0.17578,-0.15381 0.0659,-0.0952 0.0757,-0.25391 h 0.37842 v 3.27637 h 0.74219 z"
         id="path1063" />
    </g>
    <g
       aria-label="PB2_RX1"
       id="text1061"
       style="font-size:5px;line-height:1.25;stroke-width:0.264583">
      <path
         d="m 136.40804,109.41043 q 0,0.2417 -0.0855,0.44922 -0.083,0.20508 -0.23438,0.35644 -0.18799,0.18799 -0.44433,0.28321 -0.25635,0.0928 -0.64698,0.0928 h -0.4834 v 1.35498 h -0.48339 v -3.63525 h 0.98632 q 0.32715,0 0.5542,0.0561 0.22705,0.0537 0.40283,0.1709 0.20752,0.13916 0.31983,0.34668 0.11475,0.20752 0.11475,0.5249 z m -0.50293,0.0122 q 0,-0.18799 -0.0659,-0.32715 -0.0659,-0.13916 -0.2002,-0.22705 -0.11719,-0.0757 -0.26855,-0.10742 -0.14893,-0.0342 -0.37842,-0.0342 h -0.47852 v 1.45263 h 0.40772 q 0.29297,0 0.47607,-0.0513 0.18311,-0.0537 0.29785,-0.16845 0.11475,-0.11719 0.16114,-0.24658 0.0488,-0.1294 0.0488,-0.29053 z"
         id="path1066" />
      <path
         d="m 139.78694,110.82889 q 0,0.27099 -0.10254,0.47851 -0.10254,0.20752 -0.27588,0.3418 -0.20507,0.16113 -0.45166,0.22949 -0.24414,0.0684 -0.62256,0.0684 h -1.28906 v -3.63525 h 1.07666 q 0.39795,0 0.59571,0.0293 0.19775,0.0293 0.37841,0.12208 0.2002,0.10498 0.29053,0.27099 0.0903,0.16358 0.0903,0.39307 0,0.25879 -0.13183,0.44189 -0.13184,0.18067 -0.35157,0.29053 v 0.0195 q 0.36866,0.0757 0.58106,0.32471 0.2124,0.24658 0.2124,0.625 z m -0.81299,-1.63819 q 0,-0.13183 -0.0439,-0.22216 -0.044,-0.0903 -0.1416,-0.14649 -0.11475,-0.0659 -0.27832,-0.0806 -0.16358,-0.0171 -0.40528,-0.0171 h -0.57617 v 1.0498 h 0.625 q 0.22705,0 0.36133,-0.022 0.13428,-0.0244 0.24902,-0.0977 0.11475,-0.0732 0.16114,-0.18799 0.0488,-0.11718 0.0488,-0.27588 z m 0.31006,1.65772 q 0,-0.21973 -0.0659,-0.34912 -0.0659,-0.1294 -0.23925,-0.21973 -0.11719,-0.061 -0.28565,-0.0781 -0.16601,-0.0195 -0.40527,-0.0195 h -0.75928 v 1.35253 h 0.63965 q 0.31738,0 0.52002,-0.0317 0.20264,-0.0342 0.33203,-0.12207 0.13672,-0.0952 0.2002,-0.21729 0.0635,-0.12207 0.0635,-0.31494 z"
         id="path1068" />
      <path
         d="m 142.8387,111.94705 h -2.46094 v -0.51025 q 0.25635,-0.21973 0.5127,-0.43946 0.25879,-0.21972 0.48095,-0.43701 0.46875,-0.4541 0.64209,-0.72021 0.17334,-0.26856 0.17334,-0.57861 0,-0.28321 -0.18798,-0.4419 -0.18555,-0.16113 -0.52002,-0.16113 -0.22217,0 -0.48096,0.0781 -0.25879,0.0781 -0.50537,0.23926 h -0.0244 v -0.51269 q 0.17334,-0.0855 0.46143,-0.15625 0.29053,-0.0708 0.56152,-0.0708 0.55909,0 0.87647,0.271 0.31738,0.26856 0.31738,0.72998 0,0.20752 -0.0537,0.38818 -0.0513,0.17823 -0.15381,0.33936 -0.0952,0.15137 -0.22461,0.29785 -0.12695,0.14649 -0.31006,0.32471 -0.26123,0.25635 -0.53955,0.49805 -0.27832,0.23925 -0.52002,0.44433 h 1.95557 z"
         id="path1070" />
      <path
         d="m 146.35188,112.67947 h -3.19824 v -0.29296 h 3.19824 z"
         id="path1072" />
      <path
         d="m 149.83821,111.94705 h -0.62744 l -1.21582,-1.44531 h -0.68115 v 1.44531 h -0.4834 v -3.63525 h 1.01806 q 0.32959,0 0.54932,0.0439 0.21973,0.0415 0.39551,0.15137 0.19775,0.12451 0.30762,0.31494 0.1123,0.18799 0.1123,0.47852 0,0.39306 -0.19775,0.65918 -0.19776,0.26367 -0.54444,0.39795 z m -1.13037,-2.6123 q 0,-0.15625 -0.0562,-0.27588 -0.0537,-0.12207 -0.18067,-0.20508 -0.10498,-0.0708 -0.24902,-0.0977 -0.14404,-0.0293 -0.33936,-0.0293 h -0.56884 v 1.37207 h 0.48828 q 0.22949,0 0.40039,-0.0391 0.1709,-0.0415 0.29053,-0.15136 0.10986,-0.10254 0.16113,-0.23438 0.0537,-0.13427 0.0537,-0.33935 z"
         id="path1074" />
      <path
         d="m 153.0804,108.3118 -1.25488,1.79687 1.25244,1.83838 h -0.55908 l -0.99122,-1.49658 -1.01562,1.49658 h -0.52734 l 1.26709,-1.8164 -1.2378,-1.81885 h 0.55664 l 0.97901,1.47705 1.00097,-1.47705 z"
         id="path1076" />
      <path
         d="m 155.89046,111.94705 h -1.96778 v -0.37109 h 0.75684 v -2.43653 h -0.75684 v -0.33203 q 0.15381,0 0.32959,-0.0244 0.17578,-0.0269 0.26612,-0.0757 0.1123,-0.061 0.17578,-0.15381 0.0659,-0.0952 0.0757,-0.25391 h 0.37842 v 3.27637 h 0.74219 z"
         id="path1078" />
    </g>
    <g
       aria-label="PA7_LOG_TXD"
       id="text1065"
       style="font-size:5px;line-height:1.25;stroke-width:0.264583">
      <path
         d="m 78.858582,109.41043 q 0,0.2417 -0.08545,0.44922 -0.08301,0.20508 -0.234375,0.35644 -0.187988,0.18799 -0.444336,0.28321 -0.256347,0.0928 -0.646972,0.0928 H 76.96405 v 1.35498 h -0.483398 v -3.63525 h 0.986328 q 0.327148,0 0.554199,0.0561 0.227051,0.0537 0.402832,0.1709 0.20752,0.13916 0.319824,0.34668 0.114747,0.20752 0.114747,0.5249 z m -0.50293,0.0122 q 0,-0.18799 -0.06592,-0.32715 -0.06592,-0.13916 -0.200195,-0.22705 -0.117188,-0.0757 -0.268555,-0.10742 -0.148926,-0.0342 -0.378418,-0.0342 H 76.96405 v 1.45263 h 0.407715 q 0.292969,0 0.476074,-0.0513 0.183106,-0.0537 0.297852,-0.16845 0.114746,-0.11719 0.161133,-0.24658 0.04883,-0.1294 0.04883,-0.29053 z"
         id="path1081" />
      <path
         d="m 82.239929,111.94705 h -0.515137 l -0.356445,-1.01318 h -1.572265 l -0.356446,1.01318 h -0.490722 l 1.323242,-3.63525 h 0.644531 z m -1.020508,-1.42822 -0.637207,-1.78467 -0.639648,1.78467 z"
         id="path1083" />
      <path
         d="m 85.167175,108.85623 -1.645508,3.09082 h -0.52246 l 1.750488,-3.20801 h -2.070313 v -0.42724 h 2.487793 z"
         id="path1085" />
      <path
         d="m 88.670593,112.67947 h -3.198242 v -0.29296 h 3.198242 z"
         id="path1087" />
      <path
         d="m 91.448914,111.94705 h -2.299805 v -3.63525 h 0.483398 v 3.20556 h 1.816407 z"
         id="path1089" />
      <path
         d="m 94.593445,108.72928 q 0.222168,0.24414 0.339355,0.59814 0.119629,0.35401 0.119629,0.80323 0,0.44921 -0.12207,0.80566 -0.119629,0.354 -0.336914,0.59082 -0.22461,0.24658 -0.532227,0.37109 -0.305176,0.12452 -0.698242,0.12452 -0.383301,0 -0.698242,-0.12696 -0.3125,-0.12695 -0.532227,-0.36865 -0.219726,-0.2417 -0.339355,-0.59326 -0.117188,-0.35156 -0.117188,-0.80322 0,-0.44434 0.117188,-0.7959 0.117187,-0.35401 0.341797,-0.60547 0.214843,-0.23926 0.532226,-0.36621 0.319825,-0.12696 0.695801,-0.12696 0.390625,0 0.700684,0.1294 0.3125,0.12695 0.529785,0.36377 z m -0.04395,1.40137 q 0,-0.70801 -0.317383,-1.09131 -0.317383,-0.38575 -0.8667,-0.38575 -0.554199,0 -0.871582,0.38575 -0.314941,0.3833 -0.314941,1.09131 0,0.71533 0.322266,1.09619 0.322265,0.37842 0.864257,0.37842 0.541993,0 0.861817,-0.37842 0.322266,-0.38086 0.322266,-1.09619 z"
         id="path1091" />
      <path
         d="m 98.851257,111.6785 q -0.297851,0.13672 -0.651855,0.23926 -0.351563,0.10009 -0.681152,0.10009 -0.424805,0 -0.778809,-0.11718 -0.354004,-0.11719 -0.603027,-0.35157 -0.251465,-0.23681 -0.388184,-0.59082 -0.136719,-0.35644 -0.136719,-0.83252 0,-0.87158 0.507813,-1.37451 0.510254,-0.50537 1.398926,-0.50537 0.310058,0 0.632324,0.0757 0.324707,0.0733 0.698242,0.25147 v 0.57373 h -0.04394 q -0.07568,-0.0586 -0.219727,-0.15381 -0.144043,-0.0952 -0.283203,-0.15869 -0.168457,-0.0757 -0.383301,-0.12451 -0.212402,-0.0513 -0.483398,-0.0513 -0.610352,0 -0.966797,0.39306 -0.354004,0.39063 -0.354004,1.05957 0,0.70557 0.371094,1.09864 0.371093,0.39062 1.010742,0.39062 0.234375,0 0.466308,-0.0464 0.234375,-0.0464 0.410157,-0.11963 v -0.89112 h -0.974121 v -0.4248 h 1.452636 z"
         id="path1093" />
      <path
         d="m 102.39618,112.67947 h -3.198243 v -0.29296 h 3.198243 z"
         id="path1095" />
      <path
         d="m 105.46747,108.74149 h -1.29883 v 3.20556 h -0.4834 v -3.20556 h -1.29883 v -0.42969 h 3.08106 z"
         id="path1097" />
      <path
         d="m 108.72919,108.3118 -1.25489,1.79687 1.25245,1.83838 h -0.55909 l -0.99121,-1.49658 -1.01562,1.49658 h -0.52735 l 1.26709,-1.8164 -1.23779,-1.81885 h 0.55664 l 0.97901,1.47705 1.00097,-1.47705 z"
         id="path1099" />
      <path
         d="m 112.45233,110.13309 q 0,0.4956 -0.21728,0.89843 -0.21485,0.40284 -0.57373,0.625 -0.24903,0.15381 -0.55664,0.22217 -0.30518,0.0684 -0.80567,0.0684 h -0.91797 v -3.63525 h 0.90821 q 0.53222,0 0.84472,0.0781 0.31494,0.0757 0.53223,0.20996 0.37109,0.23194 0.57861,0.61768 0.20752,0.38574 0.20752,0.91553 z m -0.50537,-0.007 q 0,-0.42724 -0.14893,-0.72021 -0.14892,-0.29297 -0.44433,-0.46143 -0.21485,-0.12207 -0.45654,-0.16845 -0.2417,-0.0488 -0.57862,-0.0488 h -0.4541 v 2.80517 h 0.4541 q 0.34912,0 0.60791,-0.0513 0.26123,-0.0513 0.47852,-0.19043 0.27099,-0.17334 0.40527,-0.45654 0.13672,-0.2832 0.13672,-0.70801 z"
         id="path1101" />
    </g>
    <text
       xml:space="preserve"
       style="font-size:5px;line-height:1.25;font-family:sans-serif;stroke-width:0.264583"
       x="75.506126"
       y="91.078506"
       id="text1069"
       inkscape:tile-x0="72.158634"
       inkscape:tile-y0="20.706412"><tspan
         sodipodi:role="line"
         id="tspan1067"
         x="75.506126"
         y="91.078506"
         style="font-size:5px;stroke-width:0.264583" /></text>
    <g
       aria-label="PA25"
       id="text1073"
       style="font-size:5px;line-height:1.25;stroke-width:0.264583">
      <path
         d="m 78.858582,87.696648 q 0,0.241699 -0.08545,0.449218 -0.08301,0.205079 -0.234375,0.356446 -0.187988,0.187988 -0.444336,0.283203 -0.256347,0.09277 -0.646972,0.09277 H 76.96405 v 1.354981 h -0.483398 v -3.635254 h 0.986328 q 0.327148,0 0.554199,0.05615 0.227051,0.05371 0.402832,0.170899 0.20752,0.13916 0.319824,0.346679 0.114747,0.20752 0.114747,0.524903 z m -0.50293,0.01221 q 0,-0.187989 -0.06592,-0.327149 -0.06592,-0.13916 -0.200195,-0.227051 -0.117188,-0.07568 -0.268555,-0.107421 -0.148926,-0.03418 -0.378418,-0.03418 H 76.96405 v 1.452637 h 0.407715 q 0.292969,0 0.476074,-0.05127 0.183106,-0.05371 0.297852,-0.168457 0.114746,-0.117187 0.161133,-0.246582 0.04883,-0.129395 0.04883,-0.290527 z"
         id="path1104" />
      <path
         d="m 82.239929,90.233269 h -0.515137 l -0.356445,-1.013184 h -1.572265 l -0.356446,1.013184 h -0.490722 l 1.323242,-3.635254 h 0.644531 z m -1.020508,-1.428223 -0.637207,-1.784668 -0.639648,1.784668 z"
         id="path1106" />
      <path
         d="m 85.15741,90.233269 h -2.460938 v -0.510254 q 0.256348,-0.219727 0.512695,-0.439453 0.25879,-0.219727 0.480958,-0.437012 0.46875,-0.454102 0.642089,-0.720215 0.17334,-0.268555 0.17334,-0.578613 0,-0.283203 -0.187988,-0.441895 -0.185547,-0.161132 -0.52002,-0.161132 -0.222168,0 -0.480957,0.07813 -0.258789,0.07813 -0.505371,0.239257 h -0.02441 v -0.512695 q 0.17334,-0.08545 0.461426,-0.15625 0.290527,-0.0708 0.561523,-0.0708 0.559082,0 0.876465,0.270996 0.317383,0.268555 0.317383,0.729981 0,0.207519 -0.05371,0.388183 -0.05127,0.178223 -0.153808,0.339356 -0.09521,0.151367 -0.22461,0.297851 -0.126953,0.146485 -0.310058,0.324707 -0.261231,0.256348 -0.539551,0.498047 -0.278321,0.239258 -0.52002,0.444336 h 1.955567 z"
         id="path1108" />
      <path
         d="m 88.306824,89.078484 q 0,0.253906 -0.09277,0.485839 -0.09277,0.231934 -0.253906,0.390625 -0.175781,0.170899 -0.419922,0.263672 -0.241699,0.09033 -0.561523,0.09033 -0.297852,0 -0.573731,-0.06348 -0.275879,-0.06103 -0.466308,-0.148926 v -0.515137 h 0.03418 q 0.200196,0.126953 0.46875,0.217285 0.268555,0.08789 0.527344,0.08789 0.17334,0 0.334473,-0.04883 0.163574,-0.04883 0.290527,-0.170899 0.107422,-0.10498 0.161133,-0.251464 0.05615,-0.146485 0.05615,-0.339356 0,-0.187988 -0.06592,-0.317383 -0.06348,-0.129394 -0.178222,-0.207519 -0.126953,-0.09277 -0.310059,-0.129395 -0.180664,-0.03906 -0.405273,-0.03906 -0.214844,0 -0.415039,0.0293 -0.197754,0.0293 -0.341797,0.05859 v -1.872558 h 2.1875 v 0.427246 h -1.716309 v 0.966797 q 0.104981,-0.0098 0.214844,-0.01465 0.109863,-0.0049 0.19043,-0.0049 0.29541,0 0.517578,0.05127 0.222168,0.04883 0.407714,0.175781 0.195313,0.134278 0.302735,0.34668 0.107422,0.212402 0.107422,0.532227 z"
         id="path1110" />
    </g>
    <g
       aria-label="PB3"
       id="text1077"
       style="font-size:5px;line-height:1.25;stroke-width:0.264583">
      <path
         d="m 149.51106,102.4211 q 0,0.2417 -0.0854,0.44922 -0.083,0.20507 -0.23437,0.35644 -0.18799,0.18799 -0.44434,0.2832 -0.25635,0.0928 -0.64697,0.0928 h -0.4834 v 1.35498 h -0.4834 v -3.63526 h 0.98633 q 0.32715,0 0.5542,0.0562 0.22705,0.0537 0.40283,0.17089 0.20752,0.13916 0.31983,0.34668 0.11474,0.20752 0.11474,0.52491 z m -0.50293,0.0122 q 0,-0.18798 -0.0659,-0.32714 -0.0659,-0.13916 -0.20019,-0.22706 -0.11719,-0.0757 -0.26856,-0.10742 -0.14892,-0.0342 -0.37841,-0.0342 h -0.47852 v 1.45264 h 0.40772 q 0.29296,0 0.47607,-0.0513 0.18311,-0.0537 0.29785,-0.16846 0.11475,-0.11718 0.16113,-0.24658 0.0488,-0.12939 0.0488,-0.29053 z"
         id="path1113" />
      <path
         d="m 152.88997,103.83955 q 0,0.271 -0.10254,0.47852 -0.10254,0.20752 -0.27588,0.3418 -0.20508,0.16113 -0.45166,0.22949 -0.24414,0.0684 -0.62256,0.0684 h -1.28906 v -3.63526 h 1.07666 q 0.39795,0 0.5957,0.0293 0.19776,0.0293 0.37842,0.12207 0.2002,0.10498 0.29053,0.271 0.0903,0.16357 0.0903,0.39306 0,0.25879 -0.13184,0.4419 -0.13183,0.18066 -0.35156,0.29053 v 0.0195 q 0.36865,0.0757 0.58106,0.3247 0.2124,0.24659 0.2124,0.625 z m -0.81299,-1.63818 q 0,-0.13184 -0.0439,-0.22217 -0.0439,-0.0903 -0.14161,-0.14648 -0.11474,-0.0659 -0.27832,-0.0806 -0.16357,-0.0171 -0.40527,-0.0171 h -0.57617 v 1.04981 h 0.625 q 0.22705,0 0.36133,-0.022 0.13427,-0.0244 0.24902,-0.0977 0.11475,-0.0732 0.16113,-0.18799 0.0488,-0.11719 0.0488,-0.27588 z m 0.31006,1.65772 q 0,-0.21973 -0.0659,-0.34913 -0.0659,-0.12939 -0.23926,-0.21972 -0.11718,-0.061 -0.28564,-0.0781 -0.16602,-0.0195 -0.40527,-0.0195 h -0.75928 v 1.35254 h 0.63965 q 0.31738,0 0.52002,-0.0317 0.20263,-0.0342 0.33203,-0.12207 0.13672,-0.0952 0.20019,-0.21728 0.0635,-0.12207 0.0635,-0.31494 z"
         id="path1115" />
      <path
         d="m 155.6219,103.20723 q 0.11719,0.10498 0.19287,0.26367 0.0757,0.15869 0.0757,0.41016 0,0.24902 -0.0903,0.45654 -0.0903,0.20752 -0.25391,0.36133 -0.18311,0.1709 -0.43213,0.25391 -0.24658,0.0806 -0.54199,0.0806 -0.30274,0 -0.59571,-0.0732 -0.29296,-0.0708 -0.48095,-0.15625 v -0.51025 h 0.0366 q 0.20752,0.13671 0.48828,0.22705 0.28076,0.0903 0.54199,0.0903 0.15381,0 0.32715,-0.0513 0.17334,-0.0513 0.28076,-0.15137 0.11231,-0.10742 0.16602,-0.23681 0.0562,-0.1294 0.0562,-0.32715 0,-0.19532 -0.0635,-0.32227 -0.061,-0.12939 -0.17089,-0.20264 -0.10987,-0.0757 -0.26612,-0.10253 -0.15625,-0.0293 -0.33691,-0.0293 h -0.21973 v -0.40528 h 0.1709 q 0.37109,0 0.59082,-0.1538 0.22217,-0.15625 0.22217,-0.45411 0,-0.13183 -0.0562,-0.22949 -0.0562,-0.1001 -0.15625,-0.16357 -0.10498,-0.0635 -0.22461,-0.0879 -0.11963,-0.0244 -0.271,-0.0244 -0.23193,0 -0.49316,0.083 -0.26123,0.083 -0.49317,0.23438 h -0.0244 v -0.51026 q 0.17334,-0.0854 0.46142,-0.15625 0.29053,-0.0732 0.56153,-0.0732 0.26611,0 0.46875,0.0488 0.20263,0.0488 0.36621,0.15625 0.17578,0.11719 0.26611,0.2832 0.0903,0.16602 0.0903,0.38819 0,0.30273 -0.21484,0.52978 -0.2124,0.22461 -0.50293,0.2832 v 0.0342 q 0.11719,0.0195 0.26855,0.083 0.15137,0.061 0.25635,0.15381 z"
         id="path1117" />
    </g>
    <g
       aria-label="GND"
       id="text1081"
       style="font-size:5px;line-height:1.25;stroke-width:0.264583">
      <path
         d="m 148.23421,126.50816 q -0.29785,0.13672 -0.65186,0.23926 -0.35156,0.1001 -0.68115,0.1001 -0.42481,0 -0.77881,-0.11719 -0.354,-0.11719 -0.60303,-0.35156 -0.25146,-0.23682 -0.38818,-0.59082 -0.13672,-0.35645 -0.13672,-0.83252 0,-0.87158 0.50781,-1.37451 0.51026,-0.50537 1.39893,-0.50537 0.31006,0 0.63232,0.0757 0.32471,0.0732 0.69825,0.25146 v 0.57374 h -0.044 q -0.0757,-0.0586 -0.21973,-0.15381 -0.14404,-0.0952 -0.2832,-0.15869 -0.16846,-0.0757 -0.3833,-0.12452 -0.2124,-0.0513 -0.4834,-0.0513 -0.61035,0 -0.9668,0.39307 -0.354,0.39063 -0.354,1.05957 0,0.70557 0.37109,1.09863 0.3711,0.39063 1.01075,0.39063 0.23437,0 0.46631,-0.0464 0.23437,-0.0464 0.41015,-0.11963 v -0.89111 h -0.97412 v -0.42481 h 1.45264 z"
         id="path1120" />
      <path
         d="m 151.85237,126.77672 h -0.59814 l -1.72364,-3.25195 v 3.25195 h -0.45166 v -3.63526 h 0.74952 l 1.57226,2.96875 v -2.96875 h 0.45166 z"
         id="path1122" />
      <path
         d="m 155.89046,124.96275 q 0,0.49561 -0.21729,0.89844 -0.21484,0.40283 -0.57373,0.625 -0.24902,0.15381 -0.55664,0.22217 -0.30517,0.0684 -0.80566,0.0684 h -0.91797 v -3.63526 h 0.9082 q 0.53223,0 0.84473,0.0781 0.31494,0.0757 0.53222,0.20996 0.3711,0.23193 0.57862,0.61768 0.20752,0.38574 0.20752,0.91552 z m -0.50537,-0.007 q 0,-0.42725 -0.14893,-0.72022 -0.14893,-0.29296 -0.44434,-0.46142 -0.21484,-0.12207 -0.45654,-0.16846 -0.2417,-0.0488 -0.57861,-0.0488 h -0.4541 v 2.80518 h 0.4541 q 0.34912,0 0.60791,-0.0513 0.26123,-0.0513 0.47851,-0.19043 0.271,-0.17334 0.40528,-0.45654 0.13672,-0.28321 0.13672,-0.70801 z"
         id="path1124" />
    </g>
    <g
       aria-label="3V3"
       id="text1085"
       style="font-size:5px;line-height:1.25;stroke-width:0.264583">
      <path
         d="m 149.02522,132.65988 q 0.11719,0.10498 0.19287,0.26367 0.0757,0.15869 0.0757,0.41016 0,0.24902 -0.0903,0.45654 -0.0903,0.20752 -0.25391,0.36133 -0.18311,0.1709 -0.43213,0.25391 -0.24658,0.0806 -0.54199,0.0806 -0.30274,0 -0.59571,-0.0732 -0.29296,-0.0708 -0.48095,-0.15625 v -0.51025 h 0.0366 q 0.20752,0.13672 0.48828,0.22705 0.28076,0.0903 0.54199,0.0903 0.15381,0 0.32715,-0.0513 0.17334,-0.0513 0.28076,-0.15137 0.11231,-0.10742 0.16602,-0.23681 0.0562,-0.1294 0.0562,-0.32715 0,-0.19531 -0.0635,-0.32227 -0.061,-0.12939 -0.17089,-0.20263 -0.10987,-0.0757 -0.26612,-0.10254 -0.15625,-0.0293 -0.33691,-0.0293 h -0.21973 v -0.40527 h 0.1709 q 0.37109,0 0.59082,-0.15381 0.22217,-0.15625 0.22217,-0.4541 0,-0.13184 -0.0562,-0.2295 -0.0562,-0.10009 -0.15625,-0.16357 -0.10498,-0.0635 -0.22461,-0.0879 -0.11963,-0.0244 -0.271,-0.0244 -0.23193,0 -0.49316,0.083 -0.26123,0.083 -0.49317,0.23438 h -0.0244 v -0.51026 q 0.17334,-0.0854 0.46142,-0.15625 0.29053,-0.0732 0.56153,-0.0732 0.26611,0 0.46875,0.0488 0.20263,0.0488 0.36621,0.15625 0.17578,0.11719 0.26611,0.2832 0.0903,0.16602 0.0903,0.38819 0,0.30273 -0.21484,0.52978 -0.2124,0.22461 -0.50293,0.28321 v 0.0342 q 0.11719,0.0195 0.26856,0.083 0.15136,0.061 0.25634,0.15381 z"
         id="path1127" />
      <path
         d="m 153.02425,130.77512 -1.32325,3.63525 h -0.64453 l -1.32324,-3.63525 h 0.51758 l 1.14014,3.19824 1.14013,-3.19824 z"
         id="path1129" />
      <path
         d="m 155.6219,132.65988 q 0.11719,0.10498 0.19287,0.26367 0.0757,0.15869 0.0757,0.41016 0,0.24902 -0.0903,0.45654 -0.0903,0.20752 -0.25391,0.36133 -0.18311,0.1709 -0.43213,0.25391 -0.24658,0.0806 -0.54199,0.0806 -0.30274,0 -0.59571,-0.0732 -0.29296,-0.0708 -0.48095,-0.15625 v -0.51025 h 0.0366 q 0.20752,0.13672 0.48828,0.22705 0.28076,0.0903 0.54199,0.0903 0.15381,0 0.32715,-0.0513 0.17334,-0.0513 0.28076,-0.15137 0.11231,-0.10742 0.16602,-0.23681 0.0562,-0.1294 0.0562,-0.32715 0,-0.19531 -0.0635,-0.32227 -0.061,-0.12939 -0.17089,-0.20263 -0.10987,-0.0757 -0.26612,-0.10254 -0.15625,-0.0293 -0.33691,-0.0293 h -0.21973 v -0.40527 h 0.1709 q 0.37109,0 0.59082,-0.15381 0.22217,-0.15625 0.22217,-0.4541 0,-0.13184 -0.0562,-0.2295 -0.0562,-0.10009 -0.15625,-0.16357 -0.10498,-0.0635 -0.22461,-0.0879 -0.11963,-0.0244 -0.271,-0.0244 -0.23193,0 -0.49316,0.083 -0.26123,0.083 -0.49317,0.23438 h -0.0244 v -0.51026 q 0.17334,-0.0854 0.46142,-0.15625 0.29053,-0.0732 0.56153,-0.0732 0.26611,0 0.46875,0.0488 0.20263,0.0488 0.36621,0.15625 0.17578,0.11719 0.26611,0.2832 0.0903,0.16602 0.0903,0.38819 0,0.30273 -0.21484,0.52978 -0.2124,0.22461 -0.50293,0.28321 v 0.0342 q 0.11719,0.0195 0.26855,0.083 0.15137,0.061 0.25635,0.15381 z"
         id="path1131" />
    </g>
    <path
       id="use1111"
       style="opacity:0.998;stroke-width:0.276813;paint-order:markers fill stroke"
       d="m 159.18045,66.323029 h 11.565 v 1 h -11.565 z" />
    <path
       id="use1111-0"
       style="opacity:0.998;stroke-width:0.276813;paint-order:markers fill stroke"
       d="m 159.04297,139.46292 h 11.565 v 1 h -11.565 z" />
    <path
       id="use1111-0-8"
       style="opacity:0.998;stroke-width:0.276813;paint-order:markers fill stroke"
       d="m 61.229969,139.46292 h 11.565 v 1 h -11.565 z" />
    <path
       id="use1115"
       style="opacity:0.998;stroke-width:0.276813;paint-order:markers fill stroke"
       d="m 159.18045,73.892242 h 11.565 v 1 h -11.565 z" />
    <path
       id="use1117"
       style="opacity:0.998;stroke-width:0.276813;paint-order:markers fill stroke"
       d="m 159.01743,81.027367 h 11.565 v 1 h -11.565 z" />
    <path
       id="use1119"
       style="opacity:0.998;stroke-width:0.276813;paint-order:markers fill stroke"
       d="m 159.18045,88.078667 h 11.565 v 1 h -11.565 z" />
    <path
       id="use1121"
       style="opacity:0.998;stroke-width:0.276813;paint-order:markers fill stroke"
       d="m 159.01743,95.141769 h 11.565 v 1 h -11.565 z" />
    <path
       id="use1123"
       style="opacity:0.998;stroke-width:0.276813;paint-order:markers fill stroke"
       d="m 159.18045,102.7246 h 11.565 v 1 h -11.565 z" />
    <path
       id="use1125"
       style="opacity:0.998;stroke-width:0.276813;paint-order:markers fill stroke"
       d="m 159.18045,110.12082 h 11.565 v 1 h -11.565 z" />
    <path
       id="use1127"
       style="opacity:0.998;stroke-width:0.276813;paint-order:markers fill stroke"
       d="m 159.18045,117.27842 h 11.565 v 1 h -11.565 z" />
    <path
       id="use1129"
       style="opacity:0.998;stroke-width:0.276813;paint-order:markers fill stroke"
       d="m 159.18045,124.62456 h 11.565 v 1 h -11.565 z" />
    <path
       id="use1131"
       style="opacity:0.998;stroke-width:0.276813;paint-order:markers fill stroke"
       d="m 159.18045,132.01123 h 11.565 v 1 h -11.565 z" />
    <path
       id="rect1180"
       style="opacity:0.998;stroke-width:0.276813;paint-order:markers fill stroke"
       d="m 60.980667,66.323029 h 11.565 v 1 h -11.565 z" />
    <path
       id="use1182"
       style="opacity:0.998;stroke-width:0.276813;paint-order:markers fill stroke"
       d="m 60.817646,81.027367 h 11.565 v 1 h -11.565 z" />
    <path
       id="use1184"
       style="opacity:0.998;stroke-width:0.276813;paint-order:markers fill stroke"
       d="m 60.980667,73.892242 h 11.565 v 1 h -11.565 z" />
    <path
       id="use1186"
       style="opacity:0.998;stroke-width:0.276813;paint-order:markers fill stroke"
       d="m 60.980667,88.078674 h 11.565 v 1 h -11.565 z" />
    <path
       id="use1188"
       style="opacity:0.998;stroke-width:0.276813;paint-order:markers fill stroke"
       d="m 60.817646,95.141769 h 11.565 v 1 h -11.565 z" />
    <path
       id="use1190"
       style="opacity:0.998;stroke-width:0.276813;paint-order:markers fill stroke"
       d="m 60.980667,102.7246 h 11.565 v 1 h -11.565 z" />
    <path
       id="use1192"
       style="opacity:0.998;stroke-width:0.276813;paint-order:markers fill stroke"
       d="m 60.980667,110.12082 h 11.565 v 1 h -11.565 z" />
    <path
       id="use1194"
       style="opacity:0.998;stroke-width:0.276813;paint-order:markers fill stroke"
       d="m 60.980667,117.27842 h 11.565 v 1 h -11.565 z" />
    <path
       id="use1196"
       style="opacity:0.998;stroke-width:0.276813;paint-order:markers fill stroke"
       d="m 60.980667,124.62456 h 11.565 v 1 h -11.565 z" />
    <path
       id="use1198"
       style="opacity:0.998;stroke-width:0.276813;paint-order:markers fill stroke"
       d="m 60.980667,132.01123 h 11.565 v 1 h -11.565 z" />
    <g
       aria-label="BW16-Kit"
       id="text930"
       style="font-size:10px;line-height:1.25;stroke-width:0.264583">
      <path
         d="m 99.582674,57.05897 q 0,0.497128 -0.188102,0.877811 -0.188102,0.380683 -0.506085,0.627007 -0.376204,0.295589 -0.828545,0.42099 -0.447862,0.125402 -1.142049,0.125402 H 94.55318 v -6.66867 h 1.975073 q 0.730015,0 1.092784,0.05374 0.362768,0.05374 0.694187,0.223932 0.367247,0.19258 0.532956,0.497127 0.165709,0.300068 0.165709,0.721058 0,0.474734 -0.241846,0.810631 -0.241846,0.331418 -0.644922,0.532956 v 0.03583 q 0.676272,0.138837 1.065913,0.595657 0.38964,0.452341 0.38964,1.146527 z m -1.491382,-3.005156 q 0,-0.241845 -0.08061,-0.407554 -0.08061,-0.165709 -0.25976,-0.268718 -0.210495,-0.120923 -0.510563,-0.147794 -0.300068,-0.03135 -0.743451,-0.03135 h -1.056956 v 1.925808 h 1.146528 q 0.416512,0 0.662836,-0.04031 0.246324,-0.04479 0.45682,-0.179145 0.210495,-0.134359 0.295589,-0.344854 0.08957,-0.214974 0.08957,-0.506085 z m 0.568786,3.040985 q 0,-0.403076 -0.120923,-0.640443 -0.120923,-0.237367 -0.438905,-0.403076 -0.214974,-0.111965 -0.523999,-0.143316 -0.304547,-0.03583 -0.743452,-0.03583 h -1.392852 v 2.481158 h 1.1734 q 0.582221,0 0.953946,-0.05822 0.371726,-0.0627 0.609093,-0.223931 0.250803,-0.174666 0.367247,-0.398597 0.116445,-0.223931 0.116445,-0.577743 z"
         style="font-size:9.17222px;-inkscape-font-specification:'sans-serif, Normal'"
         id="path1156" />
      <path
         d="m 108.60262,52.44151 -1.73323,6.66867 h -0.99873 l -1.40181,-5.535578 -1.37046,5.535578 h -0.97634 l -1.76457,-6.66867 h 0.90916 l 1.40181,5.544535 1.37941,-5.544535 h 0.9002 l 1.39286,5.598279 1.39285,-5.598279 z"
         style="font-size:9.17222px;-inkscape-font-specification:'sans-serif, Normal'"
         id="path1158" />
      <path
         d="m 113.86948,59.11018 h -3.60977 v -0.680751 h 1.38837 v -4.469666 h -1.38837 v -0.609092 q 0.28215,0 0.60462,-0.04479 0.32246,-0.04926 0.48817,-0.138837 0.20601,-0.111966 0.32246,-0.282153 0.12092,-0.174667 0.13883,-0.465777 h 0.69419 v 6.010312 h 1.3615 z"
         style="font-size:9.17222px;-inkscape-font-specification:'sans-serif, Normal'"
         id="path1160" />
      <path
         d="m 120.17986,56.947005 q 0,1.016647 -0.67179,1.661569 -0.66732,0.640443 -1.63918,0.640443 -0.49265,0 -0.89572,-0.152273 -0.40308,-0.152273 -0.7121,-0.452341 -0.38517,-0.371726 -0.59566,-0.985297 -0.20602,-0.613571 -0.20602,-1.477946 0,-0.886767 0.1881,-1.571996 0.19259,-0.68523 0.6091,-1.218186 0.39412,-0.506084 1.01665,-0.788238 0.62252,-0.286631 1.45107,-0.286631 0.26424,0 0.44338,0.02239 0.17915,0.02239 0.36277,0.08062 v 0.855417 h -0.0448 q -0.1254,-0.06718 -0.38068,-0.125402 -0.2508,-0.0627 -0.51504,-0.0627 -0.9629,0 -1.53617,0.604614 -0.57326,0.600135 -0.66731,1.62574 0.3762,-0.22841 0.73897,-0.344854 0.36725,-0.120923 0.84646,-0.120923 0.42547,0 0.74793,0.08062 0.32694,0.07614 0.66732,0.313504 0.39411,0.273196 0.59117,0.689708 0.20154,0.416512 0.20154,1.012169 z m -0.90916,0.03583 q 0,-0.416512 -0.1254,-0.689708 -0.12092,-0.273196 -0.40308,-0.474734 -0.20601,-0.143316 -0.45682,-0.188102 -0.2508,-0.04479 -0.52399,-0.04479 -0.38069,0 -0.70763,0.08957 -0.32694,0.08957 -0.67179,0.277675 -0.009,0.09853 -0.0134,0.19258 -0.004,0.08957 -0.004,0.22841 0,0.707623 0.14332,1.119656 0.1478,0.407555 0.40308,0.644922 0.20601,0.197059 0.44338,0.29111 0.24185,0.08957 0.524,0.08957 0.6494,0 1.02113,-0.394119 0.37172,-0.398598 0.37172,-1.142049 z"
         style="font-size:9.17222px;-inkscape-font-specification:'sans-serif, Normal'"
         id="path1162" />
      <path
         d="m 124.15688,56.597672 h -2.79466 v -0.81063 h 2.79466 z"
         style="font-size:9.17222px;-inkscape-font-specification:'sans-serif, Normal'"
         id="path1164" />
      <path
         d="m 131.09874,59.11018 h -1.151 l -2.63791,-2.969327 -0.66284,0.707622 v 2.261705 h -0.88676 v -6.66867 h 0.88676 v 3.47989 l 3.23805,-3.47989 h 1.07487 l -2.97829,3.135036 z"
         style="font-size:9.17222px;-inkscape-font-specification:'sans-serif, Normal'"
         id="path1166" />
      <path
         d="m 132.9305,53.270055 h -0.94947 v -0.873331 h 0.94947 z m -0.0537,5.840125 h -0.84198 v -5.002622 h 0.84198 z"
         style="font-size:9.17222px;-inkscape-font-specification:'sans-serif, Normal'"
         id="path1168" />
      <path
         d="m 137.14041,59.065394 q -0.23737,0.0627 -0.51952,0.103008 -0.27768,0.04031 -0.49713,0.04031 -0.76585,0 -1.16444,-0.412034 -0.3986,-0.412033 -0.3986,-1.321194 V 54.81518 h -0.56879 v -0.707622 h 0.56879 V 52.66992 h 0.84198 v 1.437638 h 1.73771 v 0.707622 h -1.73771 v 2.279619 q 0,0.394119 0.0179,0.61805 0.0179,0.219453 0.1254,0.412034 0.0985,0.179145 0.26871,0.264239 0.17467,0.08062 0.52848,0.08062 0.20602,0 0.42995,-0.05822 0.22393,-0.0627 0.32246,-0.103009 h 0.0448 z"
         style="font-size:9.17222px;-inkscape-font-specification:'sans-serif, Normal'"
         id="path1170" />
    </g>
    <text
       xml:space="preserve"
       transform="matrix(0.26458333,0,0,0.26458333,60.980666,45.966664)"
       id="text33079"
       style="fill:black;fill-opacity:1;line-height:1.25;stroke:none;font-family:sans-serif;font-style:normal;font-weight:normal;font-size:40px;white-space:pre;shape-inside:url(#rect33081)" />
    <text
       xml:space="preserve"
       transform="matrix(0.26458333,0,0,0.26458333,60.980666,45.966664)"
       id="text36107"
       style="fill:black;fill-opacity:1;line-height:1.25;stroke:none;font-family:sans-serif;font-style:normal;font-weight:normal;font-size:40px;white-space:pre;shape-inside:url(#rect36109)" />
  </g>
</svg>
