<?xml version="1.0" encoding="UTF-8" standalone="no"?>
<svg
   width="109.76479mm"
   height="108.09526mm"
   viewBox="0 0 109.76475 108.09526"
   version="1.1"
   id="svg8"
   inkscape:version="1.1 (c68e22c387, 2021-05-23)"
   sodipodi:docname="AMB26 (RTL8720DF) Schematic.svg"
   xmlns:inkscape="http://www.inkscape.org/namespaces/inkscape"
   xmlns:sodipodi="http://sodipodi.sourceforge.net/DTD/sodipodi-0.dtd"
   xmlns:xlink="http://www.w3.org/1999/xlink"
   xmlns="http://www.w3.org/2000/svg"
   xmlns:svg="http://www.w3.org/2000/svg"
   xmlns:rdf="http://www.w3.org/1999/02/22-rdf-syntax-ns#"
   xmlns:cc="http://creativecommons.org/ns#"
   xmlns:dc="http://purl.org/dc/elements/1.1/">
  <defs
     id="defs2">
    <rect
       x="90.752083"
       y="62.885414"
       width="50.535416"
       height="33.337502"
       id="rect857" />
    <rect
       x="97.102081"
       y="65.266663"
       width="3.96875"
       height="12.170833"
       id="rect851" />
  </defs>
  <sodipodi:namedview
     id="base"
     pagecolor="#ffffff"
     bordercolor="#666666"
     borderopacity="1.0"
     inkscape:pageopacity="0.0"
     inkscape:pageshadow="2"
     inkscape:zoom="0.81149738"
     inkscape:cx="390.01974"
     inkscape:cy="439.31134"
     inkscape:document-units="mm"
     inkscape:current-layer="layer1"
     inkscape:document-rotation="0"
     showgrid="false"
     inkscape:window-width="1920"
     inkscape:window-height="1017"
     inkscape:window-x="1272"
     inkscape:window-y="-8"
     inkscape:window-maximized="1"
     fit-margin-top="0"
     fit-margin-left="0"
     fit-margin-right="0"
     fit-margin-bottom="0"
     inkscape:pagecheckerboard="0"
     inkscape:snap-page="false" />
  <metadata
     id="metadata5">
    <rdf:RDF>
      <cc:Work
         rdf:about="">
        <dc:format>image/svg+xml</dc:format>
        <dc:type
           rdf:resource="http://purl.org/dc/dcmitype/StillImage" />
      </cc:Work>
    </rdf:RDF>
  </metadata>
  <g
     inkscape:label="Layer 1"
     inkscape:groupmode="layer"
     id="layer1"
     transform="translate(-60.980666,-45.966666)">
    <rect
       style="opacity:0.998;fill:none;stroke:#000000;stroke-width:0.551517;stroke-miterlimit:4;stroke-dasharray:none;paint-order:markers fill stroke"
       id="rect24"
       width="86.881042"
       height="107.54375"
       x="72.521553"
       y="46.242424" />
    <g
       aria-label="GND"
       id="use897"
       style="font-size:5px;line-height:1.25;-inkscape-font-specification:'sans-serif, Normal';stroke-width:0.264583">
      <path
         d="m 141.42693,54.679363 q -0.29786,0.136719 -0.65186,0.239258 -0.35156,0.100098 -0.68115,0.100098 -0.42481,0 -0.77881,-0.117188 -0.354,-0.117187 -0.60303,-0.351562 -0.25146,-0.236817 -0.38818,-0.590821 -0.13672,-0.356445 -0.13672,-0.832519 0,-0.871582 0.50781,-1.374512 0.51026,-0.505371 1.39893,-0.505371 0.31006,0 0.63232,0.07568 0.32471,0.07324 0.69824,0.251465 v 0.57373 h -0.0439 q -0.0757,-0.05859 -0.21973,-0.153809 -0.14404,-0.09521 -0.2832,-0.158691 -0.16846,-0.07568 -0.3833,-0.124512 -0.2124,-0.05127 -0.4834,-0.05127 -0.61035,0 -0.9668,0.393066 -0.354,0.390625 -0.354,1.05957 0,0.705567 0.37109,1.098633 0.3711,0.390625 1.01075,0.390625 0.23437,0 0.4663,-0.04639 0.23438,-0.04639 0.41016,-0.119629 v -0.891114 h -0.97412 v -0.424804 h 1.45264 z"
         id="path1593" />
      <path
         d="m 145.04509,54.947918 h -0.59814 l -1.72364,-3.251953 v 3.251953 h -0.45166 v -3.635254 h 0.74951 l 1.57227,2.96875 v -2.96875 h 0.45166 z"
         id="path1595" />
      <path
         d="m 149.08318,53.133953 q 0,0.495606 -0.21729,0.898438 -0.21484,0.402832 -0.57373,0.625 -0.24902,0.153808 -0.55664,0.222168 -0.30518,0.06836 -0.80566,0.06836 h -0.91797 v -3.635254 h 0.9082 q 0.53223,0 0.84473,0.07813 0.31494,0.07568 0.53222,0.209961 0.3711,0.231934 0.57862,0.617676 0.20752,0.385742 0.20752,0.915527 z m -0.50538,-0.0073 q 0,-0.427246 -0.14892,-0.720215 -0.14893,-0.292969 -0.44434,-0.461426 -0.21484,-0.12207 -0.45654,-0.168457 -0.2417,-0.04883 -0.57861,-0.04883 h -0.4541 v 2.805176 h 0.4541 q 0.34912,0 0.60791,-0.05127 0.26123,-0.05127 0.47851,-0.190429 0.271,-0.17334 0.40528,-0.456543 0.13671,-0.283203 0.13671,-0.708008 z"
         id="path1597" />
    </g>
    <g
       aria-label="14"
       id="use899"
       style="font-size:5px;line-height:1.25;-inkscape-font-specification:'sans-serif, Normal';stroke-width:0.264583">
      <path
         d="m 140.5529,62.174034 h -1.96777 V 61.80294 h 0.75683 v -2.436523 h -0.75683 v -0.332031 q 0.15381,0 0.32959,-0.02441 0.17578,-0.02686 0.26611,-0.07568 0.11231,-0.06104 0.17578,-0.153809 0.0659,-0.09521 0.0757,-0.253906 h 0.37841 v 3.276367 h 0.74219 z"
         id="path1600" />
      <path
         d="m 144.02214,61.151085 h -0.53955 v 1.022949 h -0.46875 v -1.022949 h -1.74072 v -0.561524 l 1.76025,-2.050781 h 0.44922 v 2.22168 h 0.53955 z m -1.0083,-0.390625 v -1.640625 l -1.40869,1.640625 z"
         id="path1602" />
    </g>
    <g
       aria-label="15"
       id="use901"
       style="font-size:5px;line-height:1.25;-inkscape-font-specification:'sans-serif, Normal';stroke-width:0.264583">
      <path
         d="m 140.5529,69.400146 h -1.96777 v -0.371093 h 0.75683 v -2.436524 h -0.75683 v -0.332031 q 0.15381,0 0.32959,-0.02441 0.17578,-0.02686 0.26611,-0.07568 0.11231,-0.06103 0.17578,-0.153808 0.0659,-0.09521 0.0757,-0.253906 h 0.37841 v 3.276367 h 0.74219 z"
         id="path1605" />
      <path
         d="m 143.90984,68.245361 q 0,0.253907 -0.0928,0.48584 -0.0928,0.231934 -0.2539,0.390625 -0.17579,0.170899 -0.41993,0.263672 -0.24169,0.09033 -0.56152,0.09033 -0.29785,0 -0.57373,-0.06348 -0.27588,-0.06104 -0.46631,-0.148926 v -0.515137 h 0.0342 q 0.2002,0.126953 0.46875,0.217285 0.26856,0.08789 0.52735,0.08789 0.17334,0 0.33447,-0.04883 0.16357,-0.04883 0.29053,-0.170899 0.10742,-0.10498 0.16113,-0.251465 0.0562,-0.146484 0.0562,-0.339355 0,-0.187988 -0.0659,-0.317383 -0.0635,-0.129394 -0.17822,-0.207519 -0.12695,-0.09277 -0.31006,-0.129395 -0.18066,-0.03906 -0.40527,-0.03906 -0.21485,0 -0.41504,0.0293 -0.19776,0.0293 -0.3418,0.05859 v -1.872558 h 2.1875 v 0.427246 h -1.71631 v 0.966797 q 0.10498,-0.0098 0.21485,-0.01465 0.10986,-0.0049 0.19043,-0.0049 0.29541,0 0.51757,0.05127 0.22217,0.04883 0.40772,0.175781 0.19531,0.134277 0.30273,0.34668 0.10743,0.212402 0.10743,0.532226 z"
         id="path1607" />
    </g>
    <g
       aria-label="18"
       id="use903"
       style="font-size:5px;line-height:1.25;-inkscape-font-specification:'sans-serif, Normal';stroke-width:0.264583">
      <path
         d="m 140.5529,76.626266 h -1.96777 v -0.371093 h 0.75683 v -2.436524 h -0.75683 v -0.332031 q 0.15381,0 0.32959,-0.02441 0.17578,-0.02685 0.26611,-0.07568 0.11231,-0.06104 0.17578,-0.153808 0.0659,-0.09522 0.0757,-0.253906 h 0.37841 v 3.276367 h 0.74219 z"
         id="path1610" />
      <path
         d="m 143.96599,75.613083 q 0,0.471191 -0.36865,0.783691 -0.36622,0.3125 -0.92286,0.3125 -0.59082,0 -0.94238,-0.305175 -0.34912,-0.305176 -0.34912,-0.78125 0,-0.302735 0.17578,-0.546875 0.17578,-0.246583 0.49561,-0.390625 V 74.6707 q -0.29297,-0.15625 -0.43457,-0.341797 -0.13916,-0.185547 -0.13916,-0.463867 0,-0.410156 0.33691,-0.683594 0.33691,-0.273437 0.85693,-0.273437 0.54444,0 0.86914,0.26123 0.32471,0.261231 0.32471,0.664063 0,0.246582 -0.15381,0.48584 -0.15381,0.236816 -0.45166,0.371093 v 0.01465 q 0.3418,0.146484 0.52246,0.361328 0.18067,0.214844 0.18067,0.546875 z m -0.57862,-1.774902 q 0,-0.261231 -0.20263,-0.41504 -0.2002,-0.15625 -0.5127,-0.15625 -0.30761,0 -0.50537,0.146485 -0.19531,0.146484 -0.19531,0.395508 0,0.175781 0.0977,0.305175 0.10009,0.126954 0.30029,0.227051 0.0903,0.04395 0.25879,0.114746 0.1709,0.0708 0.33203,0.117188 0.2417,-0.161133 0.33447,-0.334473 0.0928,-0.17334 0.0928,-0.40039 z m 0.0757,1.821289 q 0,-0.22461 -0.1001,-0.358887 -0.0977,-0.136719 -0.38574,-0.273438 -0.11475,-0.05371 -0.25147,-0.100097 -0.13671,-0.04639 -0.36377,-0.129395 -0.21972,0.119629 -0.354,0.324707 -0.13184,0.205078 -0.13184,0.463867 0,0.32959 0.22706,0.544434 0.22705,0.214844 0.57617,0.214844 0.35644,0 0.56884,-0.183106 0.21485,-0.183105 0.21485,-0.502929 z"
         id="path1612" />
    </g>
    <g
       aria-label="19"
       id="use905"
       style="font-size:5px;line-height:1.25;-inkscape-font-specification:'sans-serif, Normal';stroke-width:0.264583">
      <path
         d="m 140.5529,83.852386 h -1.96777 v -0.371093 h 0.75683 v -2.436524 h -0.75683 v -0.332031 q 0.15381,0 0.32959,-0.02441 0.17578,-0.02685 0.26611,-0.07568 0.11231,-0.06104 0.17578,-0.153808 0.0659,-0.09521 0.0757,-0.253906 h 0.37841 v 3.276367 h 0.74219 z"
         id="path1615" />
      <path
         d="m 143.93425,81.816254 q 0,0.476074 -0.10986,0.864257 -0.10743,0.388184 -0.32715,0.661622 -0.22217,0.27832 -0.55664,0.429687 -0.33448,0.151367 -0.78614,0.151367 -0.12695,0 -0.23925,-0.01465 -0.11231,-0.01221 -0.2002,-0.0415 v -0.466309 h 0.0244 q 0.0708,0.03662 0.20019,0.0708 0.1294,0.03174 0.28809,0.03174 0.53955,0 0.84472,-0.322265 0.30762,-0.324707 0.35645,-0.893555 -0.22705,0.136719 -0.42725,0.195313 -0.20019,0.05859 -0.43701,0.05859 -0.22461,0 -0.40771,-0.04395 -0.18067,-0.04394 -0.36377,-0.170898 -0.21485,-0.148926 -0.32471,-0.378418 -0.10742,-0.229493 -0.10742,-0.549317 0,-0.55664 0.36621,-0.905762 0.36621,-0.349121 0.89355,-0.349121 0.26368,0 0.48828,0.08301 0.22461,0.08057 0.39307,0.244141 0.20752,0.202637 0.31983,0.522461 0.1123,0.317383 0.1123,0.822754 z m -0.49316,-0.104981 q 0,-0.378418 -0.0781,-0.60791 -0.0781,-0.229492 -0.21484,-0.356445 -0.11475,-0.109864 -0.24658,-0.15625 -0.13184,-0.04883 -0.28565,-0.04883 -0.35156,0 -0.55664,0.219726 -0.20264,0.219727 -0.20264,0.617676 0,0.231934 0.0659,0.378418 0.0659,0.146484 0.22217,0.256348 0.10986,0.07568 0.2417,0.102539 0.13183,0.02441 0.29297,0.02441 0.19043,0 0.38574,-0.05127 0.19531,-0.05127 0.36621,-0.148926 0.002,-0.05127 0.005,-0.100097 0.005,-0.05127 0.005,-0.129395 z"
         id="path1617" />
    </g>
    <g
       aria-label="16"
       id="use907"
       style="font-size:5px;line-height:1.25;-inkscape-font-specification:'sans-serif, Normal';stroke-width:0.264583">
      <path
         d="m 140.5529,91.078506 h -1.96777 v -0.371093 h 0.75683 v -2.436524 h -0.75683 v -0.332031 q 0.15381,0 0.32959,-0.02441 0.17578,-0.02685 0.26611,-0.07568 0.11231,-0.06103 0.17578,-0.153808 0.0659,-0.09521 0.0757,-0.253906 h 0.37841 v 3.276367 h 0.74219 z"
         id="path1620" />
      <path
         d="m 143.99284,89.899307 q 0,0.554199 -0.36621,0.905762 -0.36377,0.349121 -0.89355,0.349121 -0.26856,0 -0.48828,-0.08301 -0.21973,-0.08301 -0.38819,-0.246582 -0.20996,-0.202636 -0.3247,-0.537109 -0.11231,-0.334473 -0.11231,-0.805664 0,-0.483399 0.10254,-0.856934 0.10498,-0.373535 0.33203,-0.664062 0.21485,-0.275879 0.5542,-0.429688 0.33936,-0.15625 0.79102,-0.15625 0.14404,0 0.2417,0.01221 0.0976,0.01221 0.19775,0.04395 v 0.466308 h -0.0244 q -0.0684,-0.03662 -0.20752,-0.06836 -0.13672,-0.03418 -0.28077,-0.03418 -0.5249,0 -0.8374,0.32959 -0.3125,0.327148 -0.36377,0.88623 0.20508,-0.124511 0.40283,-0.187988 0.2002,-0.06592 0.46143,-0.06592 0.23193,0 0.40772,0.04394 0.17822,0.0415 0.36376,0.170899 0.21485,0.148926 0.32227,0.375976 0.10986,0.227051 0.10986,0.551758 z m -0.4956,0.01953 q 0,-0.227051 -0.0684,-0.375977 -0.0659,-0.148926 -0.21973,-0.258789 -0.1123,-0.07813 -0.24902,-0.102539 -0.13672,-0.02441 -0.28565,-0.02441 -0.20752,0 -0.38574,0.04883 -0.17822,0.04883 -0.36621,0.151367 -0.005,0.05371 -0.007,0.104981 -0.002,0.04883 -0.002,0.124511 0,0.385742 0.0781,0.610352 0.0806,0.222168 0.21973,0.351562 0.1123,0.107422 0.2417,0.158692 0.13183,0.04883 0.28564,0.04883 0.354,0 0.55664,-0.214844 0.20264,-0.217285 0.20264,-0.622558 z"
         id="path1622" />
    </g>
    <g
       aria-label="17"
       id="use909"
       style="font-size:5px;line-height:1.25;-inkscape-font-specification:'sans-serif, Normal';stroke-width:0.264583">
      <path
         d="m 140.5529,98.304611 h -1.96777 v -0.371094 h 0.75683 v -2.436523 h -0.75683 v -0.332031 q 0.15381,0 0.32959,-0.02441 0.17578,-0.02686 0.26611,-0.07568 0.11231,-0.06104 0.17578,-0.153808 0.0659,-0.09521 0.0757,-0.253907 h 0.37841 v 3.276367 h 0.74219 z"
         id="path1625" />
      <path
         d="m 143.9489,95.213791 -1.64551,3.09082 h -0.52246 l 1.75049,-3.208008 h -2.07031 v -0.427246 h 2.48779 z"
         id="path1627" />
    </g>
    <g
       aria-label="8"
       id="use911"
       style="font-size:5px;line-height:1.25;-inkscape-font-specification:'sans-serif, Normal';stroke-width:0.264583">
      <path
         d="m 140.78728,104.51755 q 0,0.47119 -0.36866,0.78369 -0.36621,0.3125 -0.92285,0.3125 -0.59082,0 -0.94238,-0.30518 -0.34912,-0.30517 -0.34912,-0.78125 0,-0.30273 0.17578,-0.54687 0.17578,-0.24658 0.49561,-0.39063 v -0.0147 q -0.29297,-0.15625 -0.43457,-0.34179 -0.13916,-0.18555 -0.13916,-0.46387 0,-0.41016 0.33691,-0.68359 0.33691,-0.27344 0.85693,-0.27344 0.54444,0 0.86914,0.26123 0.32471,0.26123 0.32471,0.66406 0,0.24658 -0.15381,0.48584 -0.15381,0.23682 -0.45166,0.3711 v 0.0146 q 0.3418,0.14649 0.52246,0.36133 0.18067,0.21485 0.18067,0.54688 z m -0.57862,-1.7749 q 0,-0.26124 -0.20263,-0.41504 -0.2002,-0.15625 -0.5127,-0.15625 -0.30762,0 -0.50537,0.14648 -0.19531,0.14648 -0.19531,0.39551 0,0.17578 0.0976,0.30517 0.1001,0.12696 0.3003,0.22705 0.0903,0.0439 0.25879,0.11475 0.1709,0.0708 0.33203,0.11719 0.2417,-0.16113 0.33447,-0.33447 0.0928,-0.17334 0.0928,-0.40039 z m 0.0757,1.82128 q 0,-0.22461 -0.1001,-0.35888 -0.0977,-0.13672 -0.38574,-0.27344 -0.11475,-0.0537 -0.25147,-0.1001 -0.13672,-0.0464 -0.36377,-0.12939 -0.21972,0.11963 -0.354,0.3247 -0.13184,0.20508 -0.13184,0.46387 0,0.32959 0.22705,0.54444 0.22706,0.21484 0.57618,0.21484 0.35644,0 0.56884,-0.18311 0.21485,-0.1831 0.21485,-0.50293 z"
         id="path1630" />
    </g>
    <g
       aria-label="5"
       id="use913"
       style="font-size:5px;line-height:1.25;-inkscape-font-specification:'sans-serif, Normal';stroke-width:0.264583">
      <path
         d="m 140.73112,111.60207 q 0,0.2539 -0.0928,0.48584 -0.0928,0.23193 -0.2539,0.39062 -0.17579,0.1709 -0.41993,0.26367 -0.2417,0.0903 -0.56152,0.0903 -0.29785,0 -0.57373,-0.0635 -0.27588,-0.061 -0.46631,-0.14893 V 112.105 h 0.0342 q 0.2002,0.12695 0.46875,0.21728 0.26856,0.0879 0.52734,0.0879 0.17334,0 0.33448,-0.0488 0.16357,-0.0488 0.29052,-0.1709 0.10743,-0.10498 0.16114,-0.25146 0.0562,-0.14648 0.0562,-0.33936 0,-0.18798 -0.0659,-0.31738 -0.0635,-0.12939 -0.17822,-0.20752 -0.12695,-0.0928 -0.31006,-0.12939 -0.18066,-0.0391 -0.40527,-0.0391 -0.21485,0 -0.41504,0.0293 -0.19776,0.0293 -0.3418,0.0586 v -1.87256 h 2.1875 v 0.42724 h -1.71631 v 0.9668 q 0.10498,-0.01 0.21485,-0.0147 0.10986,-0.005 0.19043,-0.005 0.29541,0 0.51757,0.0513 0.22217,0.0488 0.40772,0.17578 0.19531,0.13428 0.30273,0.34668 0.10742,0.2124 0.10742,0.53223 z"
         id="path1633" />
    </g>
    <g
       aria-label="7"
       id="use915"
       style="font-size:5px;line-height:1.25;-inkscape-font-specification:'sans-serif, Normal';stroke-width:0.264583">
      <path
         d="m 140.77019,116.89214 -1.64551,3.09082 h -0.52246 l 1.75049,-3.208 h -2.07032 v -0.42725 h 2.4878 z"
         id="path1636" />
    </g>
    <g
       aria-label="6"
       id="use917"
       style="font-size:5px;line-height:1.25;-inkscape-font-specification:'sans-serif, Normal';stroke-width:0.264583">
      <path
         d="m 140.81413,126.02988 q 0,0.5542 -0.36621,0.90577 -0.36377,0.34912 -0.89355,0.34912 -0.26856,0 -0.48828,-0.083 -0.21973,-0.083 -0.38819,-0.24658 -0.20996,-0.20264 -0.3247,-0.53711 -0.11231,-0.33447 -0.11231,-0.80567 0,-0.48339 0.10254,-0.85693 0.10498,-0.37353 0.33203,-0.66406 0.21484,-0.27588 0.5542,-0.42969 0.33936,-0.15625 0.79102,-0.15625 0.14404,0 0.24169,0.0122 0.0977,0.0122 0.19776,0.0439 v 0.46631 h -0.0244 q -0.0684,-0.0366 -0.20751,-0.0684 -0.13672,-0.0342 -0.28077,-0.0342 -0.5249,0 -0.8374,0.32959 -0.3125,0.32715 -0.36377,0.88623 0.20508,-0.12451 0.40283,-0.18799 0.2002,-0.0659 0.46143,-0.0659 0.23193,0 0.40771,0.0439 0.17823,0.0415 0.36377,0.1709 0.21485,0.14893 0.32227,0.37598 0.10986,0.22705 0.10986,0.55175 z m -0.4956,0.0195 q 0,-0.22706 -0.0684,-0.37598 -0.0659,-0.14893 -0.21973,-0.25879 -0.1123,-0.0781 -0.24902,-0.10254 -0.13672,-0.0244 -0.28565,-0.0244 -0.20752,0 -0.38574,0.0488 -0.17822,0.0488 -0.36621,0.15137 -0.005,0.0537 -0.007,0.10498 -0.002,0.0488 -0.002,0.12451 0,0.38575 0.0781,0.61036 0.0806,0.22216 0.21973,0.35156 0.1123,0.10742 0.2417,0.15869 0.13183,0.0488 0.28564,0.0488 0.354,0 0.55664,-0.21485 0.20264,-0.21728 0.20264,-0.62255 z"
         id="path1639" />
    </g>
    <g
       aria-label="3V3"
       id="use919"
       style="font-size:5px;line-height:1.25;-inkscape-font-specification:'sans-serif, Normal';stroke-width:0.264583">
      <path
         d="m 140.4406,132.68471 q 0.11719,0.10498 0.19287,0.26367 0.0757,0.15869 0.0757,0.41016 0,0.24902 -0.0903,0.45654 -0.0903,0.20752 -0.25391,0.36133 -0.1831,0.1709 -0.43212,0.2539 -0.24659,0.0806 -0.542,0.0806 -0.30273,0 -0.5957,-0.0732 -0.29297,-0.0708 -0.48096,-0.15625 v -0.51026 h 0.0366 q 0.20752,0.13672 0.48829,0.22705 0.28076,0.0903 0.54199,0.0903 0.15381,0 0.32715,-0.0513 0.17334,-0.0513 0.28076,-0.15137 0.1123,-0.10742 0.16601,-0.23682 0.0562,-0.12939 0.0562,-0.32715 0,-0.19531 -0.0635,-0.32226 -0.061,-0.1294 -0.1709,-0.20264 -0.10986,-0.0757 -0.26611,-0.10254 -0.15625,-0.0293 -0.33692,-0.0293 h -0.21972 v -0.40528 h 0.17089 q 0.3711,0 0.59083,-0.15381 0.22216,-0.15625 0.22216,-0.4541 0,-0.13183 -0.0562,-0.22949 -0.0561,-0.1001 -0.15625,-0.16357 -0.10498,-0.0635 -0.22461,-0.0879 -0.11963,-0.0244 -0.27099,-0.0244 -0.23194,0 -0.49317,0.083 -0.26123,0.083 -0.49316,0.23437 h -0.0244 v -0.51025 q 0.17334,-0.0855 0.46143,-0.15625 0.29053,-0.0732 0.56152,-0.0732 0.26612,0 0.46875,0.0488 0.20264,0.0488 0.36621,0.15625 0.17578,0.11718 0.26612,0.2832 0.0903,0.16602 0.0903,0.38818 0,0.30274 -0.21485,0.52979 -0.2124,0.22461 -0.50292,0.2832 v 0.0342 q 0.11718,0.0195 0.26855,0.083 0.15137,0.061 0.25635,0.15381 z"
         id="path1642" />
      <path
         d="m 144.43962,130.79994 -1.32324,3.63526 h -0.64453 l -1.32324,-3.63526 h 0.51757 l 1.14014,3.19824 1.14014,-3.19824 z"
         id="path1644" />
      <path
         d="m 147.03728,132.68471 q 0.11718,0.10498 0.19287,0.26367 0.0757,0.15869 0.0757,0.41016 0,0.24902 -0.0903,0.45654 -0.0903,0.20752 -0.25391,0.36133 -0.1831,0.1709 -0.43213,0.2539 -0.24658,0.0806 -0.54199,0.0806 -0.30273,0 -0.5957,-0.0732 -0.29297,-0.0708 -0.48096,-0.15625 v -0.51026 h 0.0366 q 0.20752,0.13672 0.48828,0.22705 0.28077,0.0903 0.542,0.0903 0.15381,0 0.32715,-0.0513 0.17334,-0.0513 0.28076,-0.15137 0.1123,-0.10742 0.16601,-0.23682 0.0562,-0.12939 0.0562,-0.32715 0,-0.19531 -0.0635,-0.32226 -0.061,-0.1294 -0.1709,-0.20264 -0.10986,-0.0757 -0.26611,-0.10254 -0.15625,-0.0293 -0.33692,-0.0293 h -0.21972 v -0.40528 h 0.17089 q 0.3711,0 0.59082,-0.15381 0.22217,-0.15625 0.22217,-0.4541 0,-0.13183 -0.0562,-0.22949 -0.0562,-0.1001 -0.15625,-0.16357 -0.10498,-0.0635 -0.22461,-0.0879 -0.11963,-0.0244 -0.27099,-0.0244 -0.23194,0 -0.49317,0.083 -0.26123,0.083 -0.49316,0.23437 h -0.0244 v -0.51025 q 0.17334,-0.0855 0.46143,-0.15625 0.29053,-0.0732 0.56152,-0.0732 0.26612,0 0.46875,0.0488 0.20264,0.0488 0.36621,0.15625 0.17578,0.11718 0.26612,0.2832 0.0903,0.16602 0.0903,0.38818 0,0.30274 -0.21485,0.52979 -0.2124,0.22461 -0.50293,0.2832 v 0.0342 q 0.11719,0.0195 0.26856,0.083 0.15137,0.061 0.25635,0.15381 z"
         id="path1646" />
    </g>
    <g
       aria-label="5V"
       id="use921"
       style="font-size:5px;line-height:1.25;-inkscape-font-specification:'sans-serif, Normal';stroke-width:0.264583">
      <path
         d="m 140.73112,140.50652 q 0,0.2539 -0.0928,0.48584 -0.0928,0.23193 -0.2539,0.39062 -0.17579,0.1709 -0.41993,0.26367 -0.2417,0.0903 -0.56152,0.0903 -0.29785,0 -0.57373,-0.0635 -0.27588,-0.061 -0.46631,-0.14893 v -0.51513 h 0.0342 q 0.2002,0.12695 0.46875,0.21728 0.26856,0.0879 0.52734,0.0879 0.17334,0 0.33448,-0.0488 0.16357,-0.0488 0.29052,-0.1709 0.10743,-0.10498 0.16114,-0.25146 0.0562,-0.14648 0.0562,-0.33936 0,-0.18798 -0.0659,-0.31738 -0.0635,-0.12939 -0.17822,-0.20752 -0.12695,-0.0928 -0.31006,-0.12939 -0.18066,-0.0391 -0.40527,-0.0391 -0.21485,0 -0.41504,0.0293 -0.19776,0.0293 -0.3418,0.0586 v -1.87256 h 2.1875 v 0.42724 h -1.71631 v 0.9668 q 0.10498,-0.01 0.21485,-0.0146 0.10986,-0.005 0.19043,-0.005 0.29541,0 0.51757,0.0513 0.22217,0.0488 0.40772,0.17578 0.19531,0.13428 0.30273,0.34668 0.10742,0.2124 0.10742,0.53223 z"
         id="path1649" />
      <path
         d="m 144.43962,138.02605 -1.32324,3.63525 h -0.64453 l -1.32324,-3.63525 h 0.51757 l 1.14014,3.19824 1.14014,-3.19824 z"
         id="path1651" />
    </g>
    <g
       aria-label="GND"
       id="use923"
       style="font-size:5px;line-height:1.25;-inkscape-font-specification:'sans-serif, Normal';stroke-width:0.264583">
      <path
         d="m 141.42693,148.61887 q -0.29786,0.13671 -0.65186,0.23925 -0.35156,0.1001 -0.68115,0.1001 -0.42481,0 -0.77881,-0.11719 -0.354,-0.11718 -0.60303,-0.35156 -0.25146,-0.23681 -0.38818,-0.59082 -0.13672,-0.35644 -0.13672,-0.83252 0,-0.87158 0.50781,-1.37451 0.51026,-0.50537 1.39893,-0.50537 0.31006,0 0.63232,0.0757 0.32471,0.0732 0.69824,0.25147 v 0.57373 h -0.0439 q -0.0757,-0.0586 -0.21973,-0.15381 -0.14404,-0.0952 -0.2832,-0.15869 -0.16846,-0.0757 -0.3833,-0.12451 -0.2124,-0.0513 -0.4834,-0.0513 -0.61035,0 -0.9668,0.39306 -0.354,0.39063 -0.354,1.05957 0,0.70557 0.37109,1.09864 0.3711,0.39062 1.01075,0.39062 0.23437,0 0.4663,-0.0464 0.23438,-0.0464 0.41016,-0.11962 v -0.89112 h -0.97412 v -0.4248 h 1.45264 z"
         id="path1654" />
      <path
         d="m 145.04509,148.88742 h -0.59814 l -1.72364,-3.25195 v 3.25195 h -0.45166 v -3.63525 h 0.74951 l 1.57227,2.96875 v -2.96875 h 0.45166 z"
         id="path1656" />
      <path
         d="m 149.08318,147.07346 q 0,0.4956 -0.21729,0.89843 -0.21484,0.40284 -0.57373,0.625 -0.24902,0.15381 -0.55664,0.22217 -0.30518,0.0684 -0.80566,0.0684 h -0.91797 v -3.63525 h 0.9082 q 0.53223,0 0.84473,0.0781 0.31494,0.0757 0.53222,0.20996 0.3711,0.23194 0.57862,0.61768 0.20752,0.38574 0.20752,0.91553 z m -0.50538,-0.007 q 0,-0.42724 -0.14892,-0.72021 -0.14893,-0.29297 -0.44434,-0.46143 -0.21484,-0.12207 -0.45654,-0.16846 -0.2417,-0.0488 -0.57861,-0.0488 h -0.4541 v 2.80517 h 0.4541 q 0.34912,0 0.60791,-0.0513 0.26123,-0.0513 0.47851,-0.19043 0.271,-0.17334 0.40528,-0.45654 0.13671,-0.2832 0.13671,-0.70801 z"
         id="path1658" />
    </g>
    <g
       aria-label="GND"
       id="text1049"
       style="font-size:5px;line-height:1.25;-inkscape-font-specification:'sans-serif, Normal';stroke-width:0.264583">
      <path
         d="m 79.026634,54.679363 q -0.297851,0.136719 -0.651855,0.239258 -0.351563,0.100098 -0.681153,0.100098 -0.424804,0 -0.778808,-0.117188 -0.354004,-0.117187 -0.603028,-0.351562 -0.251464,-0.236817 -0.388183,-0.590821 -0.136719,-0.356445 -0.136719,-0.832519 0,-0.871582 0.507813,-1.374512 0.510254,-0.505371 1.398925,-0.505371 0.310059,0 0.632325,0.07568 0.324707,0.07324 0.698242,0.251465 v 0.57373 h -0.04395 q -0.07568,-0.05859 -0.219726,-0.153809 -0.144043,-0.09521 -0.283203,-0.158691 -0.168457,-0.07568 -0.383301,-0.124512 -0.212402,-0.05127 -0.483398,-0.05127 -0.610352,0 -0.966797,0.393066 -0.354004,0.390625 -0.354004,1.05957 0,0.705567 0.371094,1.098633 0.371093,0.390625 1.010742,0.390625 0.234375,0 0.466308,-0.04639 0.234375,-0.04639 0.410157,-0.119629 v -0.891114 h -0.974122 v -0.424804 h 1.452637 z"
         id="path1661" />
      <path
         d="m 82.644798,54.947918 h -0.598144 l -1.723633,-3.251953 v 3.251953 h -0.45166 v -3.635254 h 0.749511 l 1.572266,2.96875 v -2.96875 h 0.45166 z"
         id="path1663" />
      <path
         d="m 86.682884,53.133953 q 0,0.495606 -0.217285,0.898438 -0.214844,0.402832 -0.57373,0.625 -0.249024,0.153808 -0.556641,0.222168 -0.305176,0.06836 -0.805664,0.06836 h -0.917969 v -3.635254 h 0.908203 q 0.532227,0 0.844727,0.07813 0.314941,0.07568 0.532226,0.209961 0.371094,0.231934 0.578614,0.617676 0.207519,0.385742 0.207519,0.915527 z m -0.505371,-0.0073 q 0,-0.427246 -0.148926,-0.720215 -0.148925,-0.292969 -0.444336,-0.461426 -0.214843,-0.12207 -0.456543,-0.168457 -0.241699,-0.04883 -0.578613,-0.04883 h -0.454101 v 2.805176 h 0.454101 q 0.349121,0 0.60791,-0.05127 0.261231,-0.05127 0.478516,-0.190429 0.270996,-0.17334 0.405273,-0.456543 0.136719,-0.283203 0.136719,-0.708008 z"
         id="path1665" />
    </g>
    <g
       aria-label="11"
       id="text1053"
       style="font-size:5px;line-height:1.25;-inkscape-font-specification:'sans-serif, Normal';stroke-width:0.264583">
      <path
         d="M 78.152611,62.174034 H 76.184837 V 61.80294 h 0.756836 v -2.436523 h -0.756836 v -0.332031 q 0.153809,0 0.32959,-0.02441 0.175781,-0.02686 0.266113,-0.07568 0.112305,-0.06104 0.175782,-0.153809 0.06592,-0.09521 0.07568,-0.253906 h 0.378418 v 3.276367 h 0.742188 z"
         id="path1668" />
      <path
         d="M 81.331322,62.174034 H 79.363548 V 61.80294 h 0.756836 v -2.436523 h -0.756836 v -0.332031 q 0.153809,0 0.32959,-0.02441 0.175781,-0.02686 0.266113,-0.07568 0.112305,-0.06104 0.175782,-0.153809 0.06592,-0.09521 0.07568,-0.253906 h 0.378418 v 3.276367 h 0.742188 z"
         id="path1670" />
    </g>
    <g
       aria-label="10"
       id="text1057"
       style="font-size:5px;line-height:1.25;-inkscape-font-specification:'sans-serif, Normal';stroke-width:0.264583">
      <path
         d="m 78.152611,69.400146 h -1.967774 v -0.371093 h 0.756836 v -2.436524 h -0.756836 v -0.332031 q 0.153809,0 0.32959,-0.02441 0.175781,-0.02686 0.266113,-0.07568 0.112305,-0.06103 0.175782,-0.153808 0.06592,-0.09521 0.07568,-0.253906 h 0.378418 v 3.276367 h 0.742188 z"
         id="path1673" />
      <path
         d="m 81.533958,67.581299 q 0,0.979004 -0.307617,1.437988 -0.305176,0.456543 -0.949707,0.456543 -0.654297,0 -0.957031,-0.463867 -0.300293,-0.463867 -0.300293,-1.425781 0,-0.969239 0.305176,-1.430664 0.305176,-0.463868 0.952148,-0.463868 0.654297,0 0.95459,0.471192 0.302734,0.46875 0.302734,1.418457 z m -0.642089,1.108398 q 0.08545,-0.197754 0.114746,-0.463867 0.03174,-0.268555 0.03174,-0.644531 0,-0.371094 -0.03174,-0.644531 -0.0293,-0.273438 -0.117188,-0.463868 -0.08545,-0.187988 -0.234375,-0.283203 -0.146484,-0.09521 -0.378418,-0.09521 -0.229492,0 -0.380859,0.09521 -0.148926,0.09522 -0.236817,0.288086 -0.08301,0.180664 -0.114746,0.471192 -0.0293,0.290527 -0.0293,0.637207 0,0.380859 0.02686,0.637207 0.02685,0.256347 0.114746,0.458984 0.08057,0.19043 0.227051,0.290527 0.148926,0.100098 0.393066,0.100098 0.229492,0 0.38086,-0.09521 0.151367,-0.09521 0.234375,-0.288086 z"
         id="path1675" />
    </g>
    <g
       aria-label="9"
       id="text1061"
       style="font-size:5px;line-height:1.25;-inkscape-font-specification:'sans-serif, Normal';stroke-width:0.264583">
      <path
         d="m 78.355247,74.590134 q 0,0.476074 -0.109863,0.864257 -0.107422,0.388184 -0.327148,0.661622 -0.222168,0.27832 -0.556641,0.429687 -0.334473,0.151367 -0.786133,0.151367 -0.126953,0 -0.239257,-0.01465 -0.112305,-0.01221 -0.200196,-0.0415 v -0.466309 h 0.02441 q 0.0708,0.03662 0.200196,0.0708 0.129394,0.03174 0.288086,0.03174 0.53955,0 0.844726,-0.322265 0.307617,-0.324707 0.356445,-0.893555 -0.22705,0.136719 -0.427246,0.195313 -0.200195,0.05859 -0.437011,0.05859 -0.22461,0 -0.407715,-0.04394 -0.180664,-0.04395 -0.36377,-0.170898 -0.214844,-0.148926 -0.324707,-0.378418 -0.107422,-0.229493 -0.107422,-0.549317 0,-0.55664 0.366211,-0.905762 0.366211,-0.349121 0.893555,-0.349121 0.263672,0 0.488281,0.08301 0.22461,0.08057 0.393067,0.244141 0.207519,0.202637 0.319824,0.522461 0.112304,0.317383 0.112304,0.822754 z m -0.493164,-0.104981 q 0,-0.378418 -0.07813,-0.60791 -0.07813,-0.229492 -0.214843,-0.356445 -0.114746,-0.109864 -0.246582,-0.15625 -0.131836,-0.04883 -0.285645,-0.04883 -0.351562,0 -0.556641,0.219726 -0.202636,0.219727 -0.202636,0.617676 0,0.231934 0.06592,0.378418 0.06592,0.146484 0.222168,0.256348 0.109863,0.07568 0.241699,0.102539 0.131836,0.02441 0.292969,0.02441 0.190429,0 0.385742,-0.05127 0.195312,-0.05127 0.366211,-0.148926 0.0024,-0.05127 0.0049,-0.100097 0.0049,-0.05127 0.0049,-0.129395 z"
         id="path1678" />
    </g>
    <g
       aria-label="3"
       id="text1065"
       style="font-size:5px;line-height:1.25;-inkscape-font-specification:'sans-serif, Normal';stroke-width:0.264583">
      <path
         d="m 78.040306,82.101898 q 0.117188,0.104981 0.192871,0.263672 0.07568,0.158691 0.07568,0.410156 0,0.249024 -0.09033,0.456543 -0.09033,0.20752 -0.253907,0.361328 -0.183105,0.170899 -0.432128,0.253907 -0.246582,0.08057 -0.541993,0.08057 -0.302734,0 -0.595703,-0.07324 -0.292968,-0.0708 -0.480957,-0.15625 v -0.510254 h 0.03662 q 0.20752,0.136719 0.488282,0.227051 0.280761,0.09033 0.541992,0.09033 0.153808,0 0.327148,-0.05127 0.17334,-0.05127 0.280762,-0.151367 0.112305,-0.107422 0.166016,-0.236816 0.05615,-0.129395 0.05615,-0.327149 0,-0.195312 -0.06348,-0.322265 -0.06104,-0.129395 -0.170898,-0.202637 -0.109863,-0.07568 -0.266113,-0.102539 -0.15625,-0.0293 -0.336914,-0.0293 h -0.219727 v -0.405273 h 0.170898 q 0.371094,0 0.590821,-0.153809 0.222168,-0.15625 0.222168,-0.454102 0,-0.131836 -0.05615,-0.229492 -0.05615,-0.100097 -0.15625,-0.163574 -0.10498,-0.06348 -0.224609,-0.08789 -0.119629,-0.02441 -0.270996,-0.02441 -0.231934,0 -0.493164,0.08301 -0.261231,0.08301 -0.493164,0.234375 h -0.02441 v -0.510254 q 0.17334,-0.08545 0.461425,-0.15625 0.290528,-0.07324 0.561524,-0.07324 0.266113,0 0.46875,0.04883 0.202637,0.04883 0.366211,0.15625 0.175781,0.117188 0.266113,0.283203 0.09033,0.166016 0.09033,0.388184 0,0.302734 -0.214844,0.529785 -0.212402,0.224609 -0.502929,0.283203 v 0.03418 q 0.117187,0.01953 0.268554,0.08301 0.151368,0.06104 0.256348,0.153808 z"
         id="path1681" />
    </g>
    <g
       aria-label="2"
       id="text1069"
       style="font-size:5px;line-height:1.25;-inkscape-font-specification:'sans-serif, Normal';stroke-width:0.264583">
      <path
         d="m 78.36013,91.078506 h -2.460937 v -0.510253 q 0.256347,-0.219727 0.512695,-0.439454 0.258789,-0.219726 0.480957,-0.437011 0.46875,-0.454102 0.64209,-0.720215 0.17334,-0.268555 0.17334,-0.578613 0,-0.283204 -0.187988,-0.441895 -0.185547,-0.161133 -0.52002,-0.161133 -0.222168,0 -0.480957,0.07813 -0.258789,0.07813 -0.505371,0.239258 h -0.02441 V 87.59462 q 0.17334,-0.08545 0.461426,-0.15625 0.290527,-0.0708 0.561523,-0.0708 0.559082,0 0.876465,0.270996 0.317383,0.268555 0.317383,0.729981 0,0.207519 -0.05371,0.388183 -0.05127,0.178223 -0.153809,0.339356 -0.09521,0.151367 -0.224609,0.297851 -0.126953,0.146485 -0.310059,0.324707 -0.26123,0.256348 -0.539551,0.498047 -0.27832,0.239258 -0.520019,0.444336 h 1.955566 z"
         id="path1684" />
    </g>
    <g
       aria-label="1"
       id="text1073"
       style="font-size:5px;line-height:1.25;-inkscape-font-specification:'sans-serif, Normal';stroke-width:0.264583">
      <path
         d="m 78.152611,98.304611 h -1.967774 v -0.371094 h 0.756836 v -2.436523 h -0.756836 v -0.332031 q 0.153809,0 0.32959,-0.02441 0.175781,-0.02686 0.266113,-0.07568 0.112305,-0.06104 0.175782,-0.153808 0.06592,-0.09521 0.07568,-0.253907 h 0.378418 v 3.276367 h 0.742188 z"
         id="path1687" />
    </g>
    <g
       aria-label="0"
       id="text1077"
       style="font-size:5px;line-height:1.25;-inkscape-font-specification:'sans-serif, Normal';stroke-width:0.264583">
      <path
         d="m 78.355247,103.71188 q 0,0.97901 -0.307617,1.43799 -0.305175,0.45654 -0.949707,0.45654 -0.654297,0 -0.957031,-0.46386 -0.300293,-0.46387 -0.300293,-1.42578 0,-0.96924 0.305176,-1.43067 0.305176,-0.46386 0.952148,-0.46386 0.654297,0 0.95459,0.47119 0.302734,0.46875 0.302734,1.41845 z m -0.642089,1.1084 q 0.08545,-0.19775 0.114746,-0.46387 0.03174,-0.26855 0.03174,-0.64453 0,-0.37109 -0.03174,-0.64453 -0.0293,-0.27344 -0.117188,-0.46386 -0.08545,-0.18799 -0.234375,-0.28321 -0.146484,-0.0952 -0.378418,-0.0952 -0.229492,0 -0.380859,0.0952 -0.148926,0.0952 -0.236817,0.28809 -0.08301,0.18066 -0.114746,0.47119 -0.0293,0.29053 -0.0293,0.63721 0,0.38086 0.02685,0.6372 0.02685,0.25635 0.114746,0.45899 0.08057,0.19043 0.227051,0.29053 0.148926,0.10009 0.393066,0.10009 0.229492,0 0.38086,-0.0952 0.151367,-0.0952 0.234375,-0.28809 z"
         id="path1690" />
    </g>
    <g
       aria-label="13"
       id="text1081"
       style="font-size:5px;line-height:1.25;-inkscape-font-specification:'sans-serif, Normal';stroke-width:0.264583">
      <path
         d="m 78.152611,112.75685 h -1.967774 v -0.37109 h 0.756836 v -2.43653 h -0.756836 v -0.33203 q 0.153809,0 0.32959,-0.0244 0.175781,-0.0269 0.266113,-0.0757 0.112305,-0.061 0.175782,-0.15381 0.06592,-0.0952 0.07568,-0.25391 h 0.378418 v 3.27637 h 0.742188 z"
         id="path1693" />
      <path
         d="m 81.219017,111.00636 q 0.117188,0.10498 0.192871,0.26367 0.07568,0.1587 0.07568,0.41016 0,0.24902 -0.09033,0.45654 -0.09033,0.20752 -0.253907,0.36133 -0.183105,0.1709 -0.432128,0.25391 -0.246583,0.0806 -0.541993,0.0806 -0.302734,0 -0.595703,-0.0732 -0.292969,-0.0708 -0.480957,-0.15625 v -0.51025 h 0.03662 q 0.20752,0.13672 0.488282,0.22705 0.280761,0.0903 0.541992,0.0903 0.153808,0 0.327148,-0.0513 0.17334,-0.0513 0.280762,-0.15137 0.112305,-0.10742 0.166015,-0.23681 0.05615,-0.1294 0.05615,-0.32715 0,-0.19531 -0.06348,-0.32227 -0.06103,-0.12939 -0.170898,-0.20263 -0.109863,-0.0757 -0.266113,-0.10254 -0.15625,-0.0293 -0.336915,-0.0293 h -0.219726 v -0.40527 h 0.170898 q 0.371094,0 0.590821,-0.15381 0.222168,-0.15625 0.222168,-0.4541 0,-0.13184 -0.05615,-0.22949 -0.05615,-0.1001 -0.15625,-0.16358 -0.10498,-0.0635 -0.224609,-0.0879 -0.119629,-0.0244 -0.270996,-0.0244 -0.231934,0 -0.493164,0.083 -0.261231,0.083 -0.493164,0.23438 h -0.02441 v -0.51025 q 0.173339,-0.0854 0.461425,-0.15625 0.290528,-0.0732 0.561524,-0.0732 0.266113,0 0.46875,0.0488 0.202637,0.0488 0.366211,0.15625 0.175781,0.11719 0.266113,0.2832 0.09033,0.16602 0.09033,0.38819 0,0.30273 -0.214844,0.52978 -0.212402,0.22461 -0.502929,0.28321 v 0.0342 q 0.117187,0.0195 0.268554,0.083 0.151368,0.061 0.256348,0.15381 z"
         id="path1695" />
    </g>
    <g
       aria-label="12"
       id="text1085"
       style="font-size:5px;line-height:1.25;-inkscape-font-specification:'sans-serif, Normal';stroke-width:0.264583">
      <path
         d="m 78.152611,119.98296 h -1.967774 v -0.37109 h 0.756836 v -2.43652 h -0.756836 v -0.33203 q 0.153809,0 0.32959,-0.0244 0.175781,-0.0268 0.266113,-0.0757 0.112305,-0.061 0.175782,-0.15381 0.06592,-0.0952 0.07568,-0.25391 h 0.378418 v 3.27637 h 0.742188 z"
         id="path1698" />
      <path
         d="m 81.538841,119.98296 h -2.460937 v -0.51025 q 0.256347,-0.21973 0.512695,-0.43945 0.258789,-0.21973 0.480957,-0.43702 0.46875,-0.4541 0.64209,-0.72021 0.17334,-0.26855 0.17334,-0.57861 0,-0.28321 -0.187989,-0.4419 -0.185546,-0.16113 -0.520019,-0.16113 -0.222168,0 -0.480957,0.0781 -0.258789,0.0781 -0.505371,0.23926 h -0.02441 v -0.51269 q 0.17334,-0.0855 0.461426,-0.15625 0.290527,-0.0708 0.561523,-0.0708 0.559082,0 0.876465,0.27099 0.317383,0.26856 0.317383,0.72998 0,0.20752 -0.05371,0.38819 -0.05127,0.17822 -0.153809,0.33935 -0.09522,0.15137 -0.224609,0.29785 -0.126953,0.14649 -0.310059,0.32471 -0.26123,0.25635 -0.539551,0.49805 -0.27832,0.23925 -0.520019,0.44433 h 1.955566 z"
         id="path1700" />
    </g>
    <g
       aria-label="EN"
       id="text1089"
       style="font-size:5px;line-height:1.25;-inkscape-font-specification:'sans-serif, Normal';stroke-width:0.264583">
      <path
         d="m 78.389427,127.20908 h -2.395019 v -3.63525 h 2.395019 v 0.42969 h -1.911621 v 0.99609 h 1.911621 v 0.42969 h -1.911621 v 1.3501 h 1.911621 z"
         id="path1703" />
      <path
         d="m 81.929466,127.20908 h -0.598144 l -1.723633,-3.25195 v 3.25195 h -0.45166 v -3.63525 h 0.749511 l 1.572266,2.96875 v -2.96875 h 0.45166 z"
         id="path1705" />
    </g>
    <g
       aria-label="3V3"
       id="text1093"
       style="font-size:5px;line-height:1.25;-inkscape-font-specification:'sans-serif, Normal';stroke-width:0.264583">
      <path
         d="m 78.040306,132.68471 q 0.117188,0.10498 0.192871,0.26367 0.07568,0.15869 0.07568,0.41016 0,0.24902 -0.09033,0.45654 -0.09033,0.20752 -0.253907,0.36133 -0.183105,0.1709 -0.432128,0.2539 -0.246582,0.0806 -0.541993,0.0806 -0.302734,0 -0.595703,-0.0732 -0.292968,-0.0708 -0.480957,-0.15625 v -0.51026 h 0.03662 q 0.20752,0.13672 0.488282,0.22705 0.280761,0.0903 0.541992,0.0903 0.153808,0 0.327148,-0.0513 0.17334,-0.0513 0.280762,-0.15137 0.112305,-0.10742 0.166016,-0.23682 0.05615,-0.12939 0.05615,-0.32715 0,-0.19531 -0.06348,-0.32226 -0.06104,-0.1294 -0.170898,-0.20264 -0.109863,-0.0757 -0.266113,-0.10254 -0.15625,-0.0293 -0.336914,-0.0293 h -0.219727 v -0.40528 h 0.170898 q 0.371094,0 0.590821,-0.15381 0.222168,-0.15625 0.222168,-0.4541 0,-0.13183 -0.05615,-0.22949 -0.05615,-0.1001 -0.15625,-0.16357 -0.10498,-0.0635 -0.224609,-0.0879 -0.119629,-0.0244 -0.270996,-0.0244 -0.231934,0 -0.493164,0.083 -0.261231,0.083 -0.493164,0.23437 h -0.02441 v -0.51025 q 0.17334,-0.0855 0.461425,-0.15625 0.290528,-0.0732 0.561524,-0.0732 0.266113,0 0.46875,0.0488 0.202637,0.0488 0.366211,0.15625 0.175781,0.11718 0.266113,0.2832 0.09033,0.16602 0.09033,0.38818 0,0.30274 -0.214844,0.52979 -0.212402,0.22461 -0.502929,0.2832 v 0.0342 q 0.117187,0.0195 0.268554,0.083 0.151368,0.061 0.256348,0.15381 z"
         id="path1708" />
      <path
         d="m 82.03933,130.79994 -1.323243,3.63526 h -0.644531 l -1.323242,-3.63526 h 0.517578 l 1.140137,3.19824 1.140136,-3.19824 z"
         id="path1710" />
      <path
         d="m 84.636986,132.68471 q 0.117187,0.10498 0.192871,0.26367 0.07568,0.15869 0.07568,0.41016 0,0.24902 -0.09033,0.45654 -0.09033,0.20752 -0.253906,0.36133 -0.183105,0.1709 -0.432129,0.2539 -0.246582,0.0806 -0.541992,0.0806 -0.302734,0 -0.595703,-0.0732 -0.292969,-0.0708 -0.480957,-0.15625 v -0.51026 h 0.03662 q 0.20752,0.13672 0.488281,0.22705 0.280762,0.0903 0.541992,0.0903 0.153809,0 0.327149,-0.0513 0.17334,-0.0513 0.280762,-0.15137 0.112304,-0.10742 0.166015,-0.23682 0.05615,-0.12939 0.05615,-0.32715 0,-0.19531 -0.06348,-0.32226 -0.06103,-0.1294 -0.170898,-0.20264 -0.109864,-0.0757 -0.266114,-0.10254 -0.15625,-0.0293 -0.336914,-0.0293 h -0.219726 v -0.40528 h 0.170898 q 0.371094,0 0.59082,-0.15381 0.222168,-0.15625 0.222168,-0.4541 0,-0.13183 -0.05615,-0.22949 -0.05615,-0.1001 -0.15625,-0.16357 -0.10498,-0.0635 -0.224609,-0.0879 -0.119629,-0.0244 -0.270996,-0.0244 -0.231934,0 -0.493164,0.083 -0.261231,0.083 -0.493165,0.23437 h -0.02441 v -0.51025 q 0.17334,-0.0855 0.461426,-0.15625 0.290528,-0.0732 0.561524,-0.0732 0.266113,0 0.46875,0.0488 0.202636,0.0488 0.366211,0.15625 0.175781,0.11718 0.266113,0.2832 0.09033,0.16602 0.09033,0.38818 0,0.30274 -0.214844,0.52979 -0.212402,0.22461 -0.50293,0.2832 v 0.0342 q 0.117188,0.0195 0.268555,0.083 0.151367,0.061 0.256348,0.15381 z"
         id="path1712" />
    </g>
    <g
       aria-label="5V"
       id="text1097"
       style="font-size:5px;line-height:1.25;-inkscape-font-specification:'sans-serif, Normal';stroke-width:0.264583">
      <path
         d="m 78.330833,140.50652 q 0,0.2539 -0.09277,0.48584 -0.09277,0.23193 -0.253906,0.39062 -0.175782,0.1709 -0.419922,0.26367 -0.241699,0.0903 -0.561524,0.0903 -0.297851,0 -0.57373,-0.0635 -0.275879,-0.061 -0.466309,-0.14893 v -0.51513 h 0.03418 q 0.200195,0.12695 0.46875,0.21728 0.268555,0.0879 0.527344,0.0879 0.17334,0 0.334472,-0.0488 0.163575,-0.0488 0.290528,-0.1709 0.107422,-0.10498 0.161133,-0.25146 0.05615,-0.14648 0.05615,-0.33936 0,-0.18798 -0.06592,-0.31738 -0.06348,-0.12939 -0.178223,-0.20752 -0.126953,-0.0928 -0.310058,-0.12939 -0.180664,-0.0391 -0.405274,-0.0391 -0.214843,0 -0.415039,0.0293 -0.197754,0.0293 -0.341797,0.0586 v -1.87256 h 2.1875 v 0.42724 h -1.716308 v 0.9668 q 0.10498,-0.01 0.214844,-0.0146 0.109863,-0.005 0.190429,-0.005 0.29541,0 0.517578,0.0513 0.222168,0.0488 0.407715,0.17578 0.195313,0.13428 0.302735,0.34668 0.107421,0.2124 0.107421,0.53223 z"
         id="path1715" />
      <path
         d="m 82.03933,138.02605 -1.323243,3.63525 h -0.644531 l -1.323242,-3.63525 h 0.517578 l 1.140137,3.19824 1.140136,-3.19824 z"
         id="path1717" />
    </g>
    <g
       aria-label="GND"
       id="text1101"
       style="font-size:5px;line-height:1.25;-inkscape-font-specification:'sans-serif, Normal';stroke-width:0.264583">
      <path
         d="m 79.026634,148.61887 q -0.297851,0.13671 -0.651855,0.23925 -0.351563,0.1001 -0.681153,0.1001 -0.424804,0 -0.778808,-0.11719 -0.354004,-0.11718 -0.603028,-0.35156 -0.251464,-0.23681 -0.388183,-0.59082 -0.136719,-0.35644 -0.136719,-0.83252 0,-0.87158 0.507813,-1.37451 0.510254,-0.50537 1.398925,-0.50537 0.310059,0 0.632325,0.0757 0.324707,0.0732 0.698242,0.25147 v 0.57373 h -0.04395 q -0.07568,-0.0586 -0.219726,-0.15381 -0.144043,-0.0952 -0.283203,-0.15869 -0.168457,-0.0757 -0.383301,-0.12451 -0.212402,-0.0513 -0.483398,-0.0513 -0.610352,0 -0.966797,0.39306 -0.354004,0.39063 -0.354004,1.05957 0,0.70557 0.371094,1.09864 0.371093,0.39062 1.010742,0.39062 0.234375,0 0.466308,-0.0464 0.234375,-0.0464 0.410157,-0.11962 v -0.89112 h -0.974122 v -0.4248 h 1.452637 z"
         id="path1720" />
      <path
         d="m 82.644798,148.88742 h -0.598144 l -1.723633,-3.25195 v 3.25195 h -0.45166 v -3.63525 h 0.749511 l 1.572266,2.96875 v -2.96875 h 0.45166 z"
         id="path1722" />
      <path
         d="m 86.682884,147.07346 q 0,0.4956 -0.217285,0.89843 -0.214844,0.40284 -0.57373,0.625 -0.249024,0.15381 -0.556641,0.22217 -0.305176,0.0684 -0.805664,0.0684 h -0.917969 v -3.63525 h 0.908203 q 0.532227,0 0.844727,0.0781 0.314941,0.0757 0.532226,0.20996 0.371094,0.23194 0.578614,0.61768 0.207519,0.38574 0.207519,0.91553 z m -0.505371,-0.007 q 0,-0.42724 -0.148926,-0.72021 -0.148925,-0.29297 -0.444336,-0.46143 -0.214843,-0.12207 -0.456543,-0.16846 -0.241699,-0.0488 -0.578613,-0.0488 h -0.454101 v 2.80517 h 0.454101 q 0.349121,0 0.60791,-0.0513 0.261231,-0.0513 0.478516,-0.19043 0.270996,-0.17334 0.405273,-0.45654 0.136719,-0.2832 0.136719,-0.70801 z"
         id="path1724" />
    </g>
    <rect
       style="opacity:0.998;fill:#000000;fill-opacity:1;stroke:none;stroke-width:0.276813;stroke-miterlimit:4;stroke-dasharray:none;paint-order:markers fill stroke"
       id="rect1107"
       width="11.565"
       height="1"
       x="159.18045"
       y="52.668133"
       inkscape:tile-cx="96.171282"
       inkscape:tile-cy="14.919001"
       inkscape:tile-w="11.564999"
       inkscape:tile-h="0.99999998"
       inkscape:tile-x0="90.388782"
       inkscape:tile-y0="14.419001" />
    <use
       x="0"
       y="0"
       inkscape:tiled-clone-of="#rect1107"
       xlink:href="#rect1107"
       transform="translate(0,13.472112)"
       id="use1111"
       width="100%"
       height="100%" />
    <use
       x="0"
       y="0"
       inkscape:tiled-clone-of="#rect1107"
       xlink:href="#rect1107"
       transform="translate(0,7.1907158)"
       id="use1113"
       width="100%"
       height="100%" />
    <use
       x="0"
       y="0"
       inkscape:tiled-clone-of="#rect1107"
       xlink:href="#rect1107"
       transform="translate(0,21.640506)"
       id="use1115"
       width="100%"
       height="100%" />
    <use
       x="0"
       y="0"
       inkscape:tiled-clone-of="#rect1107"
       xlink:href="#rect1107"
       transform="translate(0,28.866626)"
       id="use1117"
       width="100%"
       height="100%" />
    <use
       x="0"
       y="0"
       inkscape:tiled-clone-of="#rect1107"
       xlink:href="#rect1107"
       transform="translate(0,36.095188)"
       id="use1119"
       width="100%"
       height="100%" />
    <use
       x="0"
       y="0"
       inkscape:tiled-clone-of="#rect1107"
       xlink:href="#rect1107"
       transform="translate(0,43.318851)"
       id="use1121"
       width="100%"
       height="100%" />
    <use
       x="0"
       y="0"
       inkscape:tiled-clone-of="#rect1107"
       xlink:href="#rect1107"
       transform="translate(0,50.544971)"
       id="use1123"
       width="100%"
       height="100%" />
    <use
       x="0"
       y="0"
       inkscape:tiled-clone-of="#rect1107"
       xlink:href="#rect1107"
       transform="translate(0,57.771091)"
       id="use1125"
       width="100%"
       height="100%" />
    <use
       x="0"
       y="0"
       inkscape:tiled-clone-of="#rect1107"
       xlink:href="#rect1107"
       transform="translate(0,64.997203)"
       id="use1127"
       width="100%"
       height="100%" />
    <use
       x="0"
       y="0"
       inkscape:tiled-clone-of="#rect1107"
       xlink:href="#rect1107"
       transform="translate(0,72.223323)"
       id="use1129"
       width="100%"
       height="100%" />
    <use
       x="0"
       y="0"
       inkscape:tiled-clone-of="#rect1107"
       xlink:href="#rect1107"
       transform="translate(0,79.449436)"
       id="use1131"
       width="100%"
       height="100%" />
    <use
       x="0"
       y="0"
       inkscape:tiled-clone-of="#rect1107"
       xlink:href="#rect1107"
       transform="translate(0,86.67554)"
       id="use1133"
       width="100%"
       height="100%" />
    <use
       x="0"
       y="0"
       inkscape:tiled-clone-of="#rect1107"
       xlink:href="#rect1107"
       transform="translate(0,93.90166)"
       id="use1135"
       width="100%"
       height="100%" />
    <rect
       style="opacity:0.998;fill:#000000;fill-opacity:1;stroke:none;stroke-width:0.276813;stroke-miterlimit:4;stroke-dasharray:none;paint-order:markers fill stroke"
       id="rect1180"
       width="11.565"
       height="1"
       x="60.980667"
       y="52.668133"
       inkscape:tile-cx="96.171282"
       inkscape:tile-cy="14.919001"
       inkscape:tile-w="11.564999"
       inkscape:tile-h="0.99999998"
       inkscape:tile-x0="90.388782"
       inkscape:tile-y0="14.419001" />
    <use
       x="0"
       y="0"
       inkscape:tiled-clone-of="#rect1107"
       xlink:href="#rect1107"
       transform="translate(-98.199784,13.472112)"
       id="use1182"
       width="100%"
       height="100%" />
    <use
       x="0"
       y="0"
       inkscape:tiled-clone-of="#rect1107"
       xlink:href="#rect1107"
       transform="translate(-98.199784,7.1907158)"
       id="use1184"
       width="100%"
       height="100%" />
    <use
       x="0"
       y="0"
       inkscape:tiled-clone-of="#rect1107"
       xlink:href="#rect1107"
       transform="translate(-98.199784,21.640506)"
       id="use1186"
       width="100%"
       height="100%" />
    <use
       x="0"
       y="0"
       inkscape:tiled-clone-of="#rect1107"
       xlink:href="#rect1107"
       transform="translate(-98.199784,28.866626)"
       id="use1188"
       width="100%"
       height="100%" />
    <use
       x="0"
       y="0"
       inkscape:tiled-clone-of="#rect1107"
       xlink:href="#rect1107"
       transform="translate(-98.199784,36.095188)"
       id="use1190"
       width="100%"
       height="100%" />
    <use
       x="0"
       y="0"
       inkscape:tiled-clone-of="#rect1107"
       xlink:href="#rect1107"
       transform="translate(-98.199784,43.318851)"
       id="use1192"
       width="100%"
       height="100%" />
    <use
       x="0"
       y="0"
       inkscape:tiled-clone-of="#rect1107"
       xlink:href="#rect1107"
       transform="translate(-98.199784,50.544971)"
       id="use1194"
       width="100%"
       height="100%" />
    <use
       x="0"
       y="0"
       inkscape:tiled-clone-of="#rect1107"
       xlink:href="#rect1107"
       transform="translate(-98.199784,57.771091)"
       id="use1196"
       width="100%"
       height="100%" />
    <use
       x="0"
       y="0"
       inkscape:tiled-clone-of="#rect1107"
       xlink:href="#rect1107"
       transform="translate(-98.199784,64.997203)"
       id="use1198"
       width="100%"
       height="100%" />
    <use
       x="0"
       y="0"
       inkscape:tiled-clone-of="#rect1107"
       xlink:href="#rect1107"
       transform="translate(-98.199784,72.223323)"
       id="use1200"
       width="100%"
       height="100%" />
    <use
       x="0"
       y="0"
       inkscape:tiled-clone-of="#rect1107"
       xlink:href="#rect1107"
       transform="translate(-98.199784,79.449436)"
       id="use1202"
       width="100%"
       height="100%" />
    <use
       x="0"
       y="0"
       inkscape:tiled-clone-of="#rect1107"
       xlink:href="#rect1107"
       transform="translate(-98.199784,86.67554)"
       id="use1204"
       width="100%"
       height="100%" />
    <use
       x="0"
       y="0"
       inkscape:tiled-clone-of="#rect1107"
       xlink:href="#rect1107"
       transform="translate(-98.199784,93.90166)"
       id="use1206"
       width="100%"
       height="100%" />
    <g
       aria-label="AMB26"
       id="text930"
       style="font-size:10px;line-height:1.25;stroke-width:0.264583">
      <path
         d="m 104.45338,57.048485 h -1.03028 l -0.71289,-2.026367 h -3.144529 l -0.71289,2.026367 h -0.981445 l 2.646484,-7.270508 h 1.28906 z m -2.04102,-2.856446 -1.27441,-3.569335 -1.2793,3.569335 z"
         id="path18895" />
      <path
         d="m 112.0315,57.048485 h -0.9668 v -6.264649 l -2.02148,4.262696 h -0.57617 l -2.00684,-4.262696 v 6.264649 h -0.90332 v -7.270508 h 1.31836 l 1.93848,4.047852 1.875,-4.047852 h 1.34277 z"
         id="path18897" />
      <path
         d="m 119.46803,54.812157 q 0,0.541992 -0.20508,0.957031 -0.20508,0.415039 -0.55176,0.683594 -0.41016,0.322265 -0.90332,0.458984 -0.48828,0.136719 -1.24512,0.136719 h -2.57812 v -7.270508 h 2.15332 q 0.7959,0 1.1914,0.05859 0.39551,0.05859 0.75684,0.24414 0.40039,0.209961 0.58105,0.541993 0.18067,0.327148 0.18067,0.786132 0,0.517578 -0.26367,0.883789 -0.26368,0.361329 -0.70313,0.581055 v 0.03906 q 0.73731,0.151367 1.16211,0.649414 0.42481,0.493164 0.42481,1.25 z m -1.62598,-3.276368 q 0,-0.263671 -0.0879,-0.444335 -0.0879,-0.180665 -0.28321,-0.292969 -0.22949,-0.131836 -0.55664,-0.161133 -0.32714,-0.03418 -0.81054,-0.03418 h -1.15235 v 2.09961 h 1.25 q 0.45411,0 0.72266,-0.04395 0.26855,-0.04883 0.49805,-0.195312 0.22949,-0.146485 0.32226,-0.375977 0.0977,-0.234375 0.0977,-0.551758 z m 0.62012,3.31543 q 0,-0.439453 -0.13184,-0.698242 -0.13184,-0.258789 -0.47852,-0.439453 -0.23437,-0.12207 -0.57128,-0.15625 -0.33204,-0.03906 -0.81055,-0.03906 h -1.51856 v 2.705078 h 1.2793 q 0.63477,0 1.04004,-0.06348 0.40527,-0.06836 0.66406,-0.244141 0.27344,-0.190429 0.40039,-0.43457 0.12696,-0.244141 0.12696,-0.629882 z"
         id="path18899" />
      <path
         d="m 125.57154,57.048485 h -4.92187 v -1.020508 q 0.51269,-0.439453 1.02539,-0.878906 0.51757,-0.439453 0.96191,-0.874024 0.9375,-0.908203 1.28418,-1.440429 0.34668,-0.53711 0.34668,-1.157227 0,-0.566406 -0.37598,-0.883789 -0.37109,-0.322266 -1.04004,-0.322266 -0.44433,0 -0.96191,0.15625 -0.51758,0.15625 -1.01074,0.478516 h -0.0488 v -1.025391 q 0.34668,-0.170898 0.92285,-0.3125 0.58106,-0.141601 1.12305,-0.141601 1.11816,0 1.75293,0.541992 0.63476,0.537109 0.63476,1.459961 0,0.415039 -0.10742,0.776367 -0.10254,0.356445 -0.30762,0.678711 -0.19043,0.302734 -0.44921,0.595703 -0.25391,0.292969 -0.62012,0.649414 -0.52246,0.512696 -1.0791,0.996094 -0.55664,0.478516 -1.04004,0.888672 h 3.91113 z"
         id="path18901" />
      <path
         d="m 132.03638,54.690086 q 0,1.108399 -0.73242,1.811524 -0.72754,0.698242 -1.78711,0.698242 -0.53711,0 -0.97656,-0.166016 -0.43945,-0.166015 -0.77637,-0.493164 -0.41992,-0.405273 -0.64941,-1.074218 -0.22461,-0.668946 -0.22461,-1.611329 0,-0.966796 0.20508,-1.713867 0.20996,-0.74707 0.66406,-1.328125 0.42969,-0.551758 1.1084,-0.859375 0.67871,-0.3125 1.58203,-0.3125 0.28809,0 0.4834,0.02441 0.19531,0.02441 0.39551,0.08789 v 0.932617 h -0.0488 q -0.13672,-0.07324 -0.41504,-0.136719 -0.27344,-0.06836 -0.56152,-0.06836 -1.04981,0 -1.67481,0.65918 -0.625,0.654297 -0.72754,1.772461 0.41016,-0.249024 0.80567,-0.375977 0.40039,-0.131836 0.92285,-0.131836 0.46387,0 0.81543,0.08789 0.35644,0.08301 0.72754,0.341797 0.42968,0.297851 0.64453,0.751953 0.21972,0.454101 0.21972,1.103515 z m -0.99121,0.03906 q 0,-0.454102 -0.13672,-0.751953 -0.13183,-0.297852 -0.43945,-0.517578 -0.22461,-0.15625 -0.49805,-0.205079 -0.27343,-0.04883 -0.57128,-0.04883 -0.41504,0 -0.77149,0.09766 -0.35644,0.09766 -0.73242,0.302734 -0.01,0.107422 -0.0146,0.209961 -0.005,0.09766 -0.005,0.249023 0,0.771485 0.15625,1.220703 0.16113,0.444336 0.43945,0.703125 0.22461,0.214844 0.4834,0.317383 0.26367,0.09766 0.57129,0.09766 0.70801,0 1.11328,-0.429688 0.40527,-0.43457 0.40527,-1.245117 z"
         id="path18903" />
    </g>
  </g>
</svg>
