<?xml version="1.0" encoding="UTF-8" standalone="no"?>
<!-- Created with Inkscape (http://www.inkscape.org/) -->

<svg
   width="110.6495mm"
   height="156.7233mm"
   viewBox="0 0 110.6495 156.7233"
   version="1.1"
   id="svg5"
   xmlns="http://www.w3.org/2000/svg"
   xmlns:svg="http://www.w3.org/2000/svg">
  <defs
     id="defs2" />
  <g
     id="g78258">
    <rect
       style="fill:none;stroke:#000000;stroke-width:0.530001;stroke-miterlimit:4;stroke-dasharray:none;stroke-opacity:1"
       id="rect846"
       width="87.470001"
       height="145.47"
       x="11.71241"
       y="-6.458293" />
    <path
       id="connector25pin"
       gorn="0.3.0.0.0.26"
       stroke-width="0.276813"
       style="opacity:0.998;paint-order:markers fill stroke"
       d="M 99.084513,85.058262 H 110.6495 v 0.999996 H 99.084513 Z" />
    <path
       id="connector30pin"
       gorn="0.3.0.0.0.26"
       stroke-width="0.276813"
       style="opacity:0.998;paint-order:markers fill stroke"
       d="M 99.084513,122.84428 H 110.6495 v 1 H 99.084513 Z" />
    <path
       id="connector23pin"
       gorn="0.3.0.0.0.26"
       stroke-width="0.276813"
       style="opacity:0.998;paint-order:markers fill stroke"
       d="M 99.084513,69.943859 H 110.6495 v 1 H 99.084513 Z" />
    <path
       id="connector26pin"
       gorn="0.3.0.0.0.26"
       stroke-width="0.276813"
       style="opacity:0.998;paint-order:markers fill stroke"
       d="M 99.084513,92.615466 H 110.6495 v 1 H 99.084513 Z" />
    <path
       id="connector24pin"
       gorn="0.3.0.0.0.26"
       stroke-width="0.276813"
       style="opacity:0.998;paint-order:markers fill stroke"
       d="M 99.084513,77.501053 H 110.6495 v 1 H 99.084513 Z" />
    <path
       id="connector18pin"
       gorn="0.3.0.0.0.26"
       stroke-width="0.276813"
       style="opacity:0.998;paint-order:markers fill stroke"
       d="M 99.084513,32.157837 H 110.6495 v 1 H 99.084513 Z" />
    <path
       id="connector17pin"
       gorn="0.3.0.0.0.26"
       stroke-width="0.276813"
       style="opacity:0.998;paint-order:markers fill stroke"
       d="M 99.084513,24.600633 H 110.6495 v 1 H 99.084513 Z" />
    <path
       id="connector19pin"
       gorn="0.3.0.0.0.26"
       stroke-width="0.276813"
       style="opacity:0.998;paint-order:markers fill stroke"
       d="M 99.084513,39.71504 H 110.6495 v 1 H 99.084513 Z" />
    <path
       id="connector22pin"
       gorn="0.3.0.0.0.26"
       stroke-width="0.276813"
       style="opacity:0.998;paint-order:markers fill stroke"
       d="M 99.084513,62.38665 H 110.6495 v 1 H 99.084513 Z" />
    <path
       id="connector29pin"
       gorn="0.3.0.0.0.26"
       stroke-width="0.276813"
       style="opacity:0.998;paint-order:markers fill stroke"
       d="M 99.084513,115.28707 H 110.6495 v 1 H 99.084513 Z" />
    <path
       id="connector28pin"
       gorn="0.3.0.0.0.26"
       stroke-width="0.276813"
       style="opacity:0.998;paint-order:markers fill stroke"
       d="M 99.084513,107.72987 H 110.6495 v 1 H 99.084513 Z" />
    <path
       id="connector27pin"
       gorn="0.3.0.0.0.26"
       stroke-width="0.276813"
       style="opacity:0.998;paint-order:markers fill stroke"
       d="M 99.084513,100.17267 H 110.6495 v 1 H 99.084513 Z" />
    <path
       id="connector21pin"
       gorn="0.3.0.0.0.26"
       stroke-width="0.276813"
       style="opacity:0.998;paint-order:markers fill stroke"
       d="M 99.084513,54.829448 H 110.6495 v 1 H 99.084513 Z" />
    <path
       id="connector20pin"
       gorn="0.3.0.0.0.26"
       stroke-width="0.276813"
       style="opacity:0.998;paint-order:markers fill stroke"
       d="M 99.084513,47.272246 H 110.6495 v 1 H 99.084513 Z" />
    <path
       id="connector1pin"
       gorn="0.3.0.0.0.26"
       stroke-width="0.276813"
       style="opacity:0.998;paint-order:markers fill stroke"
       d="m 0,17.043196 h 11.56499 v 1 H 0 Z" />
    <path
       id="connector15pin"
       gorn="0.3.0.0.0.26"
       stroke-width="0.276813"
       style="opacity:0.998;paint-order:markers fill stroke"
       d="m 0,122.84404 h 11.56499 v 1 H 0 Z" />
    <path
       id="connector8pin"
       gorn="0.3.0.0.0.26"
       stroke-width="0.276813"
       style="opacity:0.998;paint-order:markers fill stroke"
       d="m 0,69.943616 h 11.56499 v 1 H 0 Z" />
    <path
       id="connector9pin"
       gorn="0.3.0.0.0.26"
       stroke-width="0.276813"
       style="opacity:0.998;paint-order:markers fill stroke"
       d="m 0,77.500826 h 11.56499 v 1 H 0 Z" />
    <path
       id="connector11pin"
       gorn="0.3.0.0.0.26"
       stroke-width="0.276813"
       style="opacity:0.998;paint-order:markers fill stroke"
       d="m 0,92.615236 h 11.56499 v 1 H 0 Z" />
    <path
       id="connector3pin"
       gorn="0.3.0.0.0.26"
       stroke-width="0.276813"
       style="opacity:0.998;paint-order:markers fill stroke"
       d="m 0,32.157605 h 11.56499 v 1 H 0 Z" />
    <path
       id="connector2pin"
       gorn="0.3.0.0.0.26"
       stroke-width="0.276813"
       style="opacity:0.998;paint-order:markers fill stroke"
       d="m 0,24.600399 h 11.56499 v 1 H 0 Z" />
    <path
       id="connector10pin"
       gorn="0.3.0.0.0.26"
       stroke-width="0.276813"
       style="opacity:0.998;paint-order:markers fill stroke"
       d="m 0,85.058036 h 11.56499 v 1 H 0 Z" />
    <path
       id="connector7pin"
       gorn="0.3.0.0.0.26"
       stroke-width="0.276813"
       style="opacity:0.998;paint-order:markers fill stroke"
       d="m 0,62.386416 h 11.56499 v 1 H 0 Z" />
    <path
       id="connector4pin"
       gorn="0.3.0.0.0.26"
       stroke-width="0.276813"
       style="opacity:0.998;paint-order:markers fill stroke"
       d="m 0,39.714806 h 11.56499 v 1 H 0 Z" />
    <path
       id="connector14pin"
       gorn="0.3.0.0.0.26"
       stroke-width="0.276813"
       style="opacity:0.998;paint-order:markers fill stroke"
       d="m 0,115.28684 h 11.56499 v 1 H 0 Z" />
    <path
       id="connector13pin"
       gorn="0.3.0.0.0.26"
       stroke-width="0.276813"
       style="opacity:0.998;paint-order:markers fill stroke"
       d="m 0,107.72964 h 11.56499 v 1 H 0 Z" />
    <path
       id="connector6pin"
       gorn="0.3.0.0.0.26"
       stroke-width="0.276813"
       style="opacity:0.998;paint-order:markers fill stroke"
       d="m 0,54.829216 h 11.56499 v 1 H 0 Z" />
    <path
       id="connector12pin"
       gorn="0.3.0.0.0.26"
       stroke-width="0.276813"
       style="opacity:0.998;paint-order:markers fill stroke"
       d="m 0,100.17244 h 11.56499 v 1 H 0 Z" />
    <path
       id="connector5pin"
       gorn="0.3.0.0.0.26"
       stroke-width="0.276813"
       style="opacity:0.998;paint-order:markers fill stroke"
       d="m 0,47.272016 h 11.56499 v 1 H 0 Z" />
    <path
       d="m 60.312732,4.9883762 q 0,0.5736066 -0.21704,1.0128549 -0.217041,0.4392482 -0.583942,0.7234677 -0.434081,0.3410634 -0.956011,0.4857569 -0.516763,0.1446936 -1.317745,0.1446936 H 54.509487 V -0.339447 h 2.278923 q 0.842324,0 1.260901,0.0620115 0.418578,0.0620115 0.800983,0.25838134 0.423745,0.22220795 0.614947,0.57360657 0.191202,0.346231 0.191202,0.83198787 0,0.5477685 -0.279052,0.9353405 -0.279051,0.3824044 -0.744138,0.6149476 v 0.041341 q 0.780312,0.1601964 1.229895,0.6872944 0.449584,0.5219303 0.449584,1.3229124 z m -1.72082,-3.4674776 q 0,-0.2790518 -0.09302,-0.470254 Q 58.405878,0.85944241 58.199173,0.740587 57.956294,0.60106107 57.610063,0.57005531 57.263832,0.53388193 56.752237,0.53388193 h -1.21956 V 2.7559614 h 1.322913 q 0.480589,0 0.764808,-0.046509 0.28422,-0.051676 0.527098,-0.2067051 0.242879,-0.1550288 0.341064,-0.3979072 0.103352,-0.2480461 0.103352,-0.5839419 z m 0.656289,3.5088186 q 0,-0.4650864 -0.139526,-0.7389706 Q 58.969149,4.0168624 58.602247,3.8256602 58.354201,3.6964695 57.997635,3.6602961 57.646236,3.6189551 57.139809,3.6189551 h -1.607132 v 2.8628652 h 1.353918 q 0.671792,0 1.100705,-0.067179 0.428913,-0.072347 0.702797,-0.2583813 0.289387,-0.2015375 0.423745,-0.4599188 0.134359,-0.2583814 0.134359,-0.6666239 z"
       id="path73789" />
    <path
       d="m 66.772266,7.3551493 h -5.208968 v -1.080034 q 0.542601,-0.4650864 1.085201,-0.9301728 0.547769,-0.4650865 1.018023,-0.9250052 0.992184,-0.9611786 1.359086,-1.5244499 0.366901,-0.568439 0.366901,-1.2247276 0,-0.5994447 -0.397907,-0.93534043 Q 64.601862,0.394356 63.893897,0.394356 q -0.470254,0 -1.018022,0.16536406 -0.547768,0.16536406 -1.069699,0.50642744 H 61.7545 v -1.08520164 q 0.366901,-0.18086694 0.976681,-0.33072811 0.614948,-0.14986118 1.188555,-0.14986118 1.183386,0 1.855178,0.57360657 0.671791,0.56843895 0.671791,1.54512036 0,0.4392483 -0.113688,0.8216527 -0.10852,0.3772368 -0.32556,0.7183001 Q 65.805919,3.4794292 65.532035,3.7894868 65.263319,4.0995444 64.875747,4.4767812 64.32281,5.019382 63.733701,5.530977 63.144592,6.0374044 62.632997,6.4714851 h 4.139269 z"
       id="path73791" />
    <path
       d="m 73.438505,4.9108618 q 0,0.5374332 -0.19637,1.0283577 -0.19637,0.4909246 -0.537433,0.8268203 -0.37207,0.3617339 -0.888832,0.5581037 -0.511595,0.1912022 -1.188554,0.1912022 -0.630451,0 -1.214393,-0.1343583 Q 68.828981,7.2517967 68.425907,7.0657622 V 5.9753929 h 0.07235 q 0.423746,0.2687166 0.992185,0.4599188 0.568439,0.1860346 1.116207,0.1860346 0.366902,0 0.707965,-0.1033526 0.346231,-0.1033525 0.614948,-0.3617338 0.227375,-0.222208 0.341063,-0.5322656 0.118855,-0.3100576 0.118855,-0.7183001 0,-0.3979073 -0.139526,-0.6717915 -0.134358,-0.2738842 -0.377236,-0.4392483 -0.268717,-0.1963698 -0.656289,-0.2738842 -0.382404,-0.082682 -0.857826,-0.082682 -0.454751,0 -0.878497,0.062011 -0.418577,0.062012 -0.723467,0.124023 V -0.339447 h 4.630193 V 0.56488769 H 69.753987 V 2.6112679 q 0.222208,-0.020671 0.454751,-0.031006 0.232543,-0.010335 0.403075,-0.010335 0.625283,0 1.095537,0.1085201 0.470254,0.1033526 0.862993,0.3720692 0.41341,0.2842194 0.640786,0.733803 0.227376,0.4495835 0.227376,1.1265426 z"
       id="path73793" />
    <path
       d="m 52.442436,7.3551493 h -1.02319 V 0.72508412 L 49.279849,5.2364223 h -0.60978 L 46.546174,0.72508412 V 7.3551493 H 45.590163 V -0.339447 h 1.395259 l 2.051548,4.2839626 1.984369,-4.2839626 h 1.421097 z"
       id="path73787" />
    <path
       d="m 95.68475,17.544851 q 0,0.576967 -0.252956,1.04593 -0.250114,0.468963 -0.667918,0.727604 -0.289904,0.179058 -0.648022,0.25864 -0.355275,0.07958 -0.937926,0.07958 H 92.10926 v -4.232039 h 1.057299 q 0.6196,0 0.983402,0.09095 0.366644,0.08811 0.6196,0.24443 0.432014,0.270009 0.673602,0.719077 0.241587,0.449068 0.241587,1.065826 z m -0.588336,-0.0085 q 0,-0.497385 -0.173374,-0.83845 -0.173375,-0.341064 -0.517281,-0.537176 -0.250114,-0.14211 -0.531492,-0.196112 -0.281378,-0.05684 -0.673602,-0.05684 h -0.528649 v 3.26569 h 0.528649 q 0.406435,0 0.707709,-0.05969 0.304115,-0.05969 0.557071,-0.221692 0.315485,-0.201796 0.471806,-0.531491 0.159163,-0.329696 0.159163,-0.824239 z"
       id="path74586" />
    <path
       d="M 44.42228,7.3551493 H 43.33191 L 42.577437,5.2105842 h -3.327952 l -0.754473,2.1445651 h -1.038693 l 2.800853,-7.6945963 h 1.364254 z M 42.262212,4.3320876 40.913461,0.55455243 39.559543,4.3320876 Z"
       id="path73785" />
    <path
       d="m 90.983748,19.656607 h -0.69634 l -2.006594,-3.785814 v 3.785814 h -0.525808 v -4.232039 h 0.872556 l 1.830378,3.456118 v -3.456118 h 0.525808 z"
       id="path74584" />
    <path
       d="m 86.771605,19.343964 q -0.346749,0.159164 -0.758868,0.278536 -0.409278,0.116531 -0.792975,0.116531 -0.494543,0 -0.906662,-0.136426 -0.41212,-0.136426 -0.702024,-0.409277 -0.292747,-0.275694 -0.45191,-0.687813 -0.159164,-0.414962 -0.159164,-0.969191 0,-1.014666 0.591178,-1.60016 0.594021,-0.588336 1.628582,-0.588336 0.36096,0 0.736131,0.08811 0.378012,0.08527 0.812869,0.292746 v 0.667918 h -0.05116 q -0.08811,-0.06821 -0.255799,-0.179059 -0.167689,-0.110846 -0.329695,-0.184743 -0.196112,-0.08811 -0.446226,-0.144952 -0.247271,-0.05969 -0.562756,-0.05969 -0.71055,0 -1.125512,0.457595 -0.412119,0.454752 -0.412119,1.233516 0,0.821396 0.432015,1.278991 0.432014,0.454752 1.176671,0.454752 0.272852,0 0.542861,-0.054 0.272851,-0.054 0.47749,-0.139268 V 18.02234 h -1.134039 v -0.494543 h 1.691111 z"
       id="path74582" />
    <path
       d="m 28.684748,17.544618 q 0,0.576967 -0.252956,1.04593 -0.250114,0.468964 -0.667918,0.727604 -0.289904,0.179059 -0.648022,0.25864 -0.355275,0.07958 -0.937926,0.07958 h -1.068668 v -4.232039 h 1.057299 q 0.6196,0 0.983402,0.09095 0.366644,0.08811 0.6196,0.244429 0.432015,0.270009 0.673602,0.719077 0.241587,0.449068 0.241587,1.065826 z m -0.588336,-0.0085 q 0,-0.497385 -0.173374,-0.838449 -0.173375,-0.341065 -0.517281,-0.537177 -0.250114,-0.14211 -0.531492,-0.196112 -0.281378,-0.05684 -0.673602,-0.05684 H 25.672014 V 19.1732 h 0.528649 q 0.406435,0 0.707709,-0.05969 0.304115,-0.05969 0.557071,-0.221691 0.315485,-0.201797 0.471806,-0.531492 0.159163,-0.329696 0.159163,-0.824239 z"
       id="path74553" />
    <path
       d="m 23.983746,19.656374 h -0.69634 l -2.006594,-3.785813 v 3.785813 h -0.525808 v -4.232039 h 0.872556 l 1.830379,3.456118 v -3.456118 h 0.525807 z"
       id="path74551" />
    <path
       d="m 19.771603,19.343732 q -0.346749,0.159163 -0.758868,0.278536 -0.409277,0.11653 -0.792975,0.11653 -0.494543,0 -0.906662,-0.136426 -0.412119,-0.136426 -0.702024,-0.409277 -0.292747,-0.275694 -0.45191,-0.687813 Q 16,18.090321 16,17.536091 q 0,-1.014666 0.591178,-1.60016 0.594021,-0.588335 1.628582,-0.588335 0.36096,0 0.736131,0.08811 0.378012,0.08527 0.812869,0.292747 v 0.667917 h -0.05116 q -0.08811,-0.06821 -0.255798,-0.179059 -0.16769,-0.110845 -0.329696,-0.184743 -0.196112,-0.08811 -0.446226,-0.144952 -0.247271,-0.05969 -0.562756,-0.05969 -0.71055,0 -1.125512,0.457594 -0.412119,0.454753 -0.412119,1.233516 0,0.821396 0.432015,1.278991 0.432015,0.454752 1.176671,0.454752 0.272852,0 0.542861,-0.054 0.272851,-0.054 0.47749,-0.139267 v -1.037404 h -1.134039 v -0.494543 h 1.691111 z"
       id="path74549" />
    <path
       d="M 22.704755,27.17947 H 22.10505 l -0.414961,-1.179514 h -1.830378 l -0.414962,1.179514 h -0.571283 l 1.540474,-4.232039 h 0.750341 z m -1.188041,-1.662688 -0.741814,-2.07765 -0.744657,2.07765 z"
       id="path74591" />
    <path
       d="m 29.767627,25.835108 q 0,0.295589 -0.108003,0.565599 -0.108004,0.270009 -0.295589,0.454752 -0.204639,0.198954 -0.488859,0.306958 -0.281378,0.105161 -0.653707,0.105161 -0.346748,0 -0.667917,-0.0739 -0.321169,-0.07106 -0.542861,-0.173374 v -0.599705 h 0.03979 q 0.233061,0.147795 0.545703,0.252956 0.312642,0.102319 0.613915,0.102319 0.201797,0 0.389382,-0.05684 0.190428,-0.05684 0.338222,-0.198954 0.125057,-0.122215 0.187586,-0.292747 0.06537,-0.170532 0.06537,-0.395066 0,-0.218849 -0.07674,-0.369486 -0.0739,-0.150637 -0.207481,-0.241587 -0.147795,-0.108004 -0.36096,-0.150637 -0.210323,-0.04547 -0.471805,-0.04547 -0.250114,0 -0.483175,0.03411 -0.230218,0.03411 -0.397908,0.06821 v -2.179969 h 2.546613 v 0.497386 h -1.998068 v 1.125512 q 0.122215,-0.01137 0.250114,-0.01705 0.127899,-0.0057 0.221692,-0.0057 0.343906,0 0.602547,0.05969 0.25864,0.05684 0.474647,0.204639 0.227376,0.156321 0.352433,0.403592 0.125057,0.247272 0.125057,0.6196 z"
       id="path74595" />
    <path
       d="m 25.859599,27.17947 h -2.290815 v -0.432015 h 0.881083 v -2.836517 h -0.881083 v -0.38654 q 0.179059,0 0.383698,-0.02842 0.204638,-0.03126 0.3098,-0.08811 0.130741,-0.07106 0.204638,-0.179059 0.07674,-0.110846 0.08811,-0.295589 h 0.440542 v 3.814235 h 0.864029 z"
       id="path74593" />
    <path
       d="m 95.68475,25.102054 q 0,0.576967 -0.252956,1.04593 -0.250114,0.468964 -0.667918,0.727604 -0.289904,0.179059 -0.648022,0.25864 -0.355275,0.07958 -0.937926,0.07958 H 92.10926 v -4.232039 h 1.057299 q 0.6196,0 0.983402,0.09095 0.366644,0.08811 0.6196,0.244429 0.432014,0.270009 0.673602,0.719077 0.241587,0.449068 0.241587,1.065826 z m -0.588336,-0.0085 q 0,-0.497385 -0.173374,-0.838449 -0.173375,-0.341065 -0.517281,-0.537177 -0.250114,-0.14211 -0.531492,-0.196112 -0.281378,-0.05684 -0.673602,-0.05684 h -0.528649 v 3.265691 h 0.528649 q 0.406435,0 0.707709,-0.05969 0.304115,-0.05969 0.557071,-0.221691 0.315485,-0.201797 0.471806,-0.531492 0.159163,-0.329696 0.159163,-0.824239 z"
       id="path74602" />
    <path
       d="m 18.768305,24.226422 q 0,0.281378 -0.09948,0.522965 -0.09664,0.238745 -0.272852,0.414962 -0.218849,0.218849 -0.51728,0.329695 -0.298432,0.108004 -0.753184,0.108004 H 16.562756 V 27.17947 H 16 v -4.232039 h 1.14825 q 0.380855,0 0.645179,0.06537 0.264325,0.06253 0.468964,0.198954 0.241587,0.162005 0.372328,0.403593 0.133584,0.241587 0.133584,0.611073 z m -0.585494,0.01421 q 0,-0.218849 -0.07674,-0.380855 -0.07674,-0.162005 -0.233061,-0.264325 -0.136426,-0.08811 -0.312642,-0.125057 -0.173374,-0.03979 -0.440541,-0.03979 h -0.557072 v 1.69111 h 0.474648 q 0.341064,0 0.554229,-0.05969 0.213165,-0.06253 0.346749,-0.196112 0.133583,-0.136426 0.187585,-0.287063 0.05684,-0.150637 0.05684,-0.338222 z"
       id="path74589" />
    <path
       d="m 90.983748,27.21381 h -0.69634 l -2.006594,-3.785813 v 3.785813 h -0.525808 v -4.232039 h 0.872556 l 1.830378,3.456118 v -3.456118 h 0.525808 z"
       id="path74600" />
    <path
       d="m 86.771605,26.901168 q -0.346749,0.159163 -0.758868,0.278536 -0.409278,0.11653 -0.792975,0.11653 -0.494543,0 -0.906662,-0.136426 -0.41212,-0.136426 -0.702024,-0.409277 -0.292747,-0.275694 -0.45191,-0.687813 -0.159164,-0.414961 -0.159164,-0.969191 0,-1.014666 0.591178,-1.60016 0.594021,-0.588335 1.628582,-0.588335 0.36096,0 0.736131,0.08811 0.378012,0.08527 0.812869,0.292747 v 0.667917 h -0.05116 q -0.08811,-0.06821 -0.255799,-0.179059 -0.167689,-0.110845 -0.329695,-0.184743 -0.196112,-0.08811 -0.446226,-0.144952 -0.247271,-0.05969 -0.562756,-0.05969 -0.71055,0 -1.125512,0.457594 -0.412119,0.454753 -0.412119,1.233516 0,0.821396 0.432015,1.278991 0.432014,0.454752 1.176671,0.454752 0.272852,0 0.542861,-0.054 0.272851,-0.054 0.47749,-0.139267 v -1.037404 h -1.134039 v -0.494543 h 1.691111 z"
       id="path74598" />
    <path
       d="m 95.684752,30.541818 -1.540473,4.232039 h -0.750341 l -1.540474,-4.232039 h 0.602547 l 1.327308,3.723285 1.327309,-3.723285 z"
       id="path74611" />
    <path
       d="m 91.029225,32.735998 q 0.136426,0.122215 0.224534,0.306958 0.08811,0.184743 0.08811,0.47749 0,0.289905 -0.105162,0.531492 -0.105161,0.241587 -0.295589,0.420646 -0.213165,0.198954 -0.50307,0.295589 -0.287062,0.09379 -0.630969,0.09379 -0.352433,0 -0.693497,-0.08527 -0.341064,-0.08242 -0.559914,-0.181901 v -0.59402 h 0.04263 q 0.241588,0.159163 0.568441,0.264325 0.326853,0.105161 0.630969,0.105161 0.179058,0 0.380855,-0.05969 0.201796,-0.05969 0.326853,-0.176216 0.130741,-0.125057 0.19327,-0.275694 0.06537,-0.150637 0.06537,-0.380855 0,-0.227376 -0.0739,-0.375171 -0.07105,-0.150636 -0.198954,-0.235902 -0.127899,-0.08811 -0.3098,-0.119373 -0.181901,-0.03411 -0.392224,-0.03411 h -0.255798 v -0.471806 h 0.198954 q 0.432015,0 0.687813,-0.179059 0.25864,-0.181901 0.25864,-0.528649 0,-0.153479 -0.06537,-0.267167 -0.06537,-0.116531 -0.181901,-0.190428 -0.122215,-0.0739 -0.261483,-0.102319 -0.139268,-0.02842 -0.315484,-0.02842 -0.27001,0 -0.574125,0.09663 -0.304116,0.09663 -0.574125,0.272851 h -0.02842 v -0.59402 q 0.201796,-0.09948 0.537176,-0.181901 0.338222,-0.08527 0.653707,-0.08527 0.3098,0 0.545702,0.05684 0.235903,0.05684 0.426331,0.181901 0.204638,0.136426 0.3098,0.329695 0.105161,0.19327 0.105161,0.45191 0,0.352434 -0.250114,0.616758 -0.247271,0.261483 -0.585493,0.329696 v 0.03979 q 0.136426,0.02274 0.312642,0.09663 0.176217,0.07106 0.298431,0.179059 z"
       id="path74609" />
    <path
       d="M 87.359943,34.773857 H 86.680656 V 33.96383 h 0.679287 z"
       id="path74607" />
    <path
       d="m 85.211238,32.735998 q 0.136426,0.122215 0.224534,0.306958 0.08811,0.184743 0.08811,0.47749 0,0.289905 -0.105161,0.531492 -0.105162,0.241587 -0.295589,0.420646 -0.213166,0.198954 -0.50307,0.295589 -0.287063,0.09379 -0.630969,0.09379 -0.352433,0 -0.693497,-0.08527 -0.341065,-0.08242 -0.559914,-0.181901 v -0.59402 h 0.04263 q 0.241587,0.159163 0.56844,0.264325 0.326854,0.105161 0.630969,0.105161 0.179059,0 0.380855,-0.05969 0.201797,-0.05969 0.326853,-0.176216 0.130742,-0.125057 0.19327,-0.275694 0.06537,-0.150637 0.06537,-0.380855 0,-0.227376 -0.0739,-0.375171 -0.07106,-0.150636 -0.198955,-0.235902 -0.127899,-0.08811 -0.3098,-0.119373 -0.1819,-0.03411 -0.392223,-0.03411 h -0.255799 v -0.471806 h 0.198955 q 0.432014,0 0.687812,-0.179059 0.258641,-0.181901 0.258641,-0.528649 0,-0.153479 -0.06537,-0.267167 -0.06537,-0.116531 -0.181901,-0.190428 -0.122214,-0.0739 -0.261482,-0.102319 -0.139268,-0.02842 -0.315485,-0.02842 -0.270009,0 -0.574125,0.09663 -0.304115,0.09663 -0.574124,0.272851 h -0.02842 v -0.59402 q 0.201796,-0.09948 0.537176,-0.181901 0.338222,-0.08527 0.653706,-0.08527 0.3098,0 0.545703,0.05684 0.235903,0.05684 0.42633,0.181901 0.204639,0.136426 0.3098,0.329695 0.105162,0.19327 0.105162,0.45191 0,0.352434 -0.250114,0.616758 -0.247272,0.261483 -0.585494,0.329696 v 0.03979 q 0.136426,0.02274 0.312643,0.09663 0.176216,0.07106 0.298431,0.179059 z"
       id="path74605" />
    <path
       d="M 95.68475,41.9431 H 94.98841 L 92.981815,38.157287 V 41.9431 h -0.525807 v -4.232039 h 0.872556 l 1.830378,3.456118 v -3.456118 h 0.525808 z"
       id="path74626" />
    <path
       d="m 91.563557,41.9431 h -2.7882 v -4.232039 h 2.7882 v 0.500228 h -2.225444 v 1.159618 h 2.225444 v 0.500228 h -2.225444 v 1.571737 h 2.225444 z"
       id="path74624" />
    <path
       d="M 88.218285,42.795761 H 84.495 v -0.341065 h 3.723285 z"
       id="path74622" />
    <path
       d="m 84.332994,38.990052 q 0,0.281378 -0.09948,0.522965 -0.09663,0.238745 -0.272851,0.414962 -0.21885,0.218849 -0.517281,0.329695 -0.298431,0.108004 -0.753183,0.108004 H 82.127446 V 41.9431 H 81.56469 v -4.232039 h 1.148249 q 0.380855,0 0.64518,0.06537 0.264325,0.06253 0.468963,0.198954 0.241588,0.162005 0.372329,0.403593 0.133583,0.241587 0.133583,0.611073 z m -0.585493,0.01421 q 0,-0.21885 -0.07674,-0.380855 -0.07674,-0.162006 -0.23306,-0.264325 -0.136426,-0.08811 -0.312642,-0.125057 -0.173375,-0.03979 -0.440542,-0.03979 h -0.557071 v 1.691111 h 0.474647 q 0.341065,0 0.55423,-0.05969 0.213165,-0.06253 0.346748,-0.196112 0.133584,-0.136425 0.187586,-0.287062 0.05684,-0.150637 0.05684,-0.338222 z"
       id="path74620" />
    <path
       d="m 80.606867,41.9431 h -1.671215 v -0.432015 h 0.554229 v -3.368009 h -0.554229 v -0.432015 h 1.671215 v 0.432015 h -0.55423 v 3.368009 h 0.55423 z"
       id="path74618" />
    <path
       d="M 77.977831,41.9431 H 77.415075 V 39.871135 H 75.303318 V 41.9431 h -0.562756 v -4.232039 h 0.562756 v 1.659846 h 2.111757 v -1.659846 h 0.562756 z"
       id="path74616" />
    <path
       d="m 73.944746,41.636142 q -0.156321,0.06821 -0.284221,0.127899 -0.125056,0.05969 -0.329695,0.125057 -0.173374,0.054 -0.378013,0.09095 -0.201796,0.03979 -0.446226,0.03979 -0.460436,0 -0.838449,-0.127899 -0.375171,-0.130741 -0.653707,-0.406435 -0.272851,-0.270009 -0.42633,-0.68497 -0.153479,-0.417804 -0.153479,-0.969191 0,-0.522965 0.147795,-0.935085 0.147794,-0.412119 0.42633,-0.696339 0.270009,-0.275694 0.650864,-0.420646 0.383697,-0.144952 0.849819,-0.144952 0.341064,0 0.679286,0.08242 0.341064,0.08242 0.756026,0.289905 v 0.667918 h -0.04263 q -0.349591,-0.292747 -0.693498,-0.426331 -0.343906,-0.133583 -0.73613,-0.133583 -0.321169,0 -0.579809,0.105161 -0.255798,0.10232 -0.457595,0.321169 -0.196112,0.213165 -0.306958,0.540018 -0.108003,0.324012 -0.108003,0.750342 0,0.446226 0.119372,0.767394 0.122215,0.321169 0.312642,0.522966 0.198955,0.210323 0.463279,0.312642 0.267167,0.09948 0.562756,0.09948 0.406435,0 0.761711,-0.139268 0.355275,-0.139268 0.665075,-0.417804 h 0.03979 z"
       id="path74614" />
    <path
       d="m 61.620956,46.142241 q 0.258641,0.284221 0.395066,0.69634 0.139268,0.412119 0.139268,0.935084 0,0.522966 -0.14211,0.937927 -0.139268,0.412119 -0.392224,0.687813 -0.261482,0.287062 -0.6196,0.432015 -0.355275,0.144952 -0.81287,0.144952 -0.446225,0 -0.812869,-0.147795 -0.363802,-0.147794 -0.619601,-0.429172 -0.255798,-0.281378 -0.395066,-0.690655 -0.136425,-0.409277 -0.136425,-0.935085 0,-0.51728 0.136425,-0.926558 0.136426,-0.412119 0.397909,-0.704866 0.250113,-0.278535 0.6196,-0.42633 0.372328,-0.147794 0.810027,-0.147794 0.454753,0 0.815712,0.150636 0.363802,0.147795 0.616758,0.423488 z m -0.05116,1.631424 q 0,-0.824238 -0.369487,-1.270464 -0.369486,-0.449068 -1.008981,-0.449068 -0.64518,0 -1.014667,0.449068 -0.366644,0.446226 -0.366644,1.270464 0,0.832766 0.375171,1.276149 0.375171,0.440541 1.00614,0.440541 0.630968,0 1.003297,-0.440541 0.375171,-0.443383 0.375171,-1.276149 z"
       id="path75418" />
    <path
       d="M 70.704634,50.740924 H 66.981349 V 50.39986 h 3.723285 z"
       id="path75412" />
    <path
       d="m 74.280124,46.156452 h -1.512052 v 3.731812 h -0.562756 v -3.731812 h -1.512051 v -0.500227 h 3.586859 z"
       id="path75409" />
    <path
       d="m 78.077307,45.656225 -1.460892,2.091861 1.458049,2.140178 H 77.4236 l -1.153934,-1.74227 -1.182356,1.74227 h -0.613916 l 1.475103,-2.114599 -1.440996,-2.11744 h 0.648022 l 1.139723,1.719532 1.165303,-1.719532 z"
       id="path75406" />
    <path
       d="m 82.758413,45.465797 -2.037859,5.286496 h -0.491701 l 2.029333,-5.286496 z"
       id="path75403" />
    <path
       d="m 88.340499,46.935216 q 0,0.281378 -0.09948,0.522965 -0.09664,0.238745 -0.272852,0.414961 -0.218849,0.21885 -0.51728,0.329696 -0.298432,0.108004 -0.753184,0.108004 H 86.13495 v 1.577422 h -0.562756 v -4.232039 h 1.14825 q 0.380855,0 0.64518,0.06537 0.264324,0.06253 0.468963,0.198955 0.241587,0.162005 0.372328,0.403592 0.133584,0.241587 0.133584,0.611074 z m -0.585494,0.01421 q 0,-0.21885 -0.07674,-0.380855 -0.07674,-0.162006 -0.233061,-0.264325 -0.136425,-0.08811 -0.312642,-0.125057 -0.173374,-0.03979 -0.440541,-0.03979 H 86.13495 v 1.69111 h 0.474648 q 0.341064,0 0.554229,-0.05969 0.213165,-0.06253 0.346749,-0.196112 0.133583,-0.136425 0.187585,-0.287062 0.05684,-0.150637 0.05684,-0.338222 z"
       id="path75400" />
    <path
       d="M 92.276947,49.888264 H 91.677242 L 91.262281,48.70875 h -1.830378 l -0.414962,1.179514 h -0.571282 l 1.540473,-4.232039 h 0.750341 z m -1.18804,-1.662689 -0.741815,-2.077649 -0.744657,2.077649 z"
       id="path75397" />
    <path
       d="m 95.684748,46.290036 -1.915644,3.598228 h -0.608231 l 2.037859,-3.734654 h -2.410188 v -0.497385 h 2.896204 z"
       id="path75394" />
    <path
       d="m 66.577757,49.575621 q -0.346749,0.159164 -0.758868,0.278536 -0.409277,0.116531 -0.792974,0.116531 -0.494544,0 -0.906663,-0.136426 -0.412119,-0.136426 -0.702024,-0.409277 -0.292747,-0.275694 -0.45191,-0.687813 -0.159163,-0.414962 -0.159163,-0.969191 0,-1.014666 0.591178,-1.60016 0.59402,-0.588336 1.628582,-0.588336 0.360959,0 0.73613,0.08811 0.378013,0.08527 0.81287,0.292746 v 0.667918 h -0.05116 q -0.08811,-0.06821 -0.255798,-0.179059 -0.16769,-0.110846 -0.329696,-0.184743 -0.196112,-0.08811 -0.446225,-0.144952 -0.247272,-0.05969 -0.562756,-0.05969 -0.710551,0 -1.125512,0.457595 -0.41212,0.454752 -0.41212,1.233516 0,0.821396 0.432015,1.278991 0.432015,0.454752 1.176672,0.454752 0.272851,0 0.54286,-0.054 0.272852,-0.054 0.47749,-0.139268 v -1.037403 h -1.134038 v -0.494544 h 1.69111 z"
       id="path75415" />
    <path
       d="m 57.9602,49.888264 h -2.677355 v -4.232039 h 0.562756 v 3.731811 H 57.9602 Z"
       id="path75421" />
    <path
       d="m 88.320603,54.492421 q 0,0.281378 -0.09948,0.522965 -0.09663,0.238745 -0.272851,0.414962 -0.21885,0.218849 -0.517281,0.329695 -0.298431,0.108004 -0.753183,0.108004 h -0.562756 v 1.577422 H 85.552299 V 53.21343 h 1.148249 q 0.380855,0 0.64518,0.06537 0.264325,0.06253 0.468963,0.198954 0.241588,0.162005 0.372329,0.403592 0.133583,0.241588 0.133583,0.611074 z m -0.585493,0.01421 q 0,-0.21885 -0.07674,-0.380855 -0.07674,-0.162006 -0.23306,-0.264325 -0.136426,-0.08811 -0.312643,-0.125057 -0.173374,-0.03979 -0.440541,-0.03979 h -0.557071 v 1.691111 h 0.474647 q 0.341065,0 0.55423,-0.05969 0.213165,-0.06253 0.346748,-0.196112 0.133584,-0.136425 0.187586,-0.287062 0.05684,-0.150637 0.05684,-0.338222 z"
       id="path74664" />
    <path
       d="m 92.257053,57.445469 h -0.599704 l -0.414962,-1.179514 h -1.830378 l -0.414961,1.179514 h -0.571283 l 1.540473,-4.232039 h 0.750342 z m -1.18804,-1.662688 -0.741815,-2.07765 -0.744657,2.07765 z"
       id="path74666" />
    <path
       d="m 95.68475,56.265955 q 0,0.548545 -0.429172,0.912347 -0.426331,0.363802 -1.074353,0.363802 -0.687813,0 -1.09709,-0.355275 -0.406435,-0.355276 -0.406435,-0.909505 0,-0.352433 0.204639,-0.636653 0.204638,-0.287063 0.576967,-0.454753 v -0.01705 q -0.341064,-0.181901 -0.505912,-0.397908 -0.162006,-0.216008 -0.162006,-0.540019 0,-0.47749 0.392224,-0.795816 0.392224,-0.318327 0.997613,-0.318327 0.633811,0 1.011824,0.304116 0.378013,0.304115 0.378013,0.773079 0,0.287062 -0.179059,0.565598 -0.179058,0.275694 -0.525807,0.432015 v 0.01705 q 0.397908,0.170532 0.608231,0.420646 0.210323,0.250114 0.210323,0.636653 z m -0.673602,-2.066281 q 0,-0.304116 -0.235903,-0.483174 -0.23306,-0.181901 -0.596862,-0.181901 -0.358117,0 -0.588336,0.170532 -0.227376,0.170532 -0.227376,0.460437 0,0.204638 0.113688,0.355275 0.11653,0.147794 0.349591,0.264325 0.105161,0.05116 0.301273,0.133583 0.198955,0.08242 0.38654,0.136426 0.281378,-0.187585 0.389382,-0.389382 0.108003,-0.201796 0.108003,-0.466121 z m 0.08811,2.120283 q 0,-0.261483 -0.116531,-0.417804 -0.113688,-0.159163 -0.449068,-0.318326 -0.133583,-0.06253 -0.292747,-0.116531 -0.159163,-0.054 -0.423488,-0.150636 -0.255798,0.139267 -0.412119,0.378012 -0.153479,0.238745 -0.153479,0.540019 0,0.383697 0.264325,0.633811 0.264325,0.250114 0.67076,0.250114 0.414961,0 0.662233,-0.213165 0.250114,-0.213166 0.250114,-0.585494 z"
       id="path74668" />
    <path
       d="m 82.738518,53.023002 -2.037859,5.286496 h -0.491701 l 2.029332,-5.286496 z"
       id="path74662" />
    <path
       d="m 78.057411,53.21343 -1.460892,2.091861 1.45805,2.140178 h -0.650864 l -1.153934,-1.74227 -1.182356,1.74227 h -0.613916 l 1.475103,-2.114598 -1.440997,-2.117441 h 0.648022 l 1.139723,1.719532 1.165303,-1.719532 z"
       id="path74660" />
    <path
       d="M 74.282967,57.445469 H 73.552521 L 72.137104,55.762885 H 71.34413 v 1.682584 H 70.781374 V 53.21343 h 1.185198 q 0.383698,0 0.639496,0.05116 0.255798,0.04832 0.460436,0.176216 0.230219,0.144952 0.358118,0.366644 0.130741,0.21885 0.130741,0.557072 0,0.457594 -0.230218,0.767394 -0.230219,0.306958 -0.633811,0.463279 z m -1.31594,-3.041156 q 0,-0.181901 -0.06537,-0.321169 -0.06253,-0.14211 -0.210323,-0.238745 -0.122215,-0.08242 -0.289905,-0.113688 -0.16769,-0.03411 -0.395066,-0.03411 H 71.34413 v 1.597318 h 0.56844 q 0.267167,0 0.466122,-0.04548 0.198954,-0.04832 0.338222,-0.176217 0.127899,-0.119372 0.187585,-0.272851 0.06253,-0.156321 0.06253,-0.395066 z"
       id="path74658" />
    <path
       d="m 66.097425,57.132827 q -0.346748,0.159163 -0.758868,0.278535 -0.409277,0.116531 -0.792974,0.116531 -0.494543,0 -0.906662,-0.136426 -0.41212,-0.136426 -0.702024,-0.409277 -0.292747,-0.275694 -0.45191,-0.687813 -0.159164,-0.414961 -0.159164,-0.969191 0,-1.014666 0.591178,-1.60016 0.594021,-0.588335 1.628582,-0.588335 0.36096,0 0.73613,0.08811 0.378013,0.08527 0.81287,0.292747 v 0.667917 h -0.05116 q -0.08811,-0.06821 -0.255799,-0.179059 -0.16769,-0.110846 -0.329695,-0.184743 -0.196112,-0.08811 -0.446226,-0.144952 -0.247271,-0.05969 -0.562756,-0.05969 -0.71055,0 -1.125512,0.457594 -0.412119,0.454753 -0.412119,1.233516 0,0.821396 0.432015,1.278991 0.432014,0.454752 1.176671,0.454752 0.272852,0 0.542861,-0.054 0.272851,-0.054 0.47749,-0.139268 V 55.811203 H 64.406315 V 55.31666 h 1.69111 z"
       id="path74654" />
    <path
       d="m 70.224302,58.29813 h -3.723284 v -0.341065 h 3.723284 z"
       id="path74656" />
    <path
       d="m 61.140625,53.699447 q 0.25864,0.28422 0.395066,0.696339 0.139268,0.412119 0.139268,0.935085 0,0.522965 -0.14211,0.937926 -0.139268,0.41212 -0.392224,0.687813 -0.261483,0.287063 -0.6196,0.432015 -0.355276,0.144952 -0.81287,0.144952 -0.446226,0 -0.81287,-0.147794 -0.363802,-0.147795 -0.6196,-0.429173 -0.255798,-0.281378 -0.395066,-0.690655 -0.136426,-0.409277 -0.136426,-0.935084 0,-0.517281 0.136426,-0.926558 0.136426,-0.41212 0.397908,-0.704866 0.250114,-0.278536 0.6196,-0.426331 0.372329,-0.147794 0.810028,-0.147794 0.454752,0 0.815712,0.150636 0.363802,0.147795 0.616758,0.423489 z m -0.05116,1.631424 q 0,-0.824239 -0.369486,-1.270465 -0.369486,-0.449068 -1.008982,-0.449068 -0.64518,0 -1.014666,0.449068 -0.366644,0.446226 -0.366644,1.270465 0,0.832765 0.375171,1.276148 0.37517,0.440542 1.006139,0.440542 0.630969,0 1.003297,-0.440542 0.375171,-0.443383 0.375171,-1.276148 z"
       id="path74652" />
    <path
       d="M 57.479868,57.445469 H 54.802514 V 53.21343 h 0.562756 v 3.731811 h 2.114598 z"
       id="path74650" />
    <path
       d="m 84.557532,62.049622 q 0,0.281378 -0.09948,0.522966 -0.09664,0.238744 -0.272851,0.414961 -0.21885,0.21885 -0.517281,0.329695 -0.298431,0.108004 -0.753184,0.108004 h -0.562756 v 1.577422 h -0.562756 v -4.232039 h 1.14825 q 0.380855,0 0.64518,0.06537 0.264325,0.06253 0.468963,0.198954 0.241588,0.162006 0.372329,0.403593 0.133583,0.241587 0.133583,0.611073 z m -0.585493,0.01421 q 0,-0.218849 -0.07674,-0.380855 -0.07674,-0.162005 -0.23306,-0.264325 -0.136426,-0.08811 -0.312643,-0.125056 -0.173374,-0.03979 -0.440541,-0.03979 h -0.557072 v 1.69111 h 0.474648 q 0.341064,0 0.55423,-0.05969 0.213165,-0.06253 0.346748,-0.196112 0.133584,-0.136426 0.187586,-0.287063 0.05684,-0.150636 0.05684,-0.338222 z"
       id="path74671" />
    <path
       d="m 88.49114,63.700942 q 0,0.315484 -0.119372,0.557071 -0.119373,0.241588 -0.321169,0.397909 -0.238745,0.187585 -0.525808,0.267167 -0.28422,0.07958 -0.724761,0.07958 h -1.500683 v -4.232039 h 1.253411 q 0.463279,0 0.693498,0.03411 0.230218,0.03411 0.440541,0.14211 0.23306,0.122215 0.338222,0.315484 0.105161,0.190428 0.105161,0.457595 0,0.301273 -0.153478,0.514438 -0.153479,0.210323 -0.409278,0.338223 v 0.02274 q 0.429173,0.08811 0.676445,0.378013 0.247271,0.287062 0.247271,0.727604 z m -0.946453,-1.907118 q 0,-0.153479 -0.05116,-0.25864 -0.05116,-0.105162 -0.164848,-0.170532 -0.133583,-0.07674 -0.324011,-0.09379 -0.190427,-0.01989 -0.471805,-0.01989 h -0.67076 v 1.222146 h 0.727604 q 0.264325,0 0.420646,-0.02558 0.156321,-0.02842 0.289904,-0.113688 0.133584,-0.08527 0.187586,-0.21885 0.05684,-0.136426 0.05684,-0.321169 z m 0.360959,1.929855 q 0,-0.255798 -0.07674,-0.406435 -0.07674,-0.150636 -0.278536,-0.255798 -0.136426,-0.07105 -0.332537,-0.09095 -0.19327,-0.02274 -0.471806,-0.02274 h -0.883925 v 1.57458 h 0.744657 q 0.369486,0 0.605389,-0.03695 0.235903,-0.03979 0.38654,-0.142111 0.159163,-0.110845 0.23306,-0.252956 0.0739,-0.14211 0.0739,-0.366644 z"
       id="path74673" />
    <path
       d="m 92.043893,65.00267 h -2.86494 v -0.59402 q 0.298431,-0.255798 0.596862,-0.511596 0.301274,-0.255799 0.559914,-0.508754 0.545703,-0.52865 0.747499,-0.83845 0.201797,-0.312642 0.201797,-0.673602 0,-0.329695 -0.21885,-0.514439 -0.216007,-0.187585 -0.605389,-0.187585 -0.25864,0 -0.559914,0.09095 -0.301273,0.09095 -0.588336,0.278535 h -0.02842 v -0.596862 q 0.201797,-0.09948 0.537177,-0.181901 0.338222,-0.08242 0.653706,-0.08242 0.650864,0 1.020351,0.315485 0.369486,0.312642 0.369486,0.849818 0,0.241587 -0.06253,0.45191 -0.05969,0.207481 -0.179058,0.395066 -0.110846,0.176217 -0.261483,0.346749 -0.147794,0.170532 -0.36096,0.378013 -0.304115,0.298431 -0.628126,0.579809 -0.324011,0.278536 -0.605389,0.517281 h 2.276604 z"
       id="path74675" />
    <path
       d="m 95.372111,62.964811 q 0.136426,0.122215 0.224534,0.306958 0.08811,0.184743 0.08811,0.47749 0,0.289905 -0.105162,0.531492 -0.105161,0.241587 -0.295589,0.420646 -0.213165,0.198954 -0.50307,0.295589 -0.287062,0.09379 -0.630969,0.09379 -0.352433,0 -0.693497,-0.08527 -0.341064,-0.08242 -0.559914,-0.1819 v -0.594021 h 0.04263 q 0.241587,0.159164 0.568441,0.264325 0.326853,0.105162 0.630969,0.105162 0.179058,0 0.380855,-0.05969 0.201796,-0.05969 0.326853,-0.176216 0.130741,-0.125057 0.19327,-0.275694 0.06537,-0.150636 0.06537,-0.380855 0,-0.227376 -0.0739,-0.375171 -0.07106,-0.150636 -0.198954,-0.235902 -0.127899,-0.08811 -0.3098,-0.119373 -0.181901,-0.03411 -0.392224,-0.03411 h -0.255798 v -0.471806 h 0.198954 q 0.432015,0 0.687813,-0.179059 0.25864,-0.1819 0.25864,-0.528649 0,-0.153479 -0.06537,-0.267167 -0.06537,-0.11653 -0.181901,-0.190428 -0.122215,-0.0739 -0.261483,-0.102319 -0.139268,-0.02842 -0.315484,-0.02842 -0.27001,0 -0.574125,0.09663 -0.304116,0.09663 -0.574125,0.272851 h -0.02842 v -0.59402 q 0.201796,-0.09948 0.537176,-0.181901 0.338222,-0.08527 0.653707,-0.08527 0.3098,0 0.545702,0.05684 0.235903,0.05684 0.426331,0.181901 0.204638,0.136426 0.3098,0.329696 0.105161,0.193269 0.105161,0.45191 0,0.352433 -0.250114,0.616758 -0.247271,0.261482 -0.585493,0.329695 v 0.03979 q 0.136426,0.02274 0.312642,0.09663 0.176217,0.07106 0.298431,0.179058 z"
       id="path74677" />
    <path
       d="m 88.431448,71.302207 q 0,0.315484 -0.119373,0.557071 -0.119372,0.241587 -0.321169,0.397909 -0.238745,0.187585 -0.525807,0.267167 -0.28422,0.07958 -0.724762,0.07958 h -1.500682 v -4.232039 h 1.253411 q 0.463279,0 0.693497,0.03411 0.230219,0.03411 0.440542,0.14211 0.23306,0.122215 0.338222,0.315484 0.105161,0.190428 0.105161,0.457595 0,0.301273 -0.153479,0.514438 -0.153479,0.210323 -0.409277,0.338222 v 0.02274 q 0.429173,0.08811 0.676444,0.378013 0.247272,0.287062 0.247272,0.727604 z m -0.946454,-1.907118 q 0,-0.153479 -0.05116,-0.25864 -0.05116,-0.105162 -0.164848,-0.170532 -0.133583,-0.07674 -0.324011,-0.09379 -0.190428,-0.0199 -0.471806,-0.0199 h -0.670759 v 1.222147 h 0.727604 q 0.264324,0 0.420645,-0.02558 0.156322,-0.02842 0.289905,-0.113689 0.133584,-0.08527 0.187585,-0.218849 0.05684,-0.136426 0.05684,-0.321169 z m 0.36096,1.929855 q 0,-0.255798 -0.07674,-0.406435 -0.07674,-0.150636 -0.278536,-0.255798 -0.136426,-0.07106 -0.332538,-0.09095 -0.19327,-0.02274 -0.471805,-0.02274 h -0.883925 v 1.57458 h 0.744657 q 0.369486,0 0.605389,-0.03695 0.235903,-0.03979 0.386539,-0.14211 0.159164,-0.110846 0.233061,-0.252956 0.0739,-0.14211 0.0739,-0.366644 z"
       id="path74682" />
    <path
       d="m 91.9842,72.603935 h -2.86494 v -0.59402 q 0.298432,-0.255798 0.596863,-0.511596 0.301273,-0.255799 0.559914,-0.508755 0.545703,-0.528649 0.747499,-0.838449 0.201796,-0.312642 0.201796,-0.673602 0,-0.329695 -0.218849,-0.514439 -0.216008,-0.187585 -0.605389,-0.187585 -0.258641,0 -0.559914,0.09095 -0.301274,0.09095 -0.588336,0.278535 h -0.02842 v -0.596862 q 0.201796,-0.09948 0.537176,-0.181901 0.338222,-0.08242 0.653707,-0.08242 0.650864,0 1.02035,0.315485 0.369486,0.312642 0.369486,0.849818 0,0.241587 -0.06253,0.45191 -0.05969,0.207481 -0.179059,0.395066 -0.110846,0.176217 -0.261482,0.346749 -0.147795,0.170532 -0.36096,0.378013 -0.304116,0.298431 -0.628127,0.579809 -0.324011,0.278536 -0.605389,0.517281 H 91.9842 Z"
       id="path74684" />
    <path
       d="m 95.684747,72.603935 h -2.864939 v -0.59402 q 0.298431,-0.255798 0.596862,-0.511596 0.301274,-0.255799 0.559914,-0.508755 0.545703,-0.528649 0.747499,-0.838449 0.201796,-0.312642 0.201796,-0.673602 0,-0.329695 -0.218849,-0.514439 -0.216008,-0.187585 -0.605389,-0.187585 -0.258641,0 -0.559914,0.09095 -0.301273,0.09095 -0.588336,0.278535 h -0.02842 v -0.596862 q 0.201796,-0.09948 0.537176,-0.181901 0.338222,-0.08242 0.653707,-0.08242 0.650864,0 1.02035,0.315485 0.369487,0.312642 0.369487,0.849818 0,0.241587 -0.06253,0.45191 -0.05969,0.207481 -0.179059,0.395066 -0.110845,0.176217 -0.261482,0.346749 -0.147795,0.170532 -0.36096,0.378013 -0.304115,0.298431 -0.628126,0.579809 -0.324011,0.278536 -0.605389,0.517281 h 2.276603 z"
       id="path74686" />
    <path
       d="m 84.49784,69.650887 q 0,0.281378 -0.09948,0.522965 -0.09664,0.238745 -0.272852,0.414962 -0.218849,0.21885 -0.51728,0.329695 -0.298432,0.108004 -0.753184,0.108004 h -0.562756 v 1.577422 h -0.562756 v -4.232039 h 1.14825 q 0.380855,0 0.64518,0.06537 0.264324,0.06253 0.468963,0.198954 0.241587,0.162006 0.372328,0.403593 0.133584,0.241587 0.133584,0.611073 z m -0.585494,0.01421 q 0,-0.218849 -0.07674,-0.380855 -0.07674,-0.162005 -0.233061,-0.264325 -0.136425,-0.08811 -0.312642,-0.125056 -0.173374,-0.03979 -0.440541,-0.03979 h -0.557072 v 1.69111 h 0.474648 q 0.341064,0 0.554229,-0.05969 0.213165,-0.06253 0.346749,-0.196112 0.133583,-0.136426 0.187585,-0.287063 0.05684,-0.150636 0.05684,-0.338222 z"
       id="path74680" />
    <path
       d="m 88.437132,78.816764 q 0,0.315484 -0.119373,0.557071 -0.119372,0.241587 -0.321169,0.397908 -0.238745,0.187586 -0.525807,0.267167 -0.28422,0.07958 -0.724762,0.07958 h -1.500682 v -4.232039 h 1.253411 q 0.463279,0 0.693497,0.03411 0.230218,0.03411 0.440541,0.14211 0.233061,0.122214 0.338222,0.315484 0.105162,0.190428 0.105162,0.457595 0,0.301273 -0.153479,0.514438 -0.153479,0.210323 -0.409277,0.338222 v 0.02274 q 0.429172,0.08811 0.676444,0.378013 0.247272,0.287062 0.247272,0.727604 z m -0.946454,-1.907118 q 0,-0.153479 -0.05116,-0.25864 -0.05116,-0.105162 -0.164848,-0.170533 -0.133584,-0.07674 -0.324011,-0.09379 -0.190428,-0.0199 -0.471806,-0.0199 h -0.670759 v 1.222147 h 0.727603 q 0.264325,0 0.420646,-0.02558 0.156321,-0.02842 0.289905,-0.113688 0.133583,-0.08527 0.187585,-0.218849 0.05684,-0.136426 0.05684,-0.321169 z m 0.36096,1.929855 q 0,-0.255798 -0.07674,-0.406435 -0.07674,-0.150636 -0.278536,-0.255798 -0.136426,-0.07106 -0.332538,-0.09095 -0.19327,-0.02274 -0.471805,-0.02274 h -0.883925 v 1.57458 h 0.744657 q 0.369486,0 0.605389,-0.03695 0.235902,-0.03979 0.386539,-0.14211 0.159163,-0.110846 0.233061,-0.252956 0.0739,-0.14211 0.0739,-0.366644 z"
       id="path74691" />
    <path
       d="m 91.748297,80.118492 h -2.290815 v -0.432015 h 0.881083 V 76.84996 h -0.881083 v -0.38654 q 0.179059,0 0.383697,-0.02842 0.204639,-0.03126 0.3098,-0.08811 0.130742,-0.07106 0.204639,-0.179059 0.07674,-0.110846 0.08811,-0.295589 h 0.440541 v 3.814235 h 0.86403 z"
       id="path74693" />
    <path
       d="m 84.503524,77.165444 q 0,0.281378 -0.09948,0.522965 -0.09664,0.238745 -0.272852,0.414962 -0.218849,0.218849 -0.51728,0.329695 -0.298432,0.108004 -0.753184,0.108004 h -0.562756 v 1.577422 h -0.562756 v -4.232039 h 1.14825 q 0.380855,0 0.645179,0.06537 0.264325,0.06253 0.468964,0.198954 0.241587,0.162006 0.372328,0.403593 0.133584,0.241587 0.133584,0.611073 z m -0.585494,0.01421 q 0,-0.218849 -0.07674,-0.380855 -0.07674,-0.162005 -0.233061,-0.264325 -0.136426,-0.08811 -0.312642,-0.125057 -0.173374,-0.03979 -0.440541,-0.03979 h -0.557072 v 1.69111 h 0.474648 q 0.341064,0 0.554229,-0.05969 0.213165,-0.06253 0.346749,-0.196112 0.133583,-0.136426 0.187585,-0.287063 0.05684,-0.150636 0.05684,-0.338222 z"
       id="path74689" />
    <path
       d="m 95.684747,77.748096 q 0,0.554229 -0.127899,1.006139 -0.125057,0.45191 -0.380855,0.770237 -0.258641,0.324011 -0.648022,0.500227 -0.389382,0.176217 -0.915189,0.176217 -0.147795,0 -0.278536,-0.01705 -0.130742,-0.01421 -0.233061,-0.04832 v -0.54286 h 0.02842 q 0.08242,0.04263 0.233061,0.08242 0.150636,0.03695 0.33538,0.03695 0.628126,0 0.983402,-0.37517 0.358117,-0.378013 0.414961,-1.040246 -0.264325,0.159163 -0.497385,0.227376 -0.233061,0.06821 -0.508755,0.06821 -0.261482,0 -0.474647,-0.05116 -0.210323,-0.05116 -0.423488,-0.198954 -0.250114,-0.173375 -0.378013,-0.440541 -0.125057,-0.267167 -0.125057,-0.639496 0,-0.648022 0.42633,-1.054457 0.42633,-0.406435 1.040246,-0.406435 0.306958,0 0.568441,0.09664 0.261482,0.09379 0.457594,0.28422 0.241587,0.235903 0.372329,0.608231 0.130741,0.369487 0.130741,0.957823 z m -0.574125,-0.122215 q 0,-0.440541 -0.09095,-0.707708 -0.09095,-0.267167 -0.250114,-0.414962 -0.133584,-0.127899 -0.287063,-0.181901 -0.153479,-0.05684 -0.332537,-0.05684 -0.409277,0 -0.648022,0.255798 -0.235903,0.255798 -0.235903,0.719077 0,0.27001 0.07674,0.440542 0.07674,0.170532 0.258641,0.298431 0.127899,0.08811 0.281378,0.119372 0.153479,0.02842 0.341064,0.02842 0.221692,0 0.449068,-0.05969 0.227376,-0.05969 0.42633,-0.173374 0.0028,-0.05969 0.0057,-0.11653 0.0057,-0.05969 0.0057,-0.150637 z"
       id="path74695" />
    <path
       d="m 88.400182,86.37255 q 0,0.315484 -0.119372,0.557071 -0.119373,0.241587 -0.321169,0.397909 -0.238745,0.187585 -0.525807,0.267167 -0.28422,0.07958 -0.724762,0.07958 H 85.20839 v -4.232039 h 1.253411 q 0.463279,0 0.693497,0.03411 0.230218,0.03411 0.440541,0.14211 0.233061,0.122215 0.338222,0.315484 0.105162,0.190428 0.105162,0.457595 0,0.301273 -0.153479,0.514438 -0.153479,0.210323 -0.409277,0.338222 v 0.02274 q 0.429172,0.08811 0.676444,0.378013 0.247271,0.287062 0.247271,0.727604 z m -0.946453,-1.907118 q 0,-0.153479 -0.05116,-0.25864 -0.05116,-0.105162 -0.164848,-0.170532 -0.133584,-0.07674 -0.324011,-0.09379 -0.190428,-0.01989 -0.471806,-0.01989 h -0.670759 v 1.222146 h 0.727603 q 0.264325,0 0.420646,-0.02558 0.156321,-0.02842 0.289905,-0.113688 0.133583,-0.08527 0.187585,-0.21885 0.05684,-0.136426 0.05684,-0.321169 z m 0.36096,1.929855 q 0,-0.255798 -0.07674,-0.406435 -0.07674,-0.150636 -0.278535,-0.255798 -0.136426,-0.07106 -0.332538,-0.09095 -0.19327,-0.02274 -0.471806,-0.02274 h -0.883924 v 1.57458 h 0.744656 q 0.369487,0 0.60539,-0.03695 0.235902,-0.03979 0.386539,-0.14211 0.159163,-0.110846 0.233061,-0.252956 0.0739,-0.14211 0.0739,-0.366644 z"
       id="path74700" />
    <path
       d="m 91.711348,87.674278 h -2.290815 v -0.432014 h 0.881082 v -2.836518 h -0.881082 v -0.38654 q 0.179059,0 0.383697,-0.02842 0.204639,-0.03126 0.3098,-0.08811 0.130741,-0.07106 0.204639,-0.179059 0.07674,-0.110846 0.08811,-0.295589 h 0.440541 v 3.814236 h 0.86403 z"
       id="path74702" />
    <path
       d="m 95.684746,86.494764 q 0,0.548545 -0.429172,0.912347 -0.42633,0.363802 -1.074353,0.363802 -0.687812,0 -1.09709,-0.355275 -0.406434,-0.355275 -0.406434,-0.909505 0,-0.352433 0.204638,-0.636653 0.204639,-0.287062 0.576967,-0.454752 v -0.01705 q -0.341064,-0.181901 -0.505912,-0.397908 -0.162005,-0.216007 -0.162005,-0.540018 0,-0.47749 0.392224,-0.795817 0.392223,-0.318327 0.997612,-0.318327 0.633811,0 1.011824,0.304116 0.378013,0.304116 0.378013,0.773079 0,0.287062 -0.179058,0.565598 -0.179059,0.275694 -0.525808,0.432015 v 0.01705 q 0.397908,0.170532 0.608231,0.420646 0.210323,0.250114 0.210323,0.636653 z m -0.673602,-2.066281 q 0,-0.304115 -0.235902,-0.483174 -0.233061,-0.181901 -0.596863,-0.181901 -0.358117,0 -0.588336,0.170532 -0.227376,0.170532 -0.227376,0.460437 0,0.204639 0.113688,0.355275 0.116531,0.147795 0.349591,0.264325 0.105162,0.05116 0.301274,0.133584 0.198954,0.08242 0.386539,0.136425 0.281378,-0.187585 0.389382,-0.389381 0.108003,-0.201797 0.108003,-0.466122 z m 0.08811,2.120283 q 0,-0.261482 -0.116531,-0.417803 -0.113688,-0.159164 -0.449068,-0.318327 -0.133583,-0.06253 -0.292746,-0.11653 -0.159164,-0.054 -0.423488,-0.150637 -0.255799,0.139268 -0.41212,0.378013 -0.153479,0.238745 -0.153479,0.540018 0,0.383697 0.264325,0.633811 0.264325,0.250114 0.67076,0.250114 0.414961,0 0.662233,-0.213165 0.250114,-0.213165 0.250114,-0.585494 z"
       id="path74704" />
    <path
       d="m 84.466575,84.72123 q 0,0.281378 -0.09948,0.522965 -0.09663,0.238745 -0.272852,0.414962 -0.218849,0.21885 -0.517281,0.329695 -0.298431,0.108004 -0.753183,0.108004 h -0.562756 v 1.577422 H 81.69827 v -4.232039 h 1.148249 q 0.380856,0 0.64518,0.06537 0.264325,0.06253 0.468964,0.198954 0.241587,0.162006 0.372328,0.403593 0.133584,0.241587 0.133584,0.611073 z m -0.585494,0.01421 q 0,-0.218849 -0.07674,-0.380855 -0.07674,-0.162005 -0.233061,-0.264325 -0.136426,-0.08811 -0.312642,-0.125056 -0.173375,-0.03979 -0.440542,-0.03979 h -0.557071 v 1.69111 h 0.474648 q 0.341064,0 0.554229,-0.05969 0.213165,-0.06253 0.346749,-0.196112 0.133583,-0.136426 0.187585,-0.287063 0.05684,-0.150636 0.05684,-0.338222 z"
       id="path74698" />
    <path
       d="m 84.739432,92.322495 q 0,0.281378 -0.09948,0.522965 -0.09664,0.238745 -0.272851,0.414962 -0.21885,0.218849 -0.517281,0.329695 -0.298431,0.108004 -0.753183,0.108004 h -0.562756 v 1.577422 h -0.562757 v -4.232039 h 1.14825 q 0.380855,0 0.64518,0.06537 0.264325,0.06253 0.468963,0.198954 0.241588,0.162006 0.372329,0.403593 0.133583,0.241587 0.133583,0.611073 z m -0.585493,0.01421 q 0,-0.218849 -0.07674,-0.380855 -0.07674,-0.162005 -0.23306,-0.264325 -0.136426,-0.08811 -0.312643,-0.125057 -0.173374,-0.03979 -0.440541,-0.03979 h -0.557071 v 1.69111 h 0.474647 q 0.341065,0 0.55423,-0.05969 0.213165,-0.06253 0.346748,-0.196112 0.133584,-0.136426 0.187586,-0.287063 0.05684,-0.150636 0.05684,-0.338222 z"
       id="path74707" />
    <path
       d="m 88.67304,93.973815 q 0,0.315484 -0.119372,0.557071 -0.119373,0.241587 -0.321169,0.397909 -0.238745,0.187585 -0.525808,0.267167 -0.28422,0.07958 -0.724761,0.07958 h -1.500683 v -4.232039 h 1.253411 q 0.463279,0 0.693498,0.03411 0.230218,0.03411 0.440541,0.14211 0.23306,0.122215 0.338222,0.315484 0.105161,0.190428 0.105161,0.457595 0,0.301273 -0.153478,0.514438 -0.153479,0.210323 -0.409278,0.338222 v 0.02274 q 0.429173,0.08811 0.676445,0.378013 0.247271,0.287062 0.247271,0.727604 z m -0.946453,-1.907118 q 0,-0.153479 -0.05116,-0.25864 -0.05116,-0.105162 -0.164848,-0.170532 -0.133583,-0.07674 -0.324011,-0.09379 -0.190427,-0.0199 -0.471805,-0.0199 h -0.67076 v 1.222147 h 0.727604 q 0.264325,0 0.420646,-0.02558 0.156321,-0.02842 0.289904,-0.113689 0.133584,-0.08527 0.187586,-0.218849 0.05684,-0.136426 0.05684,-0.321169 z m 0.360959,1.929855 q 0,-0.255798 -0.07674,-0.406435 -0.07674,-0.150636 -0.278536,-0.255798 -0.136425,-0.07105 -0.332537,-0.09095 -0.19327,-0.02274 -0.471806,-0.02274 h -0.883925 v 1.57458 h 0.744657 q 0.369486,0 0.605389,-0.03695 0.235903,-0.03979 0.38654,-0.14211 0.159163,-0.110846 0.23306,-0.252956 0.0739,-0.14211 0.0739,-0.366644 z"
       id="path74709" />
    <path
       d="m 92.225793,95.275543 h -2.86494 v -0.59402 q 0.298431,-0.255798 0.596862,-0.511596 0.301274,-0.255799 0.559914,-0.508755 0.545703,-0.528649 0.747499,-0.838449 0.201797,-0.312642 0.201797,-0.673602 0,-0.329696 -0.21885,-0.514439 -0.216007,-0.187585 -0.605389,-0.187585 -0.25864,0 -0.559914,0.09095 -0.301273,0.09095 -0.588336,0.278536 h -0.02842 v -0.596862 q 0.201797,-0.09948 0.537177,-0.181901 0.338222,-0.08242 0.653706,-0.08242 0.650864,0 1.020351,0.315484 0.369486,0.312643 0.369486,0.849819 0,0.241587 -0.06253,0.45191 -0.05969,0.207481 -0.179058,0.395066 -0.110846,0.176217 -0.261483,0.346749 -0.147794,0.170532 -0.36096,0.378013 -0.304115,0.298431 -0.628126,0.579809 -0.324011,0.278536 -0.605389,0.517281 h 2.276604 z"
       id="path74711" />
    <path
       d="m 95.684753,95.275543 h -2.290815 v -0.432015 h 0.881082 v -2.836517 h -0.881082 v -0.38654 q 0.179058,0 0.383697,-0.02842 0.204639,-0.03126 0.3098,-0.08811 0.130741,-0.07106 0.204639,-0.179059 0.07674,-0.110846 0.08811,-0.295589 h 0.440541 v 3.814235 h 0.86403 z"
       id="path74713" />
    <path
       d="m 84.503531,99.835641 q 0,0.281379 -0.09948,0.522969 -0.09664,0.23874 -0.272851,0.41496 -0.21885,0.21885 -0.517281,0.32969 -0.298431,0.10801 -0.753183,0.10801 h -0.562756 v 1.57742 h -0.562756 v -4.23204 h 1.148249 q 0.380855,0 0.64518,0.06537 0.264325,0.06253 0.468963,0.198955 0.241588,0.162005 0.372329,0.403592 0.133583,0.241587 0.133583,0.611074 z m -0.585493,0.01421 q 0,-0.21885 -0.07674,-0.380855 -0.07674,-0.162006 -0.23306,-0.264325 -0.136426,-0.08811 -0.312642,-0.125057 -0.173375,-0.03979 -0.440542,-0.03979 h -0.557071 v 1.691106 h 0.474647 q 0.341065,0 0.55423,-0.0597 0.213165,-0.0625 0.346748,-0.19611 0.133584,-0.13643 0.187586,-0.28707 0.05684,-0.15063 0.05684,-0.338218 z"
       id="path74716" />
    <path
       d="m 88.437139,101.48696 q 0,0.31548 -0.119372,0.55707 -0.119373,0.24159 -0.321169,0.39791 -0.238745,0.18759 -0.525807,0.26717 -0.284221,0.0796 -0.724762,0.0796 h -1.500683 v -4.23204 h 1.253411 q 0.463279,0 0.693498,0.03411 0.230218,0.03411 0.440541,0.14211 0.233061,0.122215 0.338222,0.315485 0.105162,0.190427 0.105162,0.457594 0,0.301274 -0.153479,0.514435 -0.153479,0.21033 -0.409277,0.33823 v 0.0227 q 0.429172,0.0881 0.676444,0.37802 0.247271,0.28706 0.247271,0.7276 z m -0.946453,-1.907117 q 0,-0.153479 -0.05116,-0.258641 -0.05116,-0.105161 -0.164847,-0.170532 -0.133584,-0.07674 -0.324011,-0.09379 -0.190428,-0.0199 -0.471806,-0.0199 h -0.67076 v 1.222148 h 0.727604 q 0.264325,0 0.420646,-0.0256 0.156321,-0.0284 0.289905,-0.11369 0.133583,-0.0853 0.187585,-0.218849 0.05684,-0.136425 0.05684,-0.321168 z m 0.36096,1.929857 q 0,-0.2558 -0.07674,-0.40644 -0.07674,-0.15063 -0.278536,-0.2558 -0.136425,-0.071 -0.332537,-0.0909 -0.19327,-0.0227 -0.471806,-0.0227 h -0.883925 v 1.57458 h 0.744657 q 0.369487,0 0.605389,-0.0369 0.235903,-0.0398 0.38654,-0.14211 0.159163,-0.11085 0.23306,-0.25296 0.0739,-0.14211 0.0739,-0.36664 z"
       id="path74718" />
    <path
       d="m 91.989892,102.78869 h -2.86494 v -0.59402 q 0.298431,-0.2558 0.596862,-0.5116 0.301274,-0.2558 0.559914,-0.50875 0.545703,-0.52865 0.747499,-0.83845 0.201797,-0.31264 0.201797,-0.673604 0,-0.329695 -0.21885,-0.514438 -0.216007,-0.187586 -0.605389,-0.187586 -0.25864,0 -0.559914,0.09095 -0.301273,0.09095 -0.588336,0.278536 h -0.02842 v -0.596863 q 0.201797,-0.09948 0.537177,-0.181901 0.338222,-0.08242 0.653706,-0.08242 0.650864,0 1.020351,0.315485 0.369486,0.312642 0.369486,0.849818 0,0.241588 -0.06253,0.451906 -0.05969,0.20749 -0.179059,0.39507 -0.110846,0.17622 -0.261483,0.34675 -0.147794,0.17053 -0.360959,0.37801 -0.304116,0.29843 -0.628127,0.57981 -0.324011,0.27854 -0.605389,0.51728 h 2.276604 z"
       id="path74720" />
    <path
       d="m 87.359943,110.34589 h -0.679287 v -0.81003 h 0.679287 z"
       id="path74727" />
    <path
       d="m 95.684754,100.67125 q 0,1.13972 -0.358117,1.67406 -0.355275,0.53149 -1.105617,0.53149 -0.76171,0 -1.114143,-0.54002 -0.349591,-0.54002 -0.349591,-1.65985 0,-1.128352 0.355276,-1.665528 0.355275,-0.540018 1.108458,-0.540018 0.761711,0 1.111301,0.548545 0.352433,0.545702 0.352433,1.651321 z m -0.747499,1.29036 q 0.09948,-0.23022 0.133584,-0.54002 0.03695,-0.31264 0.03695,-0.75034 0,-0.43202 -0.03695,-0.750343 -0.03411,-0.318327 -0.136426,-0.540019 -0.09948,-0.218849 -0.272851,-0.329695 -0.170532,-0.110846 -0.440542,-0.110846 -0.267167,0 -0.443383,0.110846 -0.173374,0.110846 -0.275694,0.33538 -0.09663,0.210323 -0.133583,0.548545 -0.03411,0.338222 -0.03411,0.741812 0,0.44339 0.03126,0.74182 0.03126,0.29843 0.133583,0.53433 0.09379,0.22169 0.264325,0.33822 0.173374,0.11653 0.457594,0.11653 0.267167,0 0.443384,-0.11084 0.176216,-0.11085 0.272851,-0.33538 z"
       id="path74722" />
    <path
       d="m 91.029225,108.30803 q 0.136426,0.12221 0.224534,0.30696 0.08811,0.18474 0.08811,0.47749 0,0.2899 -0.105162,0.53149 -0.105161,0.24158 -0.295589,0.42064 -0.213165,0.19896 -0.50307,0.29559 -0.287062,0.0938 -0.630969,0.0938 -0.352433,0 -0.693497,-0.0853 -0.341064,-0.0824 -0.559914,-0.1819 v -0.59402 h 0.04263 q 0.241588,0.15916 0.568441,0.26432 0.326853,0.10516 0.630969,0.10516 0.179058,0 0.380855,-0.0597 0.201796,-0.0597 0.326853,-0.17622 0.130741,-0.12506 0.19327,-0.27569 0.06537,-0.15064 0.06537,-0.38086 0,-0.22737 -0.0739,-0.37517 -0.07105,-0.15064 -0.198954,-0.2359 -0.127899,-0.0881 -0.3098,-0.11937 -0.181901,-0.0341 -0.392224,-0.0341 h -0.255798 v -0.47181 h 0.198954 q 0.432015,0 0.687813,-0.17905 0.25864,-0.18191 0.25864,-0.52865 0,-0.15348 -0.06537,-0.26717 -0.06537,-0.11653 -0.181901,-0.19043 -0.122215,-0.0739 -0.261483,-0.10232 -0.139268,-0.0284 -0.315484,-0.0284 -0.27001,0 -0.574125,0.0966 -0.304116,0.0966 -0.574125,0.27286 h -0.02842 v -0.59402 q 0.201796,-0.0995 0.537176,-0.1819 0.338222,-0.0853 0.653707,-0.0853 0.3098,0 0.545702,0.0568 0.235903,0.0569 0.426331,0.1819 0.204638,0.13643 0.3098,0.3297 0.105161,0.19327 0.105161,0.45191 0,0.35243 -0.250114,0.61676 -0.247271,0.26148 -0.585493,0.32969 v 0.0398 q 0.136426,0.0227 0.312642,0.0966 0.176217,0.071 0.298431,0.17906 z"
       id="path74729" />
    <path
       d="m 95.684752,106.11385 -1.540473,4.23204 h -0.750341 l -1.540474,-4.23204 h 0.602547 l 1.327308,3.72328 1.327309,-3.72328 z"
       id="path74731" />
    <path
       d="m 85.211238,108.30803 q 0.136426,0.12221 0.224534,0.30696 0.08811,0.18474 0.08811,0.47749 0,0.2899 -0.105161,0.53149 -0.105162,0.24158 -0.295589,0.42064 -0.213166,0.19896 -0.50307,0.29559 -0.287063,0.0938 -0.630969,0.0938 -0.352433,0 -0.693497,-0.0853 -0.341065,-0.0824 -0.559914,-0.1819 v -0.59402 h 0.04263 q 0.241587,0.15916 0.56844,0.26432 0.326854,0.10516 0.630969,0.10516 0.179059,0 0.380855,-0.0597 0.201797,-0.0597 0.326853,-0.17622 0.130742,-0.12506 0.19327,-0.27569 0.06537,-0.15064 0.06537,-0.38086 0,-0.22737 -0.0739,-0.37517 -0.07106,-0.15064 -0.198955,-0.2359 -0.127899,-0.0881 -0.3098,-0.11937 -0.1819,-0.0341 -0.392223,-0.0341 h -0.255799 v -0.47181 h 0.198955 q 0.432014,0 0.687812,-0.17905 0.258641,-0.18191 0.258641,-0.52865 0,-0.15348 -0.06537,-0.26717 -0.06537,-0.11653 -0.181901,-0.19043 -0.122214,-0.0739 -0.261482,-0.10232 -0.139268,-0.0284 -0.315485,-0.0284 -0.270009,0 -0.574125,0.0966 -0.304115,0.0966 -0.574124,0.27286 h -0.02842 v -0.59402 q 0.201796,-0.0995 0.537176,-0.1819 0.338222,-0.0853 0.653706,-0.0853 0.3098,0 0.545703,0.0568 0.235903,0.0569 0.42633,0.1819 0.204639,0.13643 0.3098,0.3297 0.105162,0.19327 0.105162,0.45191 0,0.35243 -0.250114,0.61676 -0.247272,0.26148 -0.585494,0.32969 v 0.0398 q 0.136426,0.0227 0.312643,0.0966 0.176216,0.071 0.298431,0.17906 z"
       id="path74725" />
    <path
       d="m 95.684751,113.62699 -1.540474,4.23204 h -0.750341 l -1.540474,-4.23204 h 0.602547 l 1.327308,3.72329 1.327309,-3.72329 z"
       id="path74736" />
    <path
       d="m 91.367445,116.51467 q 0,0.29559 -0.108003,0.5656 -0.108004,0.27001 -0.295589,0.45475 -0.204639,0.19895 -0.488859,0.30696 -0.281378,0.10516 -0.653706,0.10516 -0.346749,0 -0.667918,-0.0739 -0.321169,-0.071 -0.542861,-0.17337 v -0.59971 h 0.03979 q 0.233061,0.1478 0.545703,0.25296 0.312642,0.10232 0.613916,0.10232 0.201796,0 0.389381,-0.0568 0.190428,-0.0568 0.338222,-0.19895 0.125057,-0.12221 0.187586,-0.29275 0.06537,-0.17053 0.06537,-0.39506 0,-0.21885 -0.07674,-0.36949 -0.0739,-0.15064 -0.207481,-0.24159 -0.147794,-0.108 -0.360959,-0.15063 -0.210323,-0.0455 -0.471806,-0.0455 -0.250114,0 -0.483174,0.0341 -0.230219,0.0341 -0.397909,0.0682 v -2.17997 h 2.546613 v 0.49739 h -1.998068 v 1.12551 q 0.122215,-0.0114 0.250114,-0.017 0.127899,-0.006 0.221692,-0.006 0.343906,0 0.602547,0.0597 0.25864,0.0568 0.474648,0.20464 0.227376,0.15632 0.352433,0.40359 0.125056,0.24727 0.125056,0.6196 z"
       id="path74734" />
    <path
       d="m 86.771605,125.14482 q -0.346749,0.15916 -0.758868,0.27853 -0.409278,0.11653 -0.792975,0.11653 -0.494543,0 -0.906662,-0.13642 -0.41212,-0.13643 -0.702024,-0.40928 -0.292747,-0.27569 -0.45191,-0.68781 -0.159164,-0.41496 -0.159164,-0.96919 0,-1.01467 0.591178,-1.60016 0.594021,-0.58834 1.628582,-0.58834 0.36096,0 0.736131,0.0881 0.378012,0.0853 0.812869,0.29275 v 0.66791 h -0.05116 q -0.08811,-0.0682 -0.255799,-0.17906 -0.167689,-0.11084 -0.329695,-0.18474 -0.196112,-0.0881 -0.446226,-0.14495 -0.247271,-0.0597 -0.562756,-0.0597 -0.71055,0 -1.125512,0.4576 -0.412119,0.45475 -0.412119,1.23351 0,0.8214 0.432015,1.27899 0.432014,0.45476 1.176671,0.45476 0.272852,0 0.542861,-0.054 0.272851,-0.054 0.47749,-0.13926 v -1.03741 h -1.134039 v -0.49454 h 1.691111 z"
       id="path74739" />
    <path
       d="m 90.983748,125.45746 h -0.69634 l -2.006594,-3.78581 v 3.78581 h -0.525808 v -4.23204 h 0.872556 l 1.830378,3.45612 v -3.45612 h 0.525808 z"
       id="path74741" />
    <path
       d="m 18.768305,31.827683 q 0,0.281378 -0.09948,0.522965 -0.09664,0.238745 -0.272852,0.414962 -0.218849,0.218849 -0.51728,0.329695 -0.298432,0.108004 -0.753184,0.108004 h -0.562756 v 1.577422 H 16 v -4.232039 h 1.14825 q 0.380855,0 0.645179,0.06537 0.264325,0.06253 0.468964,0.198954 0.241587,0.162006 0.372328,0.403593 0.133584,0.241587 0.133584,0.611073 z m -0.585494,0.01421 q 0,-0.218849 -0.07674,-0.380855 -0.07674,-0.162005 -0.233061,-0.264325 -0.136426,-0.08811 -0.312642,-0.125057 -0.173374,-0.03979 -0.440541,-0.03979 h -0.557072 v 1.69111 h 0.474648 q 0.341064,0 0.554229,-0.05969 0.213165,-0.06253 0.346749,-0.196112 0.133583,-0.136426 0.187585,-0.287063 0.05684,-0.150636 0.05684,-0.338222 z"
       id="path74746" />
    <path
       d="m 95.68475,123.3457 q 0,0.57697 -0.252956,1.04593 -0.250114,0.46897 -0.667918,0.72761 -0.289904,0.17906 -0.648022,0.25864 -0.355275,0.0796 -0.937926,0.0796 H 92.10926 v -4.23204 h 1.057299 q 0.6196,0 0.983402,0.091 0.366644,0.0881 0.6196,0.24443 0.432014,0.27001 0.673602,0.71908 0.241587,0.44906 0.241587,1.06582 z m -0.588336,-0.009 q 0,-0.49739 -0.173374,-0.83845 -0.173375,-0.34107 -0.517281,-0.53718 -0.250114,-0.14211 -0.531492,-0.19611 -0.281378,-0.0568 -0.673602,-0.0568 h -0.528649 v 3.26569 h 0.528649 q 0.406435,0 0.707709,-0.0597 0.304115,-0.0597 0.557071,-0.22169 0.315485,-0.2018 0.471806,-0.5315 0.159163,-0.32969 0.159163,-0.82423 z"
       id="path74743" />
    <path
       d="M 22.704755,34.780731 H 22.10505 l -0.414961,-1.179514 h -1.830378 l -0.414962,1.179514 h -0.571283 l 1.540474,-4.232039 h 0.750341 z m -1.188041,-1.662688 -0.741814,-2.07765 -0.744657,2.07765 z"
       id="path74748" />
    <path
       d="m 25.859599,34.780731 h -2.290815 v -0.432015 h 0.881083 v -2.836517 h -0.881083 v -0.38654 q 0.179059,0 0.383698,-0.02842 0.204638,-0.03126 0.3098,-0.08811 0.130741,-0.07106 0.204638,-0.179059 0.07674,-0.110846 0.08811,-0.295589 h 0.440542 v 3.814235 h 0.864029 z"
       id="path74750" />
    <path
       d="m 29.898369,33.589849 h -0.628127 v 1.190882 h -0.545703 v -1.190882 h -2.02649 v -0.653707 l 2.049228,-2.38745 h 0.522965 v 2.586404 h 0.628127 z m -1.17383,-0.454753 v -1.90996 l -1.639951,1.90996 z"
       id="path74752" />
    <path
       d="m 18.768305,39.377778 q 0,0.281378 -0.09948,0.522965 -0.09664,0.238745 -0.272852,0.414962 -0.218849,0.218849 -0.51728,0.329695 -0.298432,0.108004 -0.753184,0.108004 h -0.562756 v 1.577422 H 16 v -4.232039 h 1.14825 q 0.380855,0 0.645179,0.06537 0.264325,0.06253 0.468964,0.198954 0.241587,0.162005 0.372328,0.403592 0.133584,0.241588 0.133584,0.611074 z m -0.585494,0.01421 q 0,-0.21885 -0.07674,-0.380855 -0.07674,-0.162006 -0.233061,-0.264325 -0.136426,-0.08811 -0.312642,-0.125057 -0.173374,-0.03979 -0.440541,-0.03979 h -0.557072 v 1.69111 h 0.474648 q 0.341064,0 0.554229,-0.05969 0.213165,-0.06253 0.346749,-0.196112 0.133583,-0.136425 0.187585,-0.287062 0.05684,-0.150637 0.05684,-0.338222 z"
       id="path74755" />
    <path
       d="M 22.704755,42.330826 H 22.10505 l -0.414961,-1.179514 h -1.830378 l -0.414962,1.179514 h -0.571283 l 1.540474,-4.232039 h 0.750341 z m -1.188041,-1.662688 -0.741814,-2.07765 -0.744657,2.07765 z"
       id="path74757" />
    <path
       d="m 29.429405,40.292967 q 0.136426,0.122215 0.224534,0.306958 0.08811,0.184743 0.08811,0.47749 0,0.289904 -0.105161,0.531491 -0.105162,0.241588 -0.295589,0.420646 -0.213165,0.198955 -0.50307,0.295589 -0.287062,0.09379 -0.630969,0.09379 -0.352433,0 -0.693497,-0.08527 -0.341064,-0.08242 -0.559914,-0.181901 v -0.59402 h 0.04263 q 0.241587,0.159163 0.568441,0.264325 0.326853,0.105161 0.630968,0.105161 0.179059,0 0.380856,-0.05969 0.201796,-0.05969 0.326853,-0.176217 0.130741,-0.125057 0.19327,-0.275693 0.06537,-0.150637 0.06537,-0.380855 0,-0.227377 -0.0739,-0.375171 -0.07106,-0.150637 -0.198954,-0.235903 -0.127899,-0.08811 -0.3098,-0.119372 -0.181901,-0.03411 -0.392224,-0.03411 h -0.255798 v -0.471805 h 0.198954 q 0.432015,0 0.687813,-0.179059 0.25864,-0.181901 0.25864,-0.52865 0,-0.153478 -0.06537,-0.267167 -0.06537,-0.11653 -0.1819,-0.190427 -0.122215,-0.0739 -0.261483,-0.102319 -0.139268,-0.02842 -0.315484,-0.02842 -0.27001,0 -0.574125,0.09663 -0.304116,0.09664 -0.574125,0.272852 h -0.02842 v -0.59402 q 0.201796,-0.09948 0.537176,-0.181901 0.338222,-0.08527 0.653707,-0.08527 0.3098,0 0.545702,0.05684 0.235903,0.05684 0.426331,0.181901 0.204638,0.136425 0.3098,0.329695 0.105161,0.19327 0.105161,0.45191 0,0.352433 -0.250114,0.616758 -0.247271,0.261483 -0.585493,0.329695 v 0.03979 q 0.136425,0.02274 0.312642,0.09663 0.176216,0.07106 0.298431,0.179059 z"
       id="path74761" />
    <path
       d="m 25.859599,42.330826 h -2.290815 v -0.432015 h 0.881083 v -2.836518 h -0.881083 v -0.386539 q 0.179059,0 0.383698,-0.02842 0.204638,-0.03126 0.3098,-0.08811 0.130741,-0.07106 0.204638,-0.179059 0.07674,-0.110846 0.08811,-0.295589 h 0.440542 v 3.814235 h 0.864029 z"
       id="path74759" />
    <path
       d="m 18.768305,46.979043 q 0,0.281378 -0.09948,0.522965 -0.09664,0.238745 -0.272852,0.414961 -0.218849,0.21885 -0.51728,0.329696 -0.298432,0.108004 -0.753184,0.108004 h -0.562756 v 1.577422 H 16 v -4.232039 h 1.14825 q 0.380855,0 0.645179,0.06537 0.264325,0.06253 0.468964,0.198954 0.241587,0.162005 0.372328,0.403592 0.133584,0.241588 0.133584,0.611074 z m -0.585494,0.01421 q 0,-0.21885 -0.07674,-0.380855 -0.07674,-0.162006 -0.233061,-0.264325 -0.136426,-0.08811 -0.312642,-0.125057 -0.173374,-0.03979 -0.440541,-0.03979 h -0.557072 v 1.69111 h 0.474648 q 0.341064,0 0.554229,-0.05969 0.213165,-0.06253 0.346749,-0.196112 0.133583,-0.136425 0.187585,-0.287062 0.05684,-0.150637 0.05684,-0.338222 z"
       id="path74764" />
    <path
       d="m 25.859599,49.932091 h -2.290815 v -0.432015 h 0.881083 v -2.836518 h -0.881083 v -0.386539 q 0.179059,0 0.383698,-0.02842 0.204638,-0.03126 0.3098,-0.08811 0.130741,-0.07106 0.204638,-0.179059 0.07674,-0.110846 0.08811,-0.295589 h 0.440542 v 3.814235 h 0.864029 z"
       id="path74768" />
    <path
       d="M 22.704755,49.932091 H 22.10505 l -0.414961,-1.179514 h -1.830378 l -0.414962,1.179514 h -0.571283 l 1.540474,-4.232039 h 0.750341 z m -1.188041,-1.662688 -0.741814,-2.07765 -0.744657,2.07765 z"
       id="path74766" />
    <path
       d="m 29.801734,49.932091 h -2.86494 v -0.59402 q 0.298431,-0.255799 0.596862,-0.511597 0.301274,-0.255798 0.559914,-0.508754 0.545703,-0.52865 0.747499,-0.83845 0.201797,-0.312642 0.201797,-0.673602 0,-0.329695 -0.21885,-0.514438 -0.216007,-0.187585 -0.605389,-0.187585 -0.25864,0 -0.559914,0.09095 -0.301273,0.09095 -0.588336,0.278536 h -0.02842 v -0.596863 q 0.201797,-0.09948 0.537177,-0.181901 0.338222,-0.08242 0.653706,-0.08242 0.650864,0 1.020351,0.315484 0.369486,0.312642 0.369486,0.849818 0,0.241588 -0.06253,0.451911 -0.05969,0.20748 -0.179058,0.395066 -0.110846,0.176216 -0.261483,0.346748 -0.147794,0.170532 -0.36096,0.378013 -0.304115,0.298431 -0.628126,0.579809 -0.324011,0.278536 -0.605389,0.517281 h 2.276604 z"
       id="path74770" />
    <path
       d="m 18.768305,54.492188 q 0,0.281378 -0.09948,0.522965 -0.09664,0.238745 -0.272852,0.414962 -0.218849,0.218849 -0.51728,0.329695 -0.298432,0.108004 -0.753184,0.108004 h -0.562756 v 1.577422 H 16 v -4.232039 h 1.14825 q 0.380855,0 0.645179,0.06537 0.264325,0.06253 0.468964,0.198954 0.241587,0.162006 0.372328,0.403593 0.133584,0.241587 0.133584,0.611073 z m -0.585494,0.01421 q 0,-0.218849 -0.07674,-0.380855 -0.07674,-0.162005 -0.233061,-0.264325 -0.136426,-0.08811 -0.312642,-0.125057 -0.173374,-0.03979 -0.440541,-0.03979 h -0.557072 v 1.69111 h 0.474648 q 0.341064,0 0.554229,-0.05969 0.213165,-0.06253 0.346749,-0.196112 0.133583,-0.136426 0.187585,-0.287063 0.05684,-0.150636 0.05684,-0.338222 z"
       id="path74773" />
    <path
       d="M 22.704755,57.445236 H 22.10505 l -0.414961,-1.179514 h -1.830378 l -0.414962,1.179514 h -0.571283 l 1.540474,-4.232039 h 0.750341 z m -1.188041,-1.662688 -0.741814,-2.07765 -0.744657,2.07765 z"
       id="path74775" />
    <path
       d="m 25.728858,55.407377 q 0.136426,0.122215 0.224534,0.306958 0.08811,0.184743 0.08811,0.47749 0,0.289905 -0.105161,0.531492 -0.105162,0.241587 -0.295589,0.420646 -0.213165,0.198954 -0.50307,0.295589 -0.287062,0.09379 -0.630969,0.09379 -0.352433,0 -0.693497,-0.08527 -0.341065,-0.08242 -0.559914,-0.181901 v -0.59402 h 0.04263 q 0.241587,0.159164 0.56844,0.264325 0.326854,0.105162 0.630969,0.105162 0.179059,0 0.380855,-0.05969 0.201797,-0.05969 0.326854,-0.176216 0.130741,-0.125057 0.193269,-0.275694 0.06537,-0.150637 0.06537,-0.380855 0,-0.227376 -0.0739,-0.375171 -0.07106,-0.150636 -0.198954,-0.235902 -0.1279,-0.08811 -0.3098,-0.119373 -0.181901,-0.03411 -0.392224,-0.03411 h -0.255799 v -0.471806 h 0.198955 q 0.432014,0 0.687813,-0.179059 0.25864,-0.181901 0.25864,-0.528649 0,-0.153479 -0.06537,-0.267167 -0.06537,-0.11653 -0.181901,-0.190428 -0.122214,-0.0739 -0.261482,-0.102319 -0.139268,-0.02842 -0.315485,-0.02842 -0.270009,0 -0.574125,0.09663 -0.304115,0.09663 -0.574124,0.272851 h -0.02842 v -0.59402 q 0.201796,-0.09948 0.537176,-0.181901 0.338222,-0.08527 0.653706,-0.08527 0.3098,0 0.545703,0.05684 0.235903,0.05684 0.42633,0.181901 0.204639,0.136426 0.3098,0.329695 0.105162,0.19327 0.105162,0.451911 0,0.352433 -0.250114,0.616757 -0.247271,0.261483 -0.585493,0.329696 v 0.03979 q 0.136425,0.02274 0.312642,0.09663 0.176216,0.07106 0.298431,0.179058 z"
       id="path74777" />
    <path
       d="m 29.796049,55.327796 q 0,1.139723 -0.358117,1.674057 -0.355275,0.531491 -1.105617,0.531491 -0.76171,0 -1.114143,-0.540018 -0.349591,-0.540018 -0.349591,-1.659846 0,-1.128354 0.355275,-1.66553 0.355276,-0.540019 1.108459,-0.540019 0.76171,0 1.111301,0.548545 0.352433,0.545703 0.352433,1.65132 z m -0.747499,1.290359 q 0.09948,-0.230218 0.133584,-0.540018 0.03695,-0.312642 0.03695,-0.750341 0,-0.432015 -0.03695,-0.750342 -0.03411,-0.318326 -0.136426,-0.540018 -0.09948,-0.21885 -0.272852,-0.329696 -0.170532,-0.110845 -0.440541,-0.110845 -0.267167,0 -0.443383,0.110845 -0.173375,0.110846 -0.275694,0.33538 -0.09663,0.210323 -0.133583,0.548545 -0.03411,0.338222 -0.03411,0.741815 0,0.443384 0.03126,0.741815 0.03127,0.298431 0.133584,0.534334 0.09379,0.221692 0.264325,0.338222 0.173374,0.11653 0.457594,0.11653 0.267167,0 0.443384,-0.110846 0.176216,-0.110846 0.272851,-0.33538 z"
       id="path74779" />
    <path
       d="m 18.768305,62.049386 q 0,0.281378 -0.09948,0.522965 -0.09664,0.238745 -0.272852,0.414961 -0.218849,0.21885 -0.51728,0.329696 -0.298432,0.108004 -0.753184,0.108004 h -0.562756 v 1.577422 H 16 v -4.232039 h 1.14825 q 0.380855,0 0.645179,0.06537 0.264325,0.06253 0.468964,0.198954 0.241587,0.162005 0.372328,0.403592 0.133584,0.241588 0.133584,0.611074 z m -0.585494,0.01421 q 0,-0.21885 -0.07674,-0.380855 -0.07674,-0.162006 -0.233061,-0.264325 -0.136426,-0.08811 -0.312642,-0.125057 -0.173374,-0.03979 -0.440541,-0.03979 h -0.557072 v 1.69111 h 0.474648 q 0.341064,0 0.554229,-0.05969 0.213165,-0.06253 0.346749,-0.196112 0.133583,-0.136425 0.187585,-0.287062 0.05684,-0.150637 0.05684,-0.338222 z"
       id="path74782" />
    <path
       d="M 22.704755,65.002434 H 22.10505 L 21.690089,63.82292 h -1.830378 l -0.414962,1.179514 h -0.571283 l 1.540474,-4.232039 h 0.750341 z m -1.188041,-1.662688 -0.741814,-2.07765 -0.744657,2.07765 z"
       id="path74784" />
    <path
       d="m 26.101186,65.002434 h -2.864939 v -0.59402 q 0.298431,-0.255799 0.596862,-0.511597 0.301274,-0.255798 0.559914,-0.508754 0.545703,-0.52865 0.747499,-0.83845 0.201796,-0.312642 0.201796,-0.673602 0,-0.329695 -0.218849,-0.514438 -0.216007,-0.187585 -0.605389,-0.187585 -0.258641,0 -0.559914,0.09095 -0.301273,0.09095 -0.588336,0.278536 h -0.02842 v -0.596863 q 0.201797,-0.09948 0.537176,-0.181901 0.338222,-0.08242 0.653707,-0.08242 0.650864,0 1.02035,0.315484 0.369487,0.312642 0.369487,0.849818 0,0.241588 -0.06253,0.451911 -0.05969,0.20748 -0.179058,0.395066 -0.110846,0.176216 -0.261483,0.346748 -0.147795,0.170532 -0.36096,0.378013 -0.304115,0.298431 -0.628126,0.579809 -0.324011,0.278536 -0.605389,0.517281 h 2.276603 z"
       id="path74786" />
    <path
       d="m 29.832998,63.82292 q 0,0.548545 -0.429173,0.912347 -0.42633,0.363802 -1.074352,0.363802 -0.687813,0 -1.09709,-0.355276 -0.406435,-0.355275 -0.406435,-0.909504 0,-0.352433 0.204639,-0.636654 0.204638,-0.287062 0.576967,-0.454752 v -0.01705 q -0.341065,-0.181901 -0.505912,-0.397908 -0.162006,-0.216008 -0.162006,-0.540019 0,-0.47749 0.392224,-0.795816 0.392224,-0.318327 0.997613,-0.318327 0.633811,0 1.011824,0.304116 0.378013,0.304115 0.378013,0.773079 0,0.287062 -0.179059,0.565598 -0.179059,0.275693 -0.525807,0.432015 v 0.01705 q 0.397908,0.170532 0.608231,0.420646 0.210323,0.250113 0.210323,0.636653 z m -0.673602,-2.066281 q 0,-0.304116 -0.235903,-0.483174 -0.23306,-0.181901 -0.596862,-0.181901 -0.358118,0 -0.588336,0.170532 -0.227376,0.170532 -0.227376,0.460437 0,0.204638 0.113688,0.355275 0.11653,0.147794 0.349591,0.264325 0.105161,0.05116 0.301273,0.133583 0.198954,0.08242 0.38654,0.136426 0.281378,-0.187586 0.389381,-0.389382 0.108004,-0.201796 0.108004,-0.466121 z m 0.08811,2.120283 q 0,-0.261483 -0.11653,-0.417804 -0.113688,-0.159163 -0.449068,-0.318327 -0.133583,-0.06253 -0.292747,-0.11653 -0.159163,-0.054 -0.423488,-0.150637 -0.255798,0.139268 -0.412119,0.378013 -0.153479,0.238745 -0.153479,0.540019 0,0.383697 0.264325,0.633811 0.264324,0.250114 0.670759,0.250114 0.414962,0 0.662233,-0.213166 0.250114,-0.213165 0.250114,-0.585493 z"
       id="path74788" />
    <path
       d="m 18.768305,69.606591 q 0,0.281378 -0.09948,0.522965 -0.09664,0.238745 -0.272852,0.414962 -0.218849,0.218849 -0.51728,0.329695 -0.298432,0.108004 -0.753184,0.108004 h -0.562756 v 1.577422 H 16 V 68.3276 h 1.14825 q 0.380855,0 0.645179,0.06537 0.264325,0.06253 0.468964,0.198954 0.241587,0.162005 0.372328,0.403593 0.133584,0.241587 0.133584,0.611073 z m -0.585494,0.01421 q 0,-0.21885 -0.07674,-0.380855 -0.07674,-0.162006 -0.233061,-0.264325 -0.136426,-0.08811 -0.312642,-0.125057 -0.173374,-0.03979 -0.440541,-0.03979 h -0.557072 v 1.691111 h 0.474648 q 0.341064,0 0.554229,-0.05969 0.213165,-0.06253 0.346749,-0.196112 0.133583,-0.136425 0.187585,-0.287062 0.05684,-0.150637 0.05684,-0.338222 z"
       id="path74791" />
    <path
       d="M 22.704755,72.559639 H 22.10505 l -0.414961,-1.179514 h -1.830378 l -0.414962,1.179514 H 18.873466 L 20.41394,68.3276 h 0.750341 z m -1.188041,-1.662688 -0.741814,-2.07765 -0.744657,2.07765 z"
       id="path74793" />
    <path
       d="m 18.768305,77.163796 q 0,0.281378 -0.09948,0.522965 -0.09664,0.238745 -0.272852,0.414962 -0.218849,0.218849 -0.51728,0.329695 -0.298432,0.108004 -0.753184,0.108004 h -0.562756 v 1.577422 H 16 v -4.232039 h 1.14825 q 0.380855,0 0.645179,0.06537 0.264325,0.06253 0.468964,0.198954 0.241587,0.162006 0.372328,0.403593 0.133584,0.241587 0.133584,0.611073 z m -0.585494,0.01421 q 0,-0.218849 -0.07674,-0.380855 -0.07674,-0.162005 -0.233061,-0.264325 -0.136426,-0.08811 -0.312642,-0.125057 -0.173374,-0.03979 -0.440541,-0.03979 h -0.557072 v 1.69111 h 0.474648 q 0.341064,0 0.554229,-0.05969 0.213165,-0.06253 0.346749,-0.196112 0.133583,-0.136426 0.187585,-0.287063 0.05684,-0.150636 0.05684,-0.338222 z"
       id="path74800" />
    <path
       d="m 26.101186,72.559639 h -2.864939 v -0.59402 q 0.298431,-0.255798 0.596862,-0.511597 0.301274,-0.255798 0.559914,-0.508754 0.545703,-0.528649 0.747499,-0.838449 0.201796,-0.312643 0.201796,-0.673602 0,-0.329696 -0.218849,-0.514439 -0.216007,-0.187585 -0.605389,-0.187585 -0.258641,0 -0.559914,0.09095 -0.301273,0.09095 -0.588336,0.278536 h -0.02842 v -0.596862 q 0.201797,-0.09948 0.537176,-0.181901 0.338222,-0.08242 0.653707,-0.08242 0.650864,0 1.02035,0.315484 0.369487,0.312642 0.369487,0.849819 0,0.241587 -0.06253,0.45191 -0.05969,0.207481 -0.179058,0.395066 -0.110846,0.176216 -0.261483,0.346749 -0.147795,0.170532 -0.36096,0.378012 -0.304115,0.298432 -0.628126,0.57981 -0.324011,0.278535 -0.605389,0.51728 h 2.276603 z"
       id="path74795" />
    <path
       d="m 18.768305,92.278207 q 0,0.281378 -0.09948,0.522965 -0.09664,0.238745 -0.272852,0.414961 -0.218849,0.21885 -0.51728,0.329696 -0.298432,0.108003 -0.753184,0.108003 h -0.562756 v 1.577423 H 16 v -4.232039 h 1.14825 q 0.380855,0 0.645179,0.06537 0.264325,0.06253 0.468964,0.198954 0.241587,0.162006 0.372328,0.403593 0.133584,0.241587 0.133584,0.611074 z m -0.585494,0.01421 q 0,-0.21885 -0.07674,-0.380855 -0.07674,-0.162006 -0.233061,-0.264325 -0.136426,-0.08811 -0.312642,-0.125057 -0.173374,-0.03979 -0.440541,-0.03979 h -0.557072 v 1.69111 h 0.474648 q 0.341064,0 0.554229,-0.05969 0.213165,-0.06253 0.346749,-0.196112 0.133583,-0.136426 0.187585,-0.287062 0.05684,-0.150637 0.05684,-0.338222 z"
       id="path74818" />
    <path
       d="m 29.864262,71.186855 q 0,0.64518 -0.42633,1.054457 -0.423488,0.406435 -1.040246,0.406435 -0.312642,0 -0.568441,-0.09663 -0.255798,-0.09664 -0.45191,-0.287062 -0.244429,-0.235903 -0.378013,-0.625284 -0.130741,-0.389382 -0.130741,-0.937927 0,-0.562756 0.119373,-0.997613 0.122214,-0.434857 0.386539,-0.773079 0.250114,-0.321169 0.64518,-0.500228 0.395066,-0.181901 0.920873,-0.181901 0.16769,0 0.281378,0.01421 0.113689,0.01421 0.230219,0.05116 v 0.542861 h -0.02842 q -0.07958,-0.04263 -0.241587,-0.07958 -0.159164,-0.03979 -0.326854,-0.03979 -0.611073,0 -0.974875,0.383697 -0.363802,0.380856 -0.423488,1.03172 0.238745,-0.144952 0.468963,-0.21885 0.233061,-0.07674 0.537176,-0.07674 0.27001,0 0.474648,0.05116 0.207481,0.04832 0.423488,0.198955 0.250114,0.173374 0.375171,0.437699 0.127899,0.264324 0.127899,0.642337 z m -0.576967,0.02274 q 0,-0.264325 -0.07958,-0.437699 -0.07674,-0.173374 -0.255798,-0.301274 -0.130741,-0.09095 -0.289904,-0.119372 -0.159164,-0.02842 -0.332538,-0.02842 -0.241587,0 -0.449068,0.05684 -0.207481,0.05684 -0.42633,0.176217 -0.0057,0.06253 -0.0085,0.122214 -0.0028,0.05684 -0.0028,0.144953 0,0.449067 0.09095,0.71055 0.09379,0.25864 0.255799,0.409277 0.130741,0.125057 0.281378,0.184743 0.153478,0.05684 0.332537,0.05684 0.41212,0 0.648022,-0.250113 0.235903,-0.252956 0.235903,-0.724762 z"
       id="path74797" />
    <path
       d="M 22.704755,80.116844 H 22.10505 L 21.690089,78.93733 h -1.830378 l -0.414962,1.179514 h -0.571283 l 1.540474,-4.232039 h 0.750341 z m -1.188041,-1.662688 -0.741814,-2.07765 -0.744657,2.07765 z"
       id="path74802" />
    <path
       d="m 26.101186,80.116844 h -2.864939 v -0.59402 q 0.298431,-0.255798 0.596862,-0.511596 0.301274,-0.255799 0.559914,-0.508755 0.545703,-0.528649 0.747499,-0.838449 0.201796,-0.312642 0.201796,-0.673602 0,-0.329696 -0.218849,-0.514439 -0.216007,-0.187585 -0.605389,-0.187585 -0.258641,0 -0.559914,0.09095 -0.301273,0.09095 -0.588336,0.278536 h -0.02842 v -0.596862 q 0.201797,-0.09948 0.537176,-0.181901 0.338222,-0.08242 0.653707,-0.08242 0.650864,0 1.02035,0.315484 0.369487,0.312643 0.369487,0.849819 0,0.241587 -0.06253,0.45191 -0.05969,0.207481 -0.179058,0.395066 -0.110846,0.176217 -0.261483,0.346749 -0.147795,0.170532 -0.36096,0.378013 -0.304115,0.298431 -0.628126,0.579809 -0.324011,0.278536 -0.605389,0.517281 h 2.276603 z"
       id="path74804" />
    <path
       d="m 29.767627,78.772483 q 0,0.295589 -0.108003,0.565598 -0.108004,0.270009 -0.295589,0.454752 -0.204639,0.198954 -0.488859,0.306958 -0.281378,0.105161 -0.653707,0.105161 -0.346748,0 -0.667917,-0.0739 Q 27.232383,80.06 27.010691,79.957681 v -0.599705 h 0.03979 q 0.233061,0.147795 0.545703,0.252956 0.312642,0.102319 0.613915,0.102319 0.201797,0 0.389382,-0.05684 0.190428,-0.05684 0.338222,-0.198954 0.125057,-0.122214 0.187586,-0.292747 0.06537,-0.170532 0.06537,-0.395066 0,-0.218849 -0.07674,-0.369486 -0.0739,-0.150637 -0.207481,-0.241587 -0.147795,-0.108004 -0.36096,-0.150637 -0.210323,-0.04547 -0.471805,-0.04547 -0.250114,0 -0.483175,0.03411 -0.230218,0.03411 -0.397908,0.06821 v -2.179969 h 2.546613 v 0.497386 h -1.998068 v 1.125512 q 0.122215,-0.01137 0.250114,-0.01705 0.127899,-0.0057 0.221692,-0.0057 0.343906,0 0.602547,0.05969 0.25864,0.05684 0.474647,0.204639 0.227376,0.156321 0.352433,0.403593 0.125057,0.247271 0.125057,0.6196 z"
       id="path74806" />
    <path
       d="m 18.768305,84.765061 q 0,0.281378 -0.09948,0.522965 -0.09664,0.238745 -0.272852,0.414962 -0.218849,0.218849 -0.51728,0.329695 -0.298432,0.108004 -0.753184,0.108004 h -0.562756 v 1.577422 H 16 V 83.48607 h 1.14825 q 0.380855,0 0.645179,0.06537 0.264325,0.06253 0.468964,0.198954 0.241587,0.162006 0.372328,0.403593 0.133584,0.241587 0.133584,0.611073 z m -0.585494,0.01421 q 0,-0.218849 -0.07674,-0.380855 -0.07674,-0.162005 -0.233061,-0.264325 -0.136426,-0.08811 -0.312642,-0.125057 -0.173374,-0.03979 -0.440541,-0.03979 h -0.557072 v 1.69111 h 0.474648 q 0.341064,0 0.554229,-0.05969 0.213165,-0.06253 0.346749,-0.196112 0.133583,-0.136426 0.187585,-0.287063 0.05684,-0.150636 0.05684,-0.338222 z"
       id="path74809" />
    <path
       d="M 22.704755,87.718109 H 22.10505 l -0.414961,-1.179514 h -1.830378 l -0.414962,1.179514 H 18.873466 L 20.41394,83.48607 h 0.750341 z m -1.188041,-1.662688 -0.741814,-2.07765 -0.744657,2.07765 z"
       id="path74811" />
    <path
       d="m 26.101186,87.718109 h -2.864939 v -0.59402 q 0.298431,-0.255798 0.596862,-0.511596 0.301274,-0.255799 0.559914,-0.508755 0.545703,-0.528649 0.747499,-0.838449 0.201796,-0.312642 0.201796,-0.673602 0,-0.329696 -0.218849,-0.514439 -0.216007,-0.187585 -0.605389,-0.187585 -0.258641,0 -0.559914,0.09095 -0.301273,0.09095 -0.588336,0.278536 h -0.02842 v -0.596862 q 0.201797,-0.09948 0.537176,-0.181901 0.338222,-0.08242 0.653707,-0.08242 0.650864,0 1.02035,0.315484 0.369487,0.312643 0.369487,0.849819 0,0.241587 -0.06253,0.45191 -0.05969,0.207481 -0.179058,0.395066 -0.110846,0.176217 -0.261483,0.346749 -0.147795,0.170532 -0.36096,0.378013 -0.304115,0.298431 -0.628126,0.579809 -0.324011,0.278536 -0.605389,0.517281 h 2.276603 z"
       id="path74813" />
    <path
       d="m 29.813102,84.119881 -1.915644,3.598228 h -0.608231 l 2.037859,-3.734653 H 26.916899 V 83.48607 h 2.896203 z"
       id="path74815" />
    <path
       d="m 22.701913,93.929526 q 0,0.315484 -0.119373,0.557072 -0.119372,0.241587 -0.321169,0.397908 -0.238745,0.187585 -0.525807,0.267167 -0.28422,0.07958 -0.724762,0.07958 H 19.51012 v -4.232039 h 1.253411 q 0.463279,0 0.693497,0.03411 0.230218,0.03411 0.440541,0.14211 0.233061,0.122215 0.338222,0.315485 0.105162,0.190427 0.105162,0.457594 0,0.301274 -0.153479,0.514439 -0.153479,0.210323 -0.409277,0.338222 v 0.02274 q 0.429172,0.08811 0.676444,0.378013 0.247272,0.287063 0.247272,0.727604 z m -0.946454,-1.907118 q 0,-0.153478 -0.05116,-0.25864 -0.05116,-0.105161 -0.164848,-0.170532 -0.133584,-0.07674 -0.324011,-0.09379 -0.190428,-0.0199 -0.471806,-0.0199 h -0.670759 v 1.222147 h 0.727603 q 0.264325,0 0.420646,-0.02558 0.156321,-0.02842 0.289905,-0.113688 0.133583,-0.08527 0.187585,-0.21885 0.05684,-0.136425 0.05684,-0.321169 z m 0.36096,1.929856 q 0,-0.255799 -0.07674,-0.406435 -0.07674,-0.150637 -0.278536,-0.255798 -0.136426,-0.07106 -0.332538,-0.09095 -0.19327,-0.02274 -0.471805,-0.02274 h -0.883925 v 1.57458 h 0.744657 q 0.369486,0 0.605389,-0.03695 0.235902,-0.03979 0.386539,-0.14211 0.159163,-0.110846 0.233061,-0.252956 0.0739,-0.14211 0.0739,-0.366644 z"
       id="path74820" />
    <path
       d="m 25.882337,93.193396 q 0.136425,0.122214 0.224534,0.306958 0.08811,0.184743 0.08811,0.477489 0,0.289905 -0.105162,0.531492 -0.105161,0.241587 -0.295589,0.420646 -0.213165,0.198954 -0.503069,0.295589 -0.287063,0.09379 -0.630969,0.09379 -0.352433,0 -0.693498,-0.08527 -0.341064,-0.08242 -0.559913,-0.181901 v -0.59402 h 0.04263 q 0.241587,0.159163 0.56844,0.264324 0.326853,0.105162 0.630969,0.105162 0.179059,0 0.380855,-0.05969 0.201796,-0.05969 0.326853,-0.176217 0.130741,-0.125057 0.19327,-0.275693 0.06537,-0.150637 0.06537,-0.380856 0,-0.227376 -0.0739,-0.37517 -0.07105,-0.150637 -0.198954,-0.235903 -0.127899,-0.08811 -0.3098,-0.119373 -0.181901,-0.03411 -0.392224,-0.03411 h -0.255798 v -0.471805 h 0.198954 q 0.432015,0 0.687813,-0.179059 0.258641,-0.181901 0.258641,-0.52865 0,-0.153479 -0.06537,-0.267167 -0.06537,-0.11653 -0.181901,-0.190427 -0.122215,-0.0739 -0.261483,-0.10232 -0.139268,-0.02842 -0.315484,-0.02842 -0.270009,0 -0.574125,0.09664 -0.304116,0.09664 -0.574125,0.272852 h -0.02842 v -0.594021 q 0.201797,-0.09948 0.537176,-0.181901 0.338222,-0.08527 0.653707,-0.08527 0.3098,0 0.545703,0.05684 0.235902,0.05684 0.42633,0.181901 0.204639,0.136426 0.3098,0.329696 0.105162,0.19327 0.105162,0.45191 0,0.352433 -0.250114,0.616758 -0.247272,0.261482 -0.585494,0.329695 v 0.03979 q 0.136426,0.02274 0.312642,0.09663 0.176217,0.07106 0.298432,0.179059 z"
       id="path74822" />
    <path
       d="m 18.768305,99.879464 q 0,0.281376 -0.09948,0.522966 -0.09664,0.23874 -0.272852,0.41496 -0.218849,0.21885 -0.51728,0.3297 -0.298432,0.108 -0.753184,0.108 h -0.562756 v 1.57742 H 16 v -4.232037 h 1.14825 q 0.380855,0 0.645179,0.06537 0.264325,0.06253 0.468964,0.198954 0.241587,0.162005 0.372328,0.403592 0.133584,0.241588 0.133584,0.611074 z m -0.585494,0.01421 q 0,-0.21885 -0.07674,-0.380855 -0.07674,-0.162006 -0.233061,-0.264325 -0.136426,-0.08811 -0.312642,-0.125057 -0.173374,-0.03979 -0.440541,-0.03979 h -0.557072 v 1.691113 h 0.474648 q 0.341064,0 0.554229,-0.0597 0.213165,-0.0625 0.346749,-0.19611 0.133583,-0.13643 0.187585,-0.28706 0.05684,-0.15064 0.05684,-0.338225 z"
       id="path74825" />
    <path
       d="m 26.254665,102.83251 h -2.86494 v -0.59402 q 0.298432,-0.2558 0.596863,-0.51159 0.301273,-0.2558 0.559914,-0.50876 0.545702,-0.52865 0.747499,-0.83845 0.201796,-0.31264 0.201796,-0.6736 0,-0.329696 -0.218849,-0.514439 -0.216008,-0.187585 -0.60539,-0.187585 -0.25864,0 -0.559913,0.09095 -0.301274,0.09095 -0.588336,0.278536 h -0.02842 V 98.77669 q 0.201796,-0.09948 0.537176,-0.181901 0.338222,-0.08242 0.653706,-0.08242 0.650865,0 1.020351,0.315484 0.369486,0.312642 0.369486,0.849819 0,0.241587 -0.06253,0.451912 -0.05969,0.20748 -0.179059,0.39506 -0.110846,0.17622 -0.261482,0.34675 -0.147795,0.17053 -0.36096,0.37802 -0.304116,0.29843 -0.628127,0.5798 -0.324011,0.27854 -0.605389,0.51729 h 2.276604 z"
       id="path74829" />
    <path
       d="m 22.701913,101.53078 q 0,0.31549 -0.119373,0.55707 -0.119372,0.24159 -0.321169,0.39791 -0.238745,0.18759 -0.525807,0.26717 -0.28422,0.0796 -0.724762,0.0796 H 19.51012 v -4.232037 h 1.253411 q 0.463279,0 0.693497,0.03411 0.230218,0.03411 0.440541,0.142111 0.233061,0.122214 0.338222,0.315484 0.105162,0.190427 0.105162,0.457594 0,0.301274 -0.153479,0.514442 -0.153479,0.21032 -0.409277,0.33822 v 0.0227 q 0.429172,0.0881 0.676444,0.37801 0.247272,0.28706 0.247272,0.7276 z m -0.946454,-1.907114 q 0,-0.153479 -0.05116,-0.258641 -0.05116,-0.105161 -0.164848,-0.170532 -0.133584,-0.07674 -0.324011,-0.09379 -0.190428,-0.0199 -0.471806,-0.0199 h -0.670759 v 1.222145 h 0.727603 q 0.264325,0 0.420646,-0.0256 0.156321,-0.0284 0.289905,-0.11369 0.133583,-0.0853 0.187585,-0.218845 0.05684,-0.136426 0.05684,-0.321169 z m 0.36096,1.929854 q 0,-0.2558 -0.07674,-0.40643 -0.07674,-0.15064 -0.278536,-0.2558 -0.136426,-0.0711 -0.332538,-0.0909 -0.19327,-0.0227 -0.471805,-0.0227 h -0.883925 v 1.57458 h 0.744657 q 0.369486,0 0.605389,-0.037 0.235902,-0.0398 0.386539,-0.14211 0.159163,-0.11084 0.233061,-0.25295 0.0739,-0.14212 0.0739,-0.36665 z"
       id="path74827" />
    <path
       d="m 18.768305,107.39972 q 0,0.28138 -0.09948,0.52297 -0.09664,0.23874 -0.272852,0.41496 -0.218849,0.21885 -0.51728,0.32969 -0.298432,0.10801 -0.753184,0.10801 h -0.562756 v 1.57742 H 16 v -4.23204 h 1.14825 q 0.380855,0 0.645179,0.0654 0.264325,0.0625 0.468964,0.19895 0.241587,0.16201 0.372328,0.4036 0.133584,0.24158 0.133584,0.61107 z m -0.585494,0.0142 q 0,-0.21885 -0.07674,-0.38085 -0.07674,-0.16201 -0.233061,-0.26433 -0.136426,-0.0881 -0.312642,-0.12506 -0.173374,-0.0398 -0.440541,-0.0398 h -0.557072 v 1.69111 h 0.474648 q 0.341064,0 0.554229,-0.0597 0.213165,-0.0625 0.346749,-0.19611 0.133583,-0.13643 0.187585,-0.28707 0.05684,-0.15063 0.05684,-0.33822 z"
       id="path74832" />
    <path
       d="m 22.701913,109.05104 q 0,0.31548 -0.119373,0.55707 -0.119372,0.24159 -0.321169,0.39791 -0.238745,0.18758 -0.525807,0.26717 -0.28422,0.0796 -0.724762,0.0796 H 19.51012 v -4.23204 h 1.253411 q 0.463279,0 0.693497,0.0341 0.230218,0.0341 0.440541,0.14211 0.233061,0.12221 0.338222,0.31548 0.105162,0.19043 0.105162,0.45759 0,0.30128 -0.153479,0.51444 -0.153479,0.21033 -0.409277,0.33823 v 0.0227 q 0.429172,0.0881 0.676444,0.37802 0.247272,0.28706 0.247272,0.7276 z m -0.946454,-1.90712 q 0,-0.15348 -0.05116,-0.25864 -0.05116,-0.10516 -0.164848,-0.17053 -0.133584,-0.0767 -0.324011,-0.0938 -0.190428,-0.0199 -0.471806,-0.0199 h -0.670759 v 1.22215 h 0.727603 q 0.264325,0 0.420646,-0.0256 0.156321,-0.0284 0.289905,-0.11369 0.133583,-0.0853 0.187585,-0.21885 0.05684,-0.13643 0.05684,-0.32117 z m 0.36096,1.92986 q 0,-0.2558 -0.07674,-0.40644 -0.07674,-0.15063 -0.278536,-0.2558 -0.136426,-0.071 -0.332538,-0.091 -0.19327,-0.0227 -0.471805,-0.0227 h -0.883925 v 1.57458 h 0.744657 q 0.369486,0 0.605389,-0.037 0.235902,-0.0398 0.386539,-0.14211 0.159163,-0.11085 0.233061,-0.25296 0.0739,-0.14211 0.0739,-0.36664 z"
       id="path74834" />
    <path
       d="m 26.013078,110.35277 h -2.290815 v -0.43202 h 0.881083 v -2.83651 h -0.881083 v -0.38654 q 0.179059,0 0.383697,-0.0284 0.204639,-0.0313 0.3098,-0.0881 0.130742,-0.0711 0.204639,-0.17906 0.07674,-0.11085 0.08811,-0.29559 h 0.440541 v 3.81423 h 0.86403 z"
       id="path74836" />
    <path
       d="m 18.756936,116.51444 q 0,0.29559 -0.108004,0.5656 -0.108004,0.27001 -0.295589,0.45475 -0.204639,0.19896 -0.488859,0.30696 -0.281378,0.10516 -0.653706,0.10516 -0.346749,0 -0.667918,-0.0739 -0.321169,-0.071 -0.54286,-0.17337 v -0.59971 h 0.03979 q 0.233061,0.1478 0.545703,0.25296 0.312642,0.10232 0.613916,0.10232 0.201796,0 0.389382,-0.0568 0.190427,-0.0568 0.338222,-0.19896 0.125056,-0.12221 0.187585,-0.29274 0.06537,-0.17054 0.06537,-0.39507 0,-0.21885 -0.07674,-0.36949 -0.0739,-0.15063 -0.207481,-0.24158 -0.147794,-0.10801 -0.360959,-0.15064 -0.210323,-0.0455 -0.471806,-0.0455 -0.250114,0 -0.483174,0.0341 -0.230219,0.0341 -0.397909,0.0682 v -2.17997 h 2.546614 v 0.49739 h -1.998069 v 1.12551 q 0.122215,-0.0114 0.250114,-0.0171 0.127899,-0.006 0.221692,-0.006 0.343906,0 0.602547,0.0597 0.25864,0.0568 0.474648,0.20464 0.227376,0.15632 0.352433,0.40359 0.125057,0.24727 0.125057,0.6196 z"
       id="path74839" />
    <path
       d="m 23.074241,113.62676 -1.540474,4.23204 h -0.750341 l -1.540474,-4.23204 h 0.602547 l 1.327308,3.72329 1.327309,-3.72329 z"
       id="path74841" />
    <path
       d="m 19.771602,125.14457 q -0.346749,0.15917 -0.758868,0.27854 -0.409277,0.11653 -0.792975,0.11653 -0.494543,0 -0.906662,-0.13643 -0.412119,-0.13642 -0.702024,-0.40927 -0.292747,-0.2757 -0.45191,-0.68782 -0.159164,-0.41496 -0.159164,-0.96919 0,-1.01466 0.591179,-1.60016 0.59402,-0.58833 1.628581,-0.58833 0.36096,0 0.736131,0.0881 0.378013,0.0853 0.812869,0.29275 v 0.66792 H 19.7176 q -0.08811,-0.0682 -0.255798,-0.17906 -0.16769,-0.11085 -0.329696,-0.18474 -0.196112,-0.0881 -0.446226,-0.14496 -0.247271,-0.0597 -0.562756,-0.0597 -0.71055,0 -1.125512,0.45759 -0.412119,0.45476 -0.412119,1.23352 0,0.82139 0.432015,1.27899 0.432015,0.45475 1.176671,0.45475 0.272852,0 0.542861,-0.054 0.272851,-0.054 0.47749,-0.13927 v -1.0374 h -1.134039 v -0.49455 h 1.691111 z"
       id="path74844" />
    <path
       d="m 23.983745,125.45721 h -0.69634 l -2.006594,-3.78581 v 3.78581 h -0.525808 v -4.23203 h 0.872556 l 1.830379,3.45611 v -3.45611 h 0.525807 z"
       id="path74846" />
    <path
       d="m 28.684747,123.34546 q 0,0.57697 -0.252956,1.04593 -0.250114,0.46896 -0.667918,0.7276 -0.289904,0.17906 -0.648022,0.25864 -0.355275,0.0796 -0.937926,0.0796 h -1.068668 v -4.23203 h 1.057299 q 0.6196,0 0.983402,0.091 0.366644,0.0881 0.6196,0.24443 0.432015,0.27 0.673602,0.71907 0.241587,0.44907 0.241587,1.06583 z m -0.588336,-0.009 q 0,-0.49738 -0.173374,-0.83845 -0.173375,-0.34106 -0.517281,-0.53717 -0.250114,-0.14211 -0.531492,-0.19612 -0.281378,-0.0568 -0.673602,-0.0568 h -0.528649 v 3.26569 h 0.528649 q 0.406435,0 0.707709,-0.0597 0.304115,-0.0597 0.557071,-0.22169 0.315485,-0.20179 0.471806,-0.53149 0.159163,-0.3297 0.159163,-0.82424 z"
       id="path74848" />
    <path
       id="connector16pin"
       gorn="0.3.0.0.0.26"
       stroke-width="0.276813"
       style="opacity:0.998;paint-order:markers fill stroke"
       d="M 99.084513,17.04343 H 110.6495 v 1 H 99.084513 Z" />
  </g>
</svg>
